<svg width="60" height="60" viewBox="0 0 60 60" fill="none" xmlns="http://www.w3.org/2000/svg">
<path d="M59.5403 55.385H54.9606V60H59.5403V55.385Z" fill="#52C4CC"/>
<path d="M59.5403 50.77H54.9606V55.385H59.5403V50.77Z" fill="#52C4CC"/>
<path d="M59.5403 46.155H54.9606V50.77H59.5403V46.155Z" fill="#52C4CC"/>
<path d="M59.5403 41.54H54.9606V46.155H59.5403V41.54Z" fill="#52C4CC"/>
<path d="M59.5403 36.925H54.9606V41.54H59.5403V36.925Z" fill="#52C4CC"/>
<path d="M59.5403 32.31H54.9606V36.925H59.5403V32.31Z" fill="#52C4CC"/>
<path d="M59.5403 27.69H54.9606V32.31H59.5403V27.69Z" fill="#52C4CC"/>
<path d="M59.5403 23.075H54.9606V27.69H59.5403V23.075Z" fill="#52C4CC"/>
<path d="M54.9606 50.77H50.381V55.385H54.9606V50.77Z" fill="#52C4CC"/>
<path d="M54.9606 46.155H50.381V50.77H54.9606V46.155Z" fill="#52C4CC"/>
<path d="M54.9606 41.54H50.381V46.155H54.9606V41.54Z" fill="#52C4CC"/>
<path d="M54.9606 36.925H50.381V41.54H54.9606V36.925Z" fill="#52C4CC"/>
<path d="M54.9606 32.31H50.381V36.925H54.9606V32.31Z" fill="white"/>
<path d="M54.9606 27.69H50.381V32.31H54.9606V27.69Z" fill="#6633FF"/>
<path d="M54.9606 23.075H50.381V27.69H54.9606V23.075Z" fill="#6633FF"/>
<path d="M54.9607 18.46H50.381V23.075H54.9606L54.9607 18.46Z" fill="white"/>
<path d="M54.9607 13.845H50.381V18.46H54.9607V13.845Z" fill="#52C4CC"/>
<path d="M50.381 46.155H45.8014V50.77L50.381 50.77V46.155Z" fill="#52C4CC"/>
<path d="M50.381 41.54H45.8014V46.155H50.381V41.54Z" fill="#52C4CC"/>
<path d="M50.381 36.925H45.8014V41.54H50.381V36.925Z" fill="#52C4CC"/>
<path d="M50.381 32.31H45.8014V36.925H50.381V32.31Z" fill="white"/>
<path d="M50.381 27.69H45.8014V32.31H50.381V27.69Z" fill="#6633FF"/>
<path d="M50.381 23.075H45.8014V27.69H50.381V23.075Z" fill="#6633FF"/>
<path d="M50.381 18.46H45.8014V23.075H50.381V18.46Z" fill="white"/>
<path d="M50.381 13.845H45.8014V18.46H50.381V13.845Z" fill="#52C4CC"/>
<path d="M50.381 9.23H45.8014V13.845H50.381L50.381 9.23Z" fill="#52C4CC"/>
<path d="M45.8014 50.77L41.2217 50.77V55.385H45.8013L45.8014 50.77Z" fill="#52C4CC"/>
<path d="M45.8014 46.155H41.2217V50.77L45.8014 50.77V46.155Z" fill="#52C4CC"/>
<path d="M45.8014 41.54H41.2217V46.155H45.8014V41.54Z" fill="#52C4CC"/>
<path d="M45.8014 36.925H41.2217V41.54H45.8014V36.925Z" fill="#52C4CC"/>
<path d="M45.8014 32.31H41.2217V36.925H45.8014V32.31Z" fill="#52C4CC"/>
<path d="M45.8014 27.69H41.2217V32.31H45.8014V27.69Z" fill="white"/>
<path d="M45.8014 23.075H41.2217V27.69H45.8014V23.075Z" fill="white"/>
<path d="M45.8014 18.46H41.2217V23.075H45.8014V18.46Z" fill="white"/>
<path d="M45.8014 13.845H41.2217V18.46H45.8014V13.845Z" fill="#52C4CC"/>
<path d="M45.8014 9.23H41.2217V13.845H45.8014V9.23Z" fill="#52C4CC"/>
<path d="M45.8013 4.615H41.2217V9.23H45.8014L45.8013 4.615Z" fill="#52C4CC"/>
<path d="M41.2217 55.385H36.6421V60H41.2217L41.2217 55.385Z" fill="#52C4CC"/>
<path d="M41.2217 50.77H36.6421V55.385H41.2217V50.77Z" fill="#52C4CC"/>
<path d="M41.2217 46.155H36.6421V50.77H41.2217V46.155Z" fill="#52C4CC"/>
<path d="M41.2217 41.54H36.6421V46.155H41.2217V41.54Z" fill="#52C4CC"/>
<path d="M41.2217 36.925H36.6421V41.54H41.2217V36.925Z" fill="#52C4CC"/>
<path d="M41.2217 32.31H36.6421V36.925H41.2217V32.31Z" fill="#52C4CC"/>
<path d="M41.2217 27.69H36.6421V32.31H41.2217V27.69Z" fill="#52C4CC"/>
<path d="M41.2217 23.075H36.6421V27.69H41.2217V23.075Z" fill="#52C4CC"/>
<path d="M41.2217 18.46H36.6421V23.075H41.2217V18.46Z" fill="#52C4CC"/>
<path d="M41.2217 13.845H36.6421V18.46H41.2217V13.845Z" fill="#52C4CC"/>
<path d="M41.2217 9.23H36.6421V13.845H41.2217V9.23Z" fill="#52C4CC"/>
<path d="M41.2217 4.615H36.6421V9.23H41.2217V4.615Z" fill="#52C4CC"/>
<path d="M41.2217 0H36.6421V4.615H41.2217L41.2217 0Z" fill="#52C4CC"/>
<path d="M36.6421 50.77H32.0625V55.385H36.6421V50.77Z" fill="#52C4CC"/>
<path d="M36.6421 46.155H32.0625V50.77H36.6421V46.155Z" fill="#52C4CC"/>
<path d="M36.6421 41.54H32.0625V46.155H36.6421V41.54Z" fill="#52C4CC"/>
<path d="M36.6421 36.925H32.0625V41.54H36.6421V36.925Z" fill="#52C4CC"/>
<path d="M36.6421 32.31H32.0625V36.925H36.6421V32.31Z" fill="#52C4CC"/>
<path d="M36.6421 27.69H32.0625V32.31H36.6421V27.69Z" fill="#52C4CC"/>
<path d="M36.6421 23.075H32.0625V27.69H36.6421V23.075Z" fill="#52C4CC"/>
<path d="M36.6421 18.46H32.0625V23.075H36.6421V18.46Z" fill="#52C4CC"/>
<path d="M36.6421 13.845H32.0625V18.46H36.6421V13.845Z" fill="#52C4CC"/>
<path d="M36.6421 9.23H32.0625V13.845H36.6421V9.23Z" fill="#52C4CC"/>
<path d="M36.6421 4.615H32.0625V9.23H36.6421V4.615Z" fill="#52C4CC"/>
<path d="M36.6421 0H32.0625V4.615H36.6421V0Z" fill="#52C4CC"/>
<path d="M32.0625 46.155H27.4828V50.77L32.0625 50.77V46.155Z" fill="#52C4CC"/>
<path d="M32.0625 41.54H27.4828V46.155H32.0625V41.54Z" fill="#52C4CC"/>
<path d="M32.0625 36.925H27.4828V41.54H32.0625V36.925Z" fill="#52C4CC"/>
<path d="M32.0625 32.31H27.4828V36.925H32.0625V32.31Z" fill="#52C4CC"/>
<path d="M32.0625 27.69H27.4828V32.31H32.0625V27.69Z" fill="#52C4CC"/>
<path d="M32.0625 23.075H27.4828V27.69H32.0625V23.075Z" fill="#52C4CC"/>
<path d="M32.0625 18.46H27.4828V23.075H32.0625V18.46Z" fill="#52C4CC"/>
<path d="M32.0625 13.845H27.4828V18.46H32.0625V13.845Z" fill="#52C4CC"/>
<path d="M32.0625 9.23H27.4828V13.845H32.0625V9.23Z" fill="#52C4CC"/>
<path d="M32.0625 4.615H27.4828V9.23H32.0625V4.615Z" fill="#52C4CC"/>
<path d="M32.0625 0H27.4828V4.615H32.0625V0Z" fill="#52C4CC"/>
<path d="M27.4828 50.77L22.9032 50.77V55.385H27.4828L27.4828 50.77Z" fill="#52C4CC"/>
<path d="M27.4828 46.155H22.9032V50.77L27.4828 50.77V46.155Z" fill="#52C4CC"/>
<path d="M27.4828 41.54H22.9032V46.155H27.4828V41.54Z" fill="#52C4CC"/>
<path d="M27.4828 36.925H22.9032V41.54H27.4828V36.925Z" fill="#52C4CC"/>
<path d="M27.4828 32.31H22.9032V36.925H27.4828V32.31Z" fill="white"/>
<path d="M27.4828 27.69H22.9032V32.31H27.4828V27.69Z" fill="#6633FF"/>
<path d="M27.4828 23.075H22.9032V27.69H27.4828V23.075Z" fill="#6633FF"/>
<path d="M27.4828 18.46H22.9032V23.075H27.4828V18.46Z" fill="white"/>
<path d="M27.4828 13.845H22.9032V18.46H27.4828V13.845Z" fill="#52C4CC"/>
<path d="M27.4828 9.23H22.9032V13.845H27.4828V9.23Z" fill="#52C4CC"/>
<path d="M27.4828 4.615H22.9032V9.23H27.4828V4.615Z" fill="#52C4CC"/>
<path d="M27.4828 0H22.9032V4.615H27.4828V0Z" fill="#52C4CC"/>
<path d="M22.9032 55.385H18.3186V60H22.9032L22.9032 55.385Z" fill="#52C4CC"/>
<path d="M22.9032 50.77H18.3186V55.385H22.9032V50.77Z" fill="#52C4CC"/>
<path d="M22.9032 46.155H18.3186V50.77H22.9032V46.155Z" fill="#52C4CC"/>
<path d="M22.9032 41.54H18.3186V46.155H22.9032V41.54Z" fill="#52C4CC"/>
<path d="M22.9032 36.925H18.3186V41.54H22.9032V36.925Z" fill="#52C4CC"/>
<path d="M22.9032 32.31H18.3186V36.925H22.9032V32.31Z" fill="white"/>
<path d="M22.9032 27.69H18.3186V32.31H22.9032V27.69Z" fill="#6633FF"/>
<path d="M22.9032 23.075H18.3186V27.69H22.9032V23.075Z" fill="#6633FF"/>
<path d="M22.9032 18.46H18.3186V23.075H22.9032V18.46Z" fill="white"/>
<path d="M22.9032 13.845H18.3186V18.46H22.9032V13.845Z" fill="#52C4CC"/>
<path d="M22.9032 9.23H18.3186V13.845H22.9032V9.23Z" fill="#52C4CC"/>
<path d="M22.9032 4.615H18.3186V9.23H22.9032V4.615Z" fill="#52C4CC"/>
<path d="M22.9032 0H18.3186V4.615H22.9032V0Z" fill="#52C4CC"/>
<path d="M18.3186 50.77H13.7389V55.385H18.3186V50.77Z" fill="#52C4CC"/>
<path d="M18.3186 46.155H13.7389V50.77H18.3186V46.155Z" fill="#52C4CC"/>
<path d="M18.3186 41.54H13.7389V46.155H18.3186V41.54Z" fill="#52C4CC"/>
<path d="M18.3186 36.925H13.7389V41.54H18.3186V36.925Z" fill="#52C4CC"/>
<path d="M18.3186 32.31H13.7389V36.925H18.3186V32.31Z" fill="#52C4CC"/>
<path d="M18.3186 27.69H13.7389V32.31H18.3186V27.69Z" fill="white"/>
<path d="M18.3186 23.075H13.7389V27.69H18.3186V23.075Z" fill="white"/>
<path d="M18.3186 18.46H13.7389V23.075H18.3186V18.46Z" fill="white"/>
<path d="M18.3186 13.845H13.7389V18.46H18.3186V13.845Z" fill="#52C4CC"/>
<path d="M18.3186 9.23H13.7389V13.845H18.3186V9.23Z" fill="#52C4CC"/>
<path d="M18.3186 4.615H13.7389V9.23H18.3186V4.615Z" fill="#52C4CC"/>
<path d="M13.7389 46.155H9.15928V50.77L13.7389 50.77V46.155Z" fill="#52C4CC"/>
<path d="M13.7389 41.54H9.15928V46.155H13.7389V41.54Z" fill="#52C4CC"/>
<path d="M13.7389 36.925H9.15928V41.54H13.7389V36.925Z" fill="#52C4CC"/>
<path d="M13.7389 32.31H9.15928V36.925H13.7389V32.31Z" fill="#52C4CC"/>
<path d="M13.7389 27.69H9.15928V32.31H13.7389V27.69Z" fill="#52C4CC"/>
<path d="M13.7389 23.075H9.15928V27.69H13.7389V23.075Z" fill="#52C4CC"/>
<path d="M13.7389 18.46H9.15928V23.075H13.7389V18.46Z" fill="#52C4CC"/>
<path d="M13.7389 13.845H9.15928V18.46H13.7389V13.845Z" fill="#52C4CC"/>
<path d="M13.7389 9.23H9.15928V13.845H13.7389V9.23Z" fill="#52C4CC"/>
<path d="M9.15928 50.77L4.57965 50.77V55.385H9.15929L9.15928 50.77Z" fill="#52C4CC"/>
<path d="M9.15928 46.155H4.57965V50.77L9.15928 50.77V46.155Z" fill="#52C4CC"/>
<path d="M9.15928 41.54H4.57965V46.155H9.15928V41.54Z" fill="#52C4CC"/>
<path d="M9.15928 36.925H4.57965V41.54H9.15928V36.925Z" fill="#52C4CC"/>
<path d="M9.15928 32.31H4.57965V36.925H9.15928V32.31Z" fill="#52C4CC"/>
<path d="M9.15928 27.69H4.57965V32.31H9.15928V27.69Z" fill="#52C4CC"/>
<path d="M9.15928 23.075H4.57965V27.69H9.15928V23.075Z" fill="#52C4CC"/>
<path d="M9.15928 18.46H4.57965V23.075H9.15928V18.46Z" fill="#52C4CC"/>
<path d="M9.15928 13.845H4.57965V18.46H9.15928V13.845Z" fill="#52C4CC"/>
<path d="M4.57965 55.385H0V60H4.57964L4.57965 55.385Z" fill="#52C4CC"/>
<path d="M4.57965 50.77H0V55.385H4.57965V50.77Z" fill="#52C4CC"/>
<path d="M4.57965 46.155H0V50.77H4.57965V46.155Z" fill="#52C4CC"/>
<path d="M4.57965 41.54H0V46.155H4.57965V41.54Z" fill="#52C4CC"/>
<path d="M4.57965 36.925H0V41.54H4.57965V36.925Z" fill="#52C4CC"/>
<path d="M4.57965 32.31H0V36.925H4.57965V32.31Z" fill="#52C4CC"/>
<path d="M4.57965 27.69H0V32.31H4.57965V27.69Z" fill="#52C4CC"/>
<path d="M4.57965 23.075H0V27.69H4.57965V23.075Z" fill="#52C4CC"/>
</svg>
