<svg width="61" height="60" viewBox="0 0 61 60" fill="none" xmlns="http://www.w3.org/2000/svg">
<path d="M60.0383 55.385H55.4587V60H60.0383V55.385Z" fill="#FF0900"/>
<path d="M60.0383 50.77H55.4587V55.385H60.0383V50.77Z" fill="#FF0900"/>
<path d="M60.0383 46.155H55.4587V50.77H60.0383V46.155Z" fill="#FF0900"/>
<path d="M60.0383 41.54H55.4587V46.155H60.0383V41.54Z" fill="#FF0900"/>
<path d="M60.0383 36.925H55.4587V41.54H60.0383V36.925Z" fill="#FF0900"/>
<path d="M60.0383 32.31H55.4587V36.925H60.0383V32.31Z" fill="#FF0900"/>
<path d="M60.0383 27.69H55.4587V32.31H60.0383V27.69Z" fill="#FF0900"/>
<path d="M60.0383 23.075H55.4587V27.69H60.0383V23.075Z" fill="#FF0900"/>
<path d="M55.4587 50.77H50.8791V55.385H55.4587V50.77Z" fill="#FF0900"/>
<path d="M55.4587 46.155H50.8791V50.77H55.4587V46.155Z" fill="#FF0900"/>
<path d="M55.4587 41.54H50.8791V46.155H55.4587V41.54Z" fill="#FF0900"/>
<path d="M55.4587 36.925H50.8791V41.54H55.4587V36.925Z" fill="#FF0900"/>
<path d="M55.4587 32.31H50.8791V36.925H55.4587V32.31Z" fill="white"/>
<path d="M55.4587 27.69H50.8791V32.31H55.4587V27.69Z" fill="#6633FF"/>
<path d="M55.4587 23.075H50.8791V27.69H55.4587V23.075Z" fill="#6633FF"/>
<path d="M55.4587 18.46H50.8791V23.075H55.4587L55.4587 18.46Z" fill="white"/>
<path d="M55.4587 13.845H50.8791V18.46H55.4587V13.845Z" fill="#FF0900"/>
<path d="M50.8791 46.155H46.2994V50.77L50.8791 50.77V46.155Z" fill="#FF0900"/>
<path d="M50.8791 41.54H46.2994V46.155H50.8791V41.54Z" fill="#FF0900"/>
<path d="M50.8791 36.925H46.2994V41.54H50.8791V36.925Z" fill="#FF0900"/>
<path d="M50.8791 32.31H46.2994V36.925H50.8791V32.31Z" fill="white"/>
<path d="M50.8791 27.69H46.2994V32.31H50.8791V27.69Z" fill="#6633FF"/>
<path d="M50.8791 23.075H46.2994V27.69H50.8791V23.075Z" fill="#6633FF"/>
<path d="M50.8791 18.46H46.2994V23.075H50.8791V18.46Z" fill="white"/>
<path d="M50.8791 13.845H46.2994V18.46H50.8791V13.845Z" fill="#FF0900"/>
<path d="M50.8791 9.23H46.2994V13.845H50.8791L50.8791 9.23Z" fill="#FF0900"/>
<path d="M46.2994 50.77L41.7198 50.77V55.385H46.2994L46.2994 50.77Z" fill="#FF0900"/>
<path d="M46.2994 46.155H41.7198V50.77L46.2994 50.77V46.155Z" fill="#FF0900"/>
<path d="M46.2994 41.54H41.7198V46.155H46.2994V41.54Z" fill="#FF0900"/>
<path d="M46.2994 36.925H41.7198V41.54H46.2994V36.925Z" fill="#FF0900"/>
<path d="M46.2994 32.31H41.7198V36.925H46.2994V32.31Z" fill="#FF0900"/>
<path d="M46.2994 27.69H41.7198V32.31H46.2994V27.69Z" fill="white"/>
<path d="M46.2994 23.075H41.7198V27.69H46.2994V23.075Z" fill="white"/>
<path d="M46.2994 18.46H41.7198V23.075H46.2994V18.46Z" fill="white"/>
<path d="M46.2994 13.845H41.7198V18.46H46.2994V13.845Z" fill="#FF0900"/>
<path d="M46.2994 9.23H41.7198V13.845H46.2994V9.23Z" fill="#FF0900"/>
<path d="M46.2994 4.615H41.7198V9.23H46.2994L46.2994 4.615Z" fill="#FF0900"/>
<path d="M41.7198 55.385H37.1401V60H41.7198L41.7198 55.385Z" fill="#FF0900"/>
<path d="M41.7198 50.77H37.1401V55.385H41.7198V50.77Z" fill="#FF0900"/>
<path d="M41.7198 46.155H37.1401V50.77H41.7198V46.155Z" fill="#FF0900"/>
<path d="M41.7198 41.54H37.1401V46.155H41.7198V41.54Z" fill="#FF0900"/>
<path d="M41.7198 36.925H37.1401V41.54H41.7198V36.925Z" fill="#FF0900"/>
<path d="M41.7198 32.31H37.1401V36.925H41.7198V32.31Z" fill="#FF0900"/>
<path d="M41.7198 27.69H37.1401V32.31H41.7198V27.69Z" fill="#FF0900"/>
<path d="M41.7198 23.075H37.1401V27.69H41.7198V23.075Z" fill="#FF0900"/>
<path d="M41.7198 18.46H37.1401V23.075H41.7198V18.46Z" fill="#FF0900"/>
<path d="M41.7198 13.845H37.1401V18.46H41.7198V13.845Z" fill="#FF0900"/>
<path d="M41.7198 9.23H37.1401V13.845H41.7198V9.23Z" fill="#FF0900"/>
<path d="M41.7198 4.615H37.1401V9.23H41.7198V4.615Z" fill="#FF0900"/>
<path d="M41.7198 0H37.1401V4.615H41.7198L41.7198 0Z" fill="#FF0900"/>
<path d="M37.1401 50.77H32.5605V55.385H37.1401V50.77Z" fill="#FF0900"/>
<path d="M37.1401 46.155H32.5605V50.77H37.1401V46.155Z" fill="#FF0900"/>
<path d="M37.1401 41.54H32.5605V46.155H37.1401V41.54Z" fill="#FF0900"/>
<path d="M37.1401 36.925H32.5605V41.54H37.1401V36.925Z" fill="#FF0900"/>
<path d="M37.1401 32.31H32.5605V36.925H37.1401V32.31Z" fill="#FF0900"/>
<path d="M37.1401 27.69H32.5605V32.31H37.1401V27.69Z" fill="#FF0900"/>
<path d="M37.1401 23.075H32.5605V27.69H37.1401V23.075Z" fill="#FF0900"/>
<path d="M37.1401 18.46H32.5605V23.075H37.1401V18.46Z" fill="#FF0900"/>
<path d="M37.1401 13.845H32.5605V18.46H37.1401V13.845Z" fill="#FF0900"/>
<path d="M37.1401 9.23H32.5605V13.845H37.1401V9.23Z" fill="#FF0900"/>
<path d="M37.1401 4.615H32.5605V9.23H37.1401V4.615Z" fill="#FF0900"/>
<path d="M37.1401 0H32.5605V4.615H37.1401V0Z" fill="#FF0900"/>
<path d="M32.5605 46.155H27.9808V50.77L32.5605 50.77V46.155Z" fill="#FF0900"/>
<path d="M32.5605 41.54H27.9808V46.155H32.5605V41.54Z" fill="#FF0900"/>
<path d="M32.5605 36.925H27.9808V41.54H32.5605V36.925Z" fill="#FF0900"/>
<path d="M32.5605 32.31H27.9808V36.925H32.5605V32.31Z" fill="#FF0900"/>
<path d="M32.5605 27.69H27.9808V32.31H32.5605V27.69Z" fill="#FF0900"/>
<path d="M32.5605 23.075H27.9808V27.69H32.5605V23.075Z" fill="#FF0900"/>
<path d="M32.5605 18.46H27.9808V23.075H32.5605V18.46Z" fill="#FF0900"/>
<path d="M32.5605 13.845H27.9808V18.46H32.5605V13.845Z" fill="#FF0900"/>
<path d="M32.5605 9.23H27.9808V13.845H32.5605V9.23Z" fill="#FF0900"/>
<path d="M32.5605 4.615H27.9808V9.23H32.5605V4.615Z" fill="#FF0900"/>
<path d="M32.5605 0H27.9808V4.615H32.5605V0Z" fill="#FF0900"/>
<path d="M27.9808 50.77L23.4012 50.77V55.385H27.9809L27.9808 50.77Z" fill="#FF0900"/>
<path d="M27.9808 46.155H23.4012V50.77L27.9808 50.77V46.155Z" fill="#FF0900"/>
<path d="M27.9808 41.54H23.4012V46.155H27.9808V41.54Z" fill="#FF0900"/>
<path d="M27.9808 36.925H23.4012V41.54H27.9808V36.925Z" fill="#FF0900"/>
<path d="M27.9808 32.31H23.4012V36.925H27.9808V32.31Z" fill="white"/>
<path d="M27.9808 27.69H23.4012V32.31H27.9808V27.69Z" fill="#6633FF"/>
<path d="M27.9808 23.075H23.4012V27.69H27.9808V23.075Z" fill="#6633FF"/>
<path d="M27.9808 18.46H23.4012V23.075H27.9808V18.46Z" fill="white"/>
<path d="M27.9808 13.845H23.4012V18.46H27.9808V13.845Z" fill="#FF0900"/>
<path d="M27.9808 9.23H23.4012V13.845H27.9808V9.23Z" fill="#FF0900"/>
<path d="M27.9808 4.615H23.4012V9.23H27.9808V4.615Z" fill="#FF0900"/>
<path d="M27.9808 0H23.4012V4.615H27.9808V0Z" fill="#FF0900"/>
<path d="M23.4012 55.385H18.8166V60H23.4012L23.4012 55.385Z" fill="#FF0900"/>
<path d="M23.4012 50.77H18.8166V55.385H23.4012V50.77Z" fill="#FF0900"/>
<path d="M23.4012 46.155H18.8166V50.77H23.4012V46.155Z" fill="#FF0900"/>
<path d="M23.4012 41.54H18.8166V46.155H23.4012V41.54Z" fill="#FF0900"/>
<path d="M23.4012 36.925H18.8166V41.54H23.4012V36.925Z" fill="#FF0900"/>
<path d="M23.4012 32.31H18.8166V36.925H23.4012V32.31Z" fill="white"/>
<path d="M23.4012 27.69H18.8166V32.31H23.4012V27.69Z" fill="#6633FF"/>
<path d="M23.4012 23.075H18.8166V27.69H23.4012V23.075Z" fill="#6633FF"/>
<path d="M23.4012 18.46H18.8166V23.075H23.4012V18.46Z" fill="white"/>
<path d="M23.4012 13.845H18.8166V18.46H23.4012V13.845Z" fill="#FF0900"/>
<path d="M23.4012 9.23H18.8166V13.845H23.4012V9.23Z" fill="#FF0900"/>
<path d="M23.4012 4.615H18.8166V9.23H23.4012V4.615Z" fill="#FF0900"/>
<path d="M23.4012 0H18.8166V4.615H23.4012V0Z" fill="#FF0900"/>
<path d="M18.8166 50.77H14.237V55.385H18.8166V50.77Z" fill="#FF0900"/>
<path d="M18.8166 46.155H14.237V50.77H18.8166V46.155Z" fill="#FF0900"/>
<path d="M18.8166 41.54H14.237V46.155H18.8166V41.54Z" fill="#FF0900"/>
<path d="M18.8166 36.925H14.237V41.54H18.8166V36.925Z" fill="#FF0900"/>
<path d="M18.8166 32.31H14.237V36.925H18.8166V32.31Z" fill="#FF0900"/>
<path d="M18.8166 27.69H14.237V32.31H18.8166V27.69Z" fill="white"/>
<path d="M18.8166 23.075H14.237V27.69H18.8166V23.075Z" fill="white"/>
<path d="M18.8166 18.46H14.237V23.075H18.8166V18.46Z" fill="white"/>
<path d="M18.8166 13.845H14.237V18.46H18.8166V13.845Z" fill="#FF0900"/>
<path d="M18.8166 9.23H14.237V13.845H18.8166V9.23Z" fill="#FF0900"/>
<path d="M18.8166 4.615H14.237V9.23H18.8166V4.615Z" fill="#FF0900"/>
<path d="M14.237 46.155H9.6573V50.77L14.237 50.77V46.155Z" fill="#FF0900"/>
<path d="M14.237 41.54H9.6573V46.155H14.237V41.54Z" fill="#FF0900"/>
<path d="M14.237 36.925H9.6573V41.54H14.237V36.925Z" fill="#FF0900"/>
<path d="M14.237 32.31H9.6573V36.925H14.237V32.31Z" fill="#FF0900"/>
<path d="M14.237 27.69H9.6573V32.31H14.237V27.69Z" fill="#FF0900"/>
<path d="M14.237 23.075H9.6573V27.69H14.237V23.075Z" fill="#FF0900"/>
<path d="M14.237 18.46H9.6573V23.075H14.237V18.46Z" fill="#FF0900"/>
<path d="M14.237 13.845H9.6573V18.46H14.237V13.845Z" fill="#FF0900"/>
<path d="M14.237 9.23H9.6573V13.845H14.237V9.23Z" fill="#FF0900"/>
<path d="M9.6573 50.77L5.07767 50.77V55.385H9.6573L9.6573 50.77Z" fill="#FF0900"/>
<path d="M9.6573 46.155H5.07767V50.77L9.6573 50.77V46.155Z" fill="#FF0900"/>
<path d="M9.6573 41.54H5.07767V46.155H9.6573V41.54Z" fill="#FF0900"/>
<path d="M9.6573 36.925H5.07767V41.54H9.6573V36.925Z" fill="#FF0900"/>
<path d="M9.6573 32.31H5.07767V36.925H9.6573V32.31Z" fill="#FF0900"/>
<path d="M9.6573 27.69H5.07767V32.31H9.6573V27.69Z" fill="#FF0900"/>
<path d="M9.6573 23.075H5.07767V27.69H9.6573V23.075Z" fill="#FF0900"/>
<path d="M9.6573 18.46H5.07767V23.075H9.6573V18.46Z" fill="#FF0900"/>
<path d="M9.6573 13.845H5.07767V18.46H9.6573V13.845Z" fill="#FF0900"/>
<path d="M5.07767 55.385H0.498047V60H5.07768L5.07767 55.385Z" fill="#FF0900"/>
<path d="M5.07767 50.77H0.498047V55.385H5.07767V50.77Z" fill="#FF0900"/>
<path d="M5.07767 46.155H0.498047V50.77H5.07767V46.155Z" fill="#FF0900"/>
<path d="M5.07767 41.54H0.498047V46.155H5.07767V41.54Z" fill="#FF0900"/>
<path d="M5.07767 36.925H0.498047V41.54H5.07767V36.925Z" fill="#FF0900"/>
<path d="M5.07767 32.31H0.498047V36.925H5.07767V32.31Z" fill="#FF0900"/>
<path d="M5.07767 27.69H0.498047V32.31H5.07767V27.69Z" fill="#FF0900"/>
<path d="M5.07767 23.075H0.498047V27.69H5.07767V23.075Z" fill="#FF0900"/>
</svg>
