<svg width="61" height="60" viewBox="0 0 61 60" fill="none" xmlns="http://www.w3.org/2000/svg">
<path d="M60.2019 55.385H55.6223V60H60.2019V55.385Z" fill="#FF7A00"/>
<path d="M60.2019 50.77H55.6223V55.385H60.2019V50.77Z" fill="#FF7A00"/>
<path d="M60.2019 46.155H55.6223V50.77H60.2019V46.155Z" fill="#FF7A00"/>
<path d="M60.2019 41.54H55.6223V46.155H60.2019V41.54Z" fill="#FF7A00"/>
<path d="M60.2019 36.925H55.6223V41.54H60.2019V36.925Z" fill="#FF7A00"/>
<path d="M60.2019 32.31H55.6223V36.925H60.2019V32.31Z" fill="#FF7A00"/>
<path d="M60.2019 27.69H55.6223V32.31H60.2019V27.69Z" fill="#FF7A00"/>
<path d="M60.2019 23.075H55.6223V27.69H60.2019V23.075Z" fill="#FF7A00"/>
<path d="M55.6223 50.77H51.0426V55.385H55.6223V50.77Z" fill="#FF7A00"/>
<path d="M55.6223 46.155H51.0426V50.77H55.6223V46.155Z" fill="#FF7A00"/>
<path d="M55.6223 41.54H51.0426V46.155H55.6223V41.54Z" fill="#FF7A00"/>
<path d="M55.6223 36.925H51.0426V41.54H55.6223V36.925Z" fill="#FF7A00"/>
<path d="M55.6223 32.31H51.0426V36.925H55.6223V32.31Z" fill="white"/>
<path d="M55.6223 27.69H51.0426V32.31H55.6223V27.69Z" fill="#6633FF"/>
<path d="M55.6223 23.075H51.0426V27.69H55.6223V23.075Z" fill="#6633FF"/>
<path d="M55.6223 18.46H51.0426V23.075H55.6223L55.6223 18.46Z" fill="white"/>
<path d="M55.6223 13.845H51.0426V18.46H55.6223V13.845Z" fill="#FF7A00"/>
<path d="M51.0426 46.155H46.463V50.77L51.0426 50.77V46.155Z" fill="#FF7A00"/>
<path d="M51.0426 41.54H46.463V46.155H51.0426V41.54Z" fill="#FF7A00"/>
<path d="M51.0426 36.925H46.463V41.54H51.0426V36.925Z" fill="#FF7A00"/>
<path d="M51.0426 32.31H46.463V36.925H51.0426V32.31Z" fill="white"/>
<path d="M51.0426 27.69H46.463V32.31H51.0426V27.69Z" fill="#6633FF"/>
<path d="M51.0426 23.075H46.463V27.69H51.0426V23.075Z" fill="#6633FF"/>
<path d="M51.0426 18.46H46.463V23.075H51.0426V18.46Z" fill="white"/>
<path d="M51.0426 13.845H46.463V18.46H51.0426V13.845Z" fill="#FF7A00"/>
<path d="M51.0427 9.23H46.463V13.845H51.0426L51.0427 9.23Z" fill="#FF7A00"/>
<path d="M46.463 50.77L41.8833 50.77V55.385H46.463L46.463 50.77Z" fill="#FF7A00"/>
<path d="M46.463 46.155H41.8833V50.77L46.463 50.77V46.155Z" fill="#FF7A00"/>
<path d="M46.463 41.54H41.8833V46.155H46.463V41.54Z" fill="#FF7A00"/>
<path d="M46.463 36.925H41.8833V41.54H46.463V36.925Z" fill="#FF7A00"/>
<path d="M46.463 32.31H41.8833V36.925H46.463V32.31Z" fill="#FF7A00"/>
<path d="M46.463 27.69H41.8833V32.31H46.463V27.69Z" fill="white"/>
<path d="M46.463 23.075H41.8833V27.69H46.463V23.075Z" fill="white"/>
<path d="M46.463 18.46H41.8833V23.075H46.463V18.46Z" fill="white"/>
<path d="M46.463 13.845H41.8833V18.46H46.463V13.845Z" fill="#FF7A00"/>
<path d="M46.463 9.23H41.8833V13.845H46.463V9.23Z" fill="#FF7A00"/>
<path d="M46.463 4.615H41.8833V9.23H46.463L46.463 4.615Z" fill="#FF7A00"/>
<path d="M41.8833 55.385H37.3037V60H41.8833L41.8833 55.385Z" fill="#FF7A00"/>
<path d="M41.8833 50.77H37.3037V55.385H41.8833V50.77Z" fill="#FF7A00"/>
<path d="M41.8833 46.155H37.3037V50.77H41.8833V46.155Z" fill="#FF7A00"/>
<path d="M41.8833 41.54H37.3037V46.155H41.8833V41.54Z" fill="#FF7A00"/>
<path d="M41.8833 36.925H37.3037V41.54H41.8833V36.925Z" fill="#FF7A00"/>
<path d="M41.8833 32.31H37.3037V36.925H41.8833V32.31Z" fill="#FF7A00"/>
<path d="M41.8833 27.69H37.3037V32.31H41.8833V27.69Z" fill="#FF7A00"/>
<path d="M41.8833 23.075H37.3037V27.69H41.8833V23.075Z" fill="#FF7A00"/>
<path d="M41.8833 18.46H37.3037V23.075H41.8833V18.46Z" fill="#FF7A00"/>
<path d="M41.8833 13.845H37.3037V18.46H41.8833V13.845Z" fill="#FF7A00"/>
<path d="M41.8833 9.23H37.3037V13.845H41.8833V9.23Z" fill="#FF7A00"/>
<path d="M41.8833 4.615H37.3037V9.23H41.8833V4.615Z" fill="#FF7A00"/>
<path d="M41.8833 0H37.3037V4.615H41.8833L41.8833 0Z" fill="#FF7A00"/>
<path d="M37.3037 50.77H32.7241V55.385H37.3037V50.77Z" fill="#FF7A00"/>
<path d="M37.3037 46.155H32.7241V50.77H37.3037V46.155Z" fill="#FF7A00"/>
<path d="M37.3037 41.54H32.7241V46.155H37.3037V41.54Z" fill="#FF7A00"/>
<path d="M37.3037 36.925H32.7241V41.54H37.3037V36.925Z" fill="#FF7A00"/>
<path d="M37.3037 32.31H32.7241V36.925H37.3037V32.31Z" fill="#FF7A00"/>
<path d="M37.3037 27.69H32.7241V32.31H37.3037V27.69Z" fill="#FF7A00"/>
<path d="M37.3037 23.075H32.7241V27.69H37.3037V23.075Z" fill="#FF7A00"/>
<path d="M37.3037 18.46H32.7241V23.075H37.3037V18.46Z" fill="#FF7A00"/>
<path d="M37.3037 13.845H32.7241V18.46H37.3037V13.845Z" fill="#FF7A00"/>
<path d="M37.3037 9.23H32.7241V13.845H37.3037V9.23Z" fill="#FF7A00"/>
<path d="M37.3037 4.615H32.7241V9.23H37.3037V4.615Z" fill="#FF7A00"/>
<path d="M37.3037 0H32.7241V4.615H37.3037V0Z" fill="#FF7A00"/>
<path d="M32.7241 46.155H28.1445V50.77L32.7241 50.77V46.155Z" fill="#FF7A00"/>
<path d="M32.7241 41.54H28.1445V46.155H32.7241V41.54Z" fill="#FF7A00"/>
<path d="M32.7241 36.925H28.1445V41.54H32.7241V36.925Z" fill="#FF7A00"/>
<path d="M32.7241 32.31H28.1445V36.925H32.7241V32.31Z" fill="#FF7A00"/>
<path d="M32.7241 27.69H28.1445V32.31H32.7241V27.69Z" fill="#FF7A00"/>
<path d="M32.7241 23.075H28.1445V27.69H32.7241V23.075Z" fill="#FF7A00"/>
<path d="M32.7241 18.46H28.1445V23.075H32.7241V18.46Z" fill="#FF7A00"/>
<path d="M32.7241 13.845H28.1445V18.46H32.7241V13.845Z" fill="#FF7A00"/>
<path d="M32.7241 9.23H28.1445V13.845H32.7241V9.23Z" fill="#FF7A00"/>
<path d="M32.7241 4.615H28.1445V9.23H32.7241V4.615Z" fill="#FF7A00"/>
<path d="M32.7241 0H28.1445V4.615H32.7241V0Z" fill="#FF7A00"/>
<path d="M28.1445 50.77L23.5648 50.77V55.385H28.1444L28.1445 50.77Z" fill="#FF7A00"/>
<path d="M28.1445 46.155H23.5648V50.77L28.1445 50.77V46.155Z" fill="#FF7A00"/>
<path d="M28.1445 41.54H23.5648V46.155H28.1445V41.54Z" fill="#FF7A00"/>
<path d="M28.1445 36.925H23.5648V41.54H28.1445V36.925Z" fill="#FF7A00"/>
<path d="M28.1445 32.31H23.5648V36.925H28.1445V32.31Z" fill="white"/>
<path d="M28.1445 27.69H23.5648V32.31H28.1445V27.69Z" fill="#6633FF"/>
<path d="M28.1445 23.075H23.5648V27.69H28.1445V23.075Z" fill="#6633FF"/>
<path d="M28.1445 18.46H23.5648V23.075H28.1445V18.46Z" fill="white"/>
<path d="M28.1445 13.845H23.5648V18.46H28.1445V13.845Z" fill="#FF7A00"/>
<path d="M28.1445 9.23H23.5648V13.845H28.1445V9.23Z" fill="#FF7A00"/>
<path d="M28.1445 4.615H23.5648V9.23H28.1445V4.615Z" fill="#FF7A00"/>
<path d="M28.1445 0H23.5648V4.615H28.1445V0Z" fill="#FF7A00"/>
<path d="M23.5648 55.385H18.9802V60H23.5648L23.5648 55.385Z" fill="#FF7A00"/>
<path d="M23.5648 50.77H18.9802V55.385H23.5648V50.77Z" fill="#FF7A00"/>
<path d="M23.5648 46.155H18.9802V50.77H23.5648V46.155Z" fill="#FF7A00"/>
<path d="M23.5648 41.54H18.9802V46.155H23.5648V41.54Z" fill="#FF7A00"/>
<path d="M23.5648 36.925H18.9802V41.54H23.5648V36.925Z" fill="#FF7A00"/>
<path d="M23.5648 32.31H18.9802V36.925H23.5648V32.31Z" fill="white"/>
<path d="M23.5648 27.69H18.9802V32.31H23.5648V27.69Z" fill="#6633FF"/>
<path d="M23.5648 23.075H18.9802V27.69H23.5648V23.075Z" fill="#6633FF"/>
<path d="M23.5648 18.46H18.9802V23.075H23.5648V18.46Z" fill="white"/>
<path d="M23.5648 13.845H18.9802V18.46H23.5648V13.845Z" fill="#FF7A00"/>
<path d="M23.5648 9.23H18.9802V13.845H23.5648V9.23Z" fill="#FF7A00"/>
<path d="M23.5648 4.615H18.9802V9.23H23.5648V4.615Z" fill="#FF7A00"/>
<path d="M23.5648 0H18.9802V4.615H23.5648V0Z" fill="#FF7A00"/>
<path d="M18.9802 50.77H14.4006V55.385H18.9802V50.77Z" fill="#FF7A00"/>
<path d="M18.9802 46.155H14.4006V50.77H18.9802V46.155Z" fill="#FF7A00"/>
<path d="M18.9802 41.54H14.4006V46.155H18.9802V41.54Z" fill="#FF7A00"/>
<path d="M18.9802 36.925H14.4006V41.54H18.9802V36.925Z" fill="#FF7A00"/>
<path d="M18.9802 32.31H14.4006V36.925H18.9802V32.31Z" fill="#FF7A00"/>
<path d="M18.9802 27.69H14.4006V32.31H18.9802V27.69Z" fill="white"/>
<path d="M18.9802 23.075H14.4006V27.69H18.9802V23.075Z" fill="white"/>
<path d="M18.9802 18.46H14.4006V23.075H18.9802V18.46Z" fill="white"/>
<path d="M18.9802 13.845H14.4006V18.46H18.9802V13.845Z" fill="#FF7A00"/>
<path d="M18.9802 9.23H14.4006V13.845H18.9802V9.23Z" fill="#FF7A00"/>
<path d="M18.9802 4.615H14.4006V9.23H18.9802V4.615Z" fill="#FF7A00"/>
<path d="M14.4006 46.155H9.82087V50.77L14.4006 50.77V46.155Z" fill="#FF7A00"/>
<path d="M14.4006 41.54H9.82087V46.155H14.4006V41.54Z" fill="#FF7A00"/>
<path d="M14.4006 36.925H9.82087V41.54H14.4006V36.925Z" fill="#FF7A00"/>
<path d="M14.4006 32.31H9.82087V36.925H14.4006V32.31Z" fill="#FF7A00"/>
<path d="M14.4006 27.69H9.82087V32.31H14.4006V27.69Z" fill="#FF7A00"/>
<path d="M14.4006 23.075H9.82087V27.69H14.4006V23.075Z" fill="#FF7A00"/>
<path d="M14.4006 18.46H9.82087V23.075H14.4006V18.46Z" fill="#FF7A00"/>
<path d="M14.4006 13.845H9.82087V18.46H14.4006V13.845Z" fill="#FF7A00"/>
<path d="M14.4006 9.23H9.82087V13.845H14.4006V9.23Z" fill="#FF7A00"/>
<path d="M9.82087 50.77L5.24125 50.77V55.385H9.82088L9.82087 50.77Z" fill="#FF7A00"/>
<path d="M9.82087 46.155H5.24125V50.77L9.82087 50.77V46.155Z" fill="#FF7A00"/>
<path d="M9.82087 41.54H5.24125V46.155H9.82087V41.54Z" fill="#FF7A00"/>
<path d="M9.82087 36.925H5.24125V41.54H9.82087V36.925Z" fill="#FF7A00"/>
<path d="M9.82087 32.31H5.24125V36.925H9.82087V32.31Z" fill="#FF7A00"/>
<path d="M9.82087 27.69H5.24125V32.31H9.82087V27.69Z" fill="#FF7A00"/>
<path d="M9.82087 23.075H5.24125V27.69H9.82087V23.075Z" fill="#FF7A00"/>
<path d="M9.82087 18.46H5.24125V23.075H9.82087V18.46Z" fill="#FF7A00"/>
<path d="M9.82087 13.845H5.24125V18.46H9.82087V13.845Z" fill="#FF7A00"/>
<path d="M5.24125 55.385H0.661621V60H5.24127L5.24125 55.385Z" fill="#FF7A00"/>
<path d="M5.24125 50.77H0.661621V55.385H5.24125V50.77Z" fill="#FF7A00"/>
<path d="M5.24125 46.155H0.661621V50.77H5.24125V46.155Z" fill="#FF7A00"/>
<path d="M5.24125 41.54H0.661621V46.155H5.24125V41.54Z" fill="#FF7A00"/>
<path d="M5.24125 36.925H0.661621V41.54H5.24125V36.925Z" fill="#FF7A00"/>
<path d="M5.24125 32.31H0.661621V36.925H5.24125V32.31Z" fill="#FF7A00"/>
<path d="M5.24125 27.69H0.661621V32.31H5.24125V27.69Z" fill="#FF7A00"/>
<path d="M5.24125 23.075H0.661621V27.69H5.24125V23.075Z" fill="#FF7A00"/>
</svg>
