<svg width="722" height="210" viewBox="0 0 722 210" fill="none" xmlns="http://www.w3.org/2000/svg">
<path d="M541.882 7.11764H538.353V3.58823H499.529V7.11764H506.588V10.6471H503.059V14.1765H499.529V17.7059H527.765V21.2353H503.059V24.7647H499.529V28.2941H496V49.4706H499.529V53H541.882V49.4706H545.412V38.8824H541.882V35.3529H520.706V31.8235H538.353V28.2941H541.882V24.7647H545.412V10.6471H541.882V7.11764ZM499.529 7.11764H496V14.1765H499.529V7.11764ZM598.367 7.11764H594.837V3.58823H559.543V7.11764H563.073V10.6471H559.543V14.1765H556.014V10.6471H552.484V45.9412H556.014V49.4706H559.543V53H594.837V49.4706H598.367V45.9412H601.896V10.6471H598.367V7.11764ZM577.19 38.8824V14.1765H587.778V38.8824H577.19ZM654.851 7.11764H651.322V3.58823H612.498V7.11764H619.557V10.6471H616.028V14.1765H612.498V17.7059H640.733V21.2353H616.028V24.7647H612.498V28.2941H608.969V49.4706H612.498V53H654.851V49.4706H658.381V38.8824H654.851V35.3529H633.675V31.8235H651.322V28.2941H654.851V24.7647H658.381V10.6471H654.851V7.11764ZM612.498 7.11764H608.969V14.1765H612.498V7.11764ZM711.335 7.11764H707.806V3.58823H668.983V7.11764H676.041V10.6471H672.512V14.1765H668.983V17.7059H697.218V21.2353H672.512V24.7647H668.983V28.2941H665.453V49.4706H668.983V53H711.335V49.4706H714.865V38.8824H711.335V35.3529H690.159V31.8235H707.806V28.2941H711.335V24.7647H714.865V10.6471H711.335V7.11764ZM668.983 7.11764H665.453V14.1765H668.983V7.11764Z" fill="white"/>
<g filter="url(#filter0_d_329_17666)">
<path d="M91.7647 97.1765H7.05882V104.235H21.1765V111.294H14.1176V118.353H7.05882V125.412H28.2353V188.941H35.2941V196H63.5294V188.941H70.5882V125.412H91.7647V118.353H98.8235V104.235H91.7647V97.1765ZM7.05882 104.235H0V118.353H7.05882V104.235ZM210.733 104.235V97.1765H189.557V104.235H182.498V132.471H168.381V104.235H161.322V97.1765H126.028V104.235H140.145V111.294H133.086V118.353H126.028V104.235H118.969V188.941H126.028V196H161.322V188.941H168.381V153.647H182.498V188.941H189.557V196H210.733V188.941H217.792V104.235H210.733ZM329.702 97.1765H244.996V104.235H259.114V111.294H252.055V118.353H244.996V104.235H237.938V188.941H244.996V196H329.702V188.941H336.761V174.824H329.702V167.765H287.349V153.647H329.702V146.588H336.761V139.529H329.702V132.471H287.349V118.353H329.702V111.294H336.761V104.235H329.702V97.1765Z" fill="white"/>
<path d="M91.7647 97.1765H99.7647V89.1765H91.7647V97.1765ZM7.05882 97.1765V89.1765H-0.941176V97.1765H7.05882ZM7.05882 104.235H-0.941176V112.235H7.05882V104.235ZM21.1765 104.235H29.1765V96.2353H21.1765V104.235ZM21.1765 111.294V119.294H29.1765V111.294H21.1765ZM14.1176 111.294V103.294H6.11765V111.294H14.1176ZM14.1176 118.353V126.353H22.1176V118.353H14.1176ZM7.05882 118.353V110.353H-0.941176V118.353H7.05882ZM7.05882 125.412H-0.941176V133.412H7.05882V125.412ZM28.2353 125.412H36.2353V117.412H28.2353V125.412ZM28.2353 188.941H20.2353V196.941H28.2353V188.941ZM35.2941 188.941H43.2941V180.941H35.2941V188.941ZM35.2941 196H27.2941V204H35.2941V196ZM63.5294 196V204H71.5294V196H63.5294ZM63.5294 188.941V180.941H55.5294V188.941H63.5294ZM70.5882 188.941V196.941H78.5882V188.941H70.5882ZM70.5882 125.412V117.412H62.5882V125.412H70.5882ZM91.7647 125.412V133.412H99.7647V125.412H91.7647ZM91.7647 118.353V110.353H83.7647V118.353H91.7647ZM98.8235 118.353V126.353H106.824V118.353H98.8235ZM98.8235 104.235H106.824V96.2353H98.8235V104.235ZM91.7647 104.235H83.7647V112.235H91.7647V104.235ZM7.05882 104.235H15.0588V96.2353H7.05882V104.235ZM0 104.235V96.2353H-8V104.235H0ZM0 118.353H-8V126.353H0V118.353ZM7.05882 118.353V126.353H15.0588V118.353H7.05882ZM91.7647 89.1765H7.05882V105.176H91.7647V89.1765ZM-0.941176 97.1765V104.235H15.0588V97.1765H-0.941176ZM7.05882 112.235H21.1765V96.2353H7.05882V112.235ZM13.1765 104.235V111.294H29.1765V104.235H13.1765ZM21.1765 103.294H14.1176V119.294H21.1765V103.294ZM6.11765 111.294V118.353H22.1176V111.294H6.11765ZM14.1176 110.353H7.05882V126.353H14.1176V110.353ZM-0.941176 118.353V125.412H15.0588V118.353H-0.941176ZM7.05882 133.412H28.2353V117.412H7.05882V133.412ZM20.2353 125.412V188.941H36.2353V125.412H20.2353ZM28.2353 196.941H35.2941V180.941H28.2353V196.941ZM27.2941 188.941V196H43.2941V188.941H27.2941ZM35.2941 204H63.5294V188H35.2941V204ZM71.5294 196V188.941H55.5294V196H71.5294ZM63.5294 196.941H70.5882V180.941H63.5294V196.941ZM78.5882 188.941V125.412H62.5882V188.941H78.5882ZM70.5882 133.412H91.7647V117.412H70.5882V133.412ZM99.7647 125.412V118.353H83.7647V125.412H99.7647ZM91.7647 126.353H98.8235V110.353H91.7647V126.353ZM106.824 118.353V104.235H90.8235V118.353H106.824ZM98.8235 96.2353H91.7647V112.235H98.8235V96.2353ZM99.7647 104.235V97.1765H83.7647V104.235H99.7647ZM7.05882 96.2353H0V112.235H7.05882V96.2353ZM-8 104.235V118.353H8V104.235H-8ZM0 126.353H7.05882V110.353H0V126.353ZM15.0588 118.353V104.235H-0.941176V118.353H15.0588ZM210.733 104.235H202.733V112.235H210.733V104.235ZM210.733 97.1765H218.733V89.1765H210.733V97.1765ZM189.557 97.1765V89.1765H181.557V97.1765H189.557ZM189.557 104.235V112.235H197.557V104.235H189.557ZM182.498 104.235V96.2353H174.498V104.235H182.498ZM182.498 132.471V140.471H190.498V132.471H182.498ZM168.381 132.471H160.381V140.471H168.381V132.471ZM168.381 104.235H176.381V96.2353H168.381V104.235ZM161.322 104.235H153.322V112.235H161.322V104.235ZM161.322 97.1765H169.322V89.1765H161.322V97.1765ZM126.028 97.1765V89.1765H118.028V97.1765H126.028ZM126.028 104.235H118.028V112.235H126.028V104.235ZM140.145 104.235H148.145V96.2353H140.145V104.235ZM140.145 111.294V119.294H148.145V111.294H140.145ZM133.086 111.294V103.294H125.086V111.294H133.086ZM133.086 118.353V126.353H141.086V118.353H133.086ZM126.028 118.353H118.028V126.353H126.028V118.353ZM126.028 104.235H134.028V96.2353H126.028V104.235ZM118.969 104.235V96.2353H110.969V104.235H118.969ZM118.969 188.941H110.969V196.941H118.969V188.941ZM126.028 188.941H134.028V180.941H126.028V188.941ZM126.028 196H118.028V204H126.028V196ZM161.322 196V204H169.322V196H161.322ZM161.322 188.941V180.941H153.322V188.941H161.322ZM168.381 188.941V196.941H176.381V188.941H168.381ZM168.381 153.647V145.647H160.381V153.647H168.381ZM182.498 153.647H190.498V145.647H182.498V153.647ZM182.498 188.941H174.498V196.941H182.498V188.941ZM189.557 188.941H197.557V180.941H189.557V188.941ZM189.557 196H181.557V204H189.557V196ZM210.733 196V204H218.733V196H210.733ZM210.733 188.941V180.941H202.733V188.941H210.733ZM217.792 188.941V196.941H225.792V188.941H217.792ZM217.792 104.235H225.792V96.2353H217.792V104.235ZM218.733 104.235V97.1765H202.733V104.235H218.733ZM210.733 89.1765H189.557V105.176H210.733V89.1765ZM181.557 97.1765V104.235H197.557V97.1765H181.557ZM189.557 96.2353H182.498V112.235H189.557V96.2353ZM174.498 104.235V132.471H190.498V104.235H174.498ZM182.498 124.471H168.381V140.471H182.498V124.471ZM176.381 132.471V104.235H160.381V132.471H176.381ZM168.381 96.2353H161.322V112.235H168.381V96.2353ZM169.322 104.235V97.1765H153.322V104.235H169.322ZM161.322 89.1765H126.028V105.176H161.322V89.1765ZM118.028 97.1765V104.235H134.028V97.1765H118.028ZM126.028 112.235H140.145V96.2353H126.028V112.235ZM132.145 104.235V111.294H148.145V104.235H132.145ZM140.145 103.294H133.086V119.294H140.145V103.294ZM125.086 111.294V118.353H141.086V111.294H125.086ZM133.086 110.353H126.028V126.353H133.086V110.353ZM134.028 118.353V104.235H118.028V118.353H134.028ZM126.028 96.2353H118.969V112.235H126.028V96.2353ZM110.969 104.235V188.941H126.969V104.235H110.969ZM118.969 196.941H126.028V180.941H118.969V196.941ZM118.028 188.941V196H134.028V188.941H118.028ZM126.028 204H161.322V188H126.028V204ZM169.322 196V188.941H153.322V196H169.322ZM161.322 196.941H168.381V180.941H161.322V196.941ZM176.381 188.941V153.647H160.381V188.941H176.381ZM168.381 161.647H182.498V145.647H168.381V161.647ZM174.498 153.647V188.941H190.498V153.647H174.498ZM182.498 196.941H189.557V180.941H182.498V196.941ZM181.557 188.941V196H197.557V188.941H181.557ZM189.557 204H210.733V188H189.557V204ZM218.733 196V188.941H202.733V196H218.733ZM210.733 196.941H217.792V180.941H210.733V196.941ZM225.792 188.941V104.235H209.792V188.941H225.792ZM217.792 96.2353H210.733V112.235H217.792V96.2353ZM329.702 97.1765H337.702V89.1765H329.702V97.1765ZM244.996 97.1765V89.1765H236.996V97.1765H244.996ZM244.996 104.235H236.996V112.235H244.996V104.235ZM259.114 104.235H267.114V96.2353H259.114V104.235ZM259.114 111.294V119.294H267.114V111.294H259.114ZM252.055 111.294V103.294H244.055V111.294H252.055ZM252.055 118.353V126.353H260.055V118.353H252.055ZM244.996 118.353H236.996V126.353H244.996V118.353ZM244.996 104.235H252.996V96.2353H244.996V104.235ZM237.938 104.235V96.2353H229.938V104.235H237.938ZM237.938 188.941H229.938V196.941H237.938V188.941ZM244.996 188.941H252.996V180.941H244.996V188.941ZM244.996 196H236.996V204H244.996V196ZM329.702 196V204H337.702V196H329.702ZM329.702 188.941V180.941H321.702V188.941H329.702ZM336.761 188.941V196.941H344.761V188.941H336.761ZM336.761 174.824H344.761V166.824H336.761V174.824ZM329.702 174.824H321.702V182.824H329.702V174.824ZM329.702 167.765H337.702V159.765H329.702V167.765ZM287.349 167.765H279.349V175.765H287.349V167.765ZM287.349 153.647V145.647H279.349V153.647H287.349ZM329.702 153.647V161.647H337.702V153.647H329.702ZM329.702 146.588V138.588H321.702V146.588H329.702ZM336.761 146.588V154.588H344.761V146.588H336.761ZM336.761 139.529H344.761V131.529H336.761V139.529ZM329.702 139.529H321.702V147.529H329.702V139.529ZM329.702 132.471H337.702V124.471H329.702V132.471ZM287.349 132.471H279.349V140.471H287.349V132.471ZM287.349 118.353V110.353H279.349V118.353H287.349ZM329.702 118.353V126.353H337.702V118.353H329.702ZM329.702 111.294V103.294H321.702V111.294H329.702ZM336.761 111.294V119.294H344.761V111.294H336.761ZM336.761 104.235H344.761V96.2353H336.761V104.235ZM329.702 104.235H321.702V112.235H329.702V104.235ZM329.702 89.1765H244.996V105.176H329.702V89.1765ZM236.996 97.1765V104.235H252.996V97.1765H236.996ZM244.996 112.235H259.114V96.2353H244.996V112.235ZM251.114 104.235V111.294H267.114V104.235H251.114ZM259.114 103.294H252.055V119.294H259.114V103.294ZM244.055 111.294V118.353H260.055V111.294H244.055ZM252.055 110.353H244.996V126.353H252.055V110.353ZM252.996 118.353V104.235H236.996V118.353H252.996ZM244.996 96.2353H237.938V112.235H244.996V96.2353ZM229.938 104.235V188.941H245.938V104.235H229.938ZM237.938 196.941H244.996V180.941H237.938V196.941ZM236.996 188.941V196H252.996V188.941H236.996ZM244.996 204H329.702V188H244.996V204ZM337.702 196V188.941H321.702V196H337.702ZM329.702 196.941H336.761V180.941H329.702V196.941ZM344.761 188.941V174.824H328.761V188.941H344.761ZM336.761 166.824H329.702V182.824H336.761V166.824ZM337.702 174.824V167.765H321.702V174.824H337.702ZM329.702 159.765H287.349V175.765H329.702V159.765ZM295.349 167.765V153.647H279.349V167.765H295.349ZM287.349 161.647H329.702V145.647H287.349V161.647ZM337.702 153.647V146.588H321.702V153.647H337.702ZM329.702 154.588H336.761V138.588H329.702V154.588ZM344.761 146.588V139.529H328.761V146.588H344.761ZM336.761 131.529H329.702V147.529H336.761V131.529ZM337.702 139.529V132.471H321.702V139.529H337.702ZM329.702 124.471H287.349V140.471H329.702V124.471ZM295.349 132.471V118.353H279.349V132.471H295.349ZM287.349 126.353H329.702V110.353H287.349V126.353ZM337.702 118.353V111.294H321.702V118.353H337.702ZM329.702 119.294H336.761V103.294H329.702V119.294ZM344.761 111.294V104.235H328.761V111.294H344.761ZM336.761 96.2353H329.702V112.235H336.761V96.2353ZM337.702 104.235V97.1765H321.702V104.235H337.702Z" fill="#131415"/>
</g>
<g filter="url(#filter1_d_329_17666)">
<path d="M462.765 97.1765H378.059V104.235H392.176V111.294H385.118V118.353H378.059V104.235H371V188.941H378.059V196H413.353V188.941H420.412V153.647H462.765V146.588H469.824V139.529H462.765V132.471H420.412V118.353H462.765V111.294H469.824V104.235H462.765V97.1765ZM581.733 104.235H574.675V97.1765H497.028V104.235H511.145V111.294H504.086V118.353H497.028V125.412H553.498V132.471H504.086V139.529H497.028V146.588H489.969V188.941H497.028V196H581.733V188.941H588.792V167.765H581.733V160.706H539.381V153.647H574.675V146.588H581.733V139.529H588.792V111.294H581.733V104.235ZM497.028 104.235H489.969V118.353H497.028V104.235ZM700.702 97.1765H615.996V104.235H630.114V111.294H623.055V118.353H615.996V104.235H608.938V188.941H615.996V196H700.702V188.941H707.761V174.824H700.702V167.765H658.349V153.647H700.702V146.588H707.761V139.529H700.702V132.471H658.349V118.353H700.702V111.294H707.761V104.235H700.702V97.1765Z" fill="white"/>
<path d="M462.765 97.1765H470.765V89.1765H462.765V97.1765ZM378.059 97.1765V89.1765H370.059V97.1765H378.059ZM378.059 104.235H370.059V112.235H378.059V104.235ZM392.176 104.235H400.176V96.2353H392.176V104.235ZM392.176 111.294V119.294H400.176V111.294H392.176ZM385.118 111.294V103.294H377.118V111.294H385.118ZM385.118 118.353V126.353H393.118V118.353H385.118ZM378.059 118.353H370.059V126.353H378.059V118.353ZM378.059 104.235H386.059V96.2353H378.059V104.235ZM371 104.235V96.2353H363V104.235H371ZM371 188.941H363V196.941H371V188.941ZM378.059 188.941H386.059V180.941H378.059V188.941ZM378.059 196H370.059V204H378.059V196ZM413.353 196V204H421.353V196H413.353ZM413.353 188.941V180.941H405.353V188.941H413.353ZM420.412 188.941V196.941H428.412V188.941H420.412ZM420.412 153.647V145.647H412.412V153.647H420.412ZM462.765 153.647V161.647H470.765V153.647H462.765ZM462.765 146.588V138.588H454.765V146.588H462.765ZM469.824 146.588V154.588H477.824V146.588H469.824ZM469.824 139.529H477.824V131.529H469.824V139.529ZM462.765 139.529H454.765V147.529H462.765V139.529ZM462.765 132.471H470.765V124.471H462.765V132.471ZM420.412 132.471H412.412V140.471H420.412V132.471ZM420.412 118.353V110.353H412.412V118.353H420.412ZM462.765 118.353V126.353H470.765V118.353H462.765ZM462.765 111.294V103.294H454.765V111.294H462.765ZM469.824 111.294V119.294H477.824V111.294H469.824ZM469.824 104.235H477.824V96.2353H469.824V104.235ZM462.765 104.235H454.765V112.235H462.765V104.235ZM462.765 89.1765H378.059V105.176H462.765V89.1765ZM370.059 97.1765V104.235H386.059V97.1765H370.059ZM378.059 112.235H392.176V96.2353H378.059V112.235ZM384.176 104.235V111.294H400.176V104.235H384.176ZM392.176 103.294H385.118V119.294H392.176V103.294ZM377.118 111.294V118.353H393.118V111.294H377.118ZM385.118 110.353H378.059V126.353H385.118V110.353ZM386.059 118.353V104.235H370.059V118.353H386.059ZM378.059 96.2353H371V112.235H378.059V96.2353ZM363 104.235V188.941H379V104.235H363ZM371 196.941H378.059V180.941H371V196.941ZM370.059 188.941V196H386.059V188.941H370.059ZM378.059 204H413.353V188H378.059V204ZM421.353 196V188.941H405.353V196H421.353ZM413.353 196.941H420.412V180.941H413.353V196.941ZM428.412 188.941V153.647H412.412V188.941H428.412ZM420.412 161.647H462.765V145.647H420.412V161.647ZM470.765 153.647V146.588H454.765V153.647H470.765ZM462.765 154.588H469.824V138.588H462.765V154.588ZM477.824 146.588V139.529H461.824V146.588H477.824ZM469.824 131.529H462.765V147.529H469.824V131.529ZM470.765 139.529V132.471H454.765V139.529H470.765ZM462.765 124.471H420.412V140.471H462.765V124.471ZM428.412 132.471V118.353H412.412V132.471H428.412ZM420.412 126.353H462.765V110.353H420.412V126.353ZM470.765 118.353V111.294H454.765V118.353H470.765ZM462.765 119.294H469.824V103.294H462.765V119.294ZM477.824 111.294V104.235H461.824V111.294H477.824ZM469.824 96.2353H462.765V112.235H469.824V96.2353ZM470.765 104.235V97.1765H454.765V104.235H470.765ZM581.733 104.235H589.733V96.2353H581.733V104.235ZM574.675 104.235H566.675V112.235H574.675V104.235ZM574.675 97.1765H582.675V89.1765H574.675V97.1765ZM497.028 97.1765V89.1765H489.028V97.1765H497.028ZM497.028 104.235H489.028V112.235H497.028V104.235ZM511.145 104.235H519.145V96.2353H511.145V104.235ZM511.145 111.294V119.294H519.145V111.294H511.145ZM504.086 111.294V103.294H496.086V111.294H504.086ZM504.086 118.353V126.353H512.086V118.353H504.086ZM497.028 118.353V110.353H489.028V118.353H497.028ZM497.028 125.412H489.028V133.412H497.028V125.412ZM553.498 125.412H561.498V117.412H553.498V125.412ZM553.498 132.471V140.471H561.498V132.471H553.498ZM504.086 132.471V124.471H496.086V132.471H504.086ZM504.086 139.529V147.529H512.086V139.529H504.086ZM497.028 139.529V131.529H489.028V139.529H497.028ZM497.028 146.588V154.588H505.028V146.588H497.028ZM489.969 146.588V138.588H481.969V146.588H489.969ZM489.969 188.941H481.969V196.941H489.969V188.941ZM497.028 188.941H505.028V180.941H497.028V188.941ZM497.028 196H489.028V204H497.028V196ZM581.733 196V204H589.733V196H581.733ZM581.733 188.941V180.941H573.733V188.941H581.733ZM588.792 188.941V196.941H596.792V188.941H588.792ZM588.792 167.765H596.792V159.765H588.792V167.765ZM581.733 167.765H573.733V175.765H581.733V167.765ZM581.733 160.706H589.733V152.706H581.733V160.706ZM539.381 160.706H531.381V168.706H539.381V160.706ZM539.381 153.647V145.647H531.381V153.647H539.381ZM574.675 153.647V161.647H582.675V153.647H574.675ZM574.675 146.588V138.588H566.675V146.588H574.675ZM581.733 146.588V154.588H589.733V146.588H581.733ZM581.733 139.529V131.529H573.733V139.529H581.733ZM588.792 139.529V147.529H596.792V139.529H588.792ZM588.792 111.294H596.792V103.294H588.792V111.294ZM581.733 111.294H573.733V119.294H581.733V111.294ZM497.028 104.235H505.028V96.2353H497.028V104.235ZM489.969 104.235V96.2353H481.969V104.235H489.969ZM489.969 118.353H481.969V126.353H489.969V118.353ZM497.028 118.353V126.353H505.028V118.353H497.028ZM581.733 96.2353H574.675V112.235H581.733V96.2353ZM582.675 104.235V97.1765H566.675V104.235H582.675ZM574.675 89.1765H497.028V105.176H574.675V89.1765ZM489.028 97.1765V104.235H505.028V97.1765H489.028ZM497.028 112.235H511.145V96.2353H497.028V112.235ZM503.145 104.235V111.294H519.145V104.235H503.145ZM511.145 103.294H504.086V119.294H511.145V103.294ZM496.086 111.294V118.353H512.086V111.294H496.086ZM504.086 110.353H497.028V126.353H504.086V110.353ZM489.028 118.353V125.412H505.028V118.353H489.028ZM497.028 133.412H553.498V117.412H497.028V133.412ZM545.498 125.412V132.471H561.498V125.412H545.498ZM553.498 124.471H504.086V140.471H553.498V124.471ZM496.086 132.471V139.529H512.086V132.471H496.086ZM504.086 131.529H497.028V147.529H504.086V131.529ZM489.028 139.529V146.588H505.028V139.529H489.028ZM497.028 138.588H489.969V154.588H497.028V138.588ZM481.969 146.588V188.941H497.969V146.588H481.969ZM489.969 196.941H497.028V180.941H489.969V196.941ZM489.028 188.941V196H505.028V188.941H489.028ZM497.028 204H581.733V188H497.028V204ZM589.733 196V188.941H573.733V196H589.733ZM581.733 196.941H588.792V180.941H581.733V196.941ZM596.792 188.941V167.765H580.792V188.941H596.792ZM588.792 159.765H581.733V175.765H588.792V159.765ZM589.733 167.765V160.706H573.733V167.765H589.733ZM581.733 152.706H539.381V168.706H581.733V152.706ZM547.381 160.706V153.647H531.381V160.706H547.381ZM539.381 161.647H574.675V145.647H539.381V161.647ZM582.675 153.647V146.588H566.675V153.647H582.675ZM574.675 154.588H581.733V138.588H574.675V154.588ZM589.733 146.588V139.529H573.733V146.588H589.733ZM581.733 147.529H588.792V131.529H581.733V147.529ZM596.792 139.529V111.294H580.792V139.529H596.792ZM588.792 103.294H581.733V119.294H588.792V103.294ZM589.733 111.294V104.235H573.733V111.294H589.733ZM497.028 96.2353H489.969V112.235H497.028V96.2353ZM481.969 104.235V118.353H497.969V104.235H481.969ZM489.969 126.353H497.028V110.353H489.969V126.353ZM505.028 118.353V104.235H489.028V118.353H505.028ZM700.702 97.1765H708.702V89.1765H700.702V97.1765ZM615.996 97.1765V89.1765H607.996V97.1765H615.996ZM615.996 104.235H607.996V112.235H615.996V104.235ZM630.114 104.235H638.114V96.2353H630.114V104.235ZM630.114 111.294V119.294H638.114V111.294H630.114ZM623.055 111.294V103.294H615.055V111.294H623.055ZM623.055 118.353V126.353H631.055V118.353H623.055ZM615.996 118.353H607.996V126.353H615.996V118.353ZM615.996 104.235H623.996V96.2353H615.996V104.235ZM608.938 104.235V96.2353H600.938V104.235H608.938ZM608.938 188.941H600.938V196.941H608.938V188.941ZM615.996 188.941H623.996V180.941H615.996V188.941ZM615.996 196H607.996V204H615.996V196ZM700.702 196V204H708.702V196H700.702ZM700.702 188.941V180.941H692.702V188.941H700.702ZM707.761 188.941V196.941H715.761V188.941H707.761ZM707.761 174.824H715.761V166.824H707.761V174.824ZM700.702 174.824H692.702V182.824H700.702V174.824ZM700.702 167.765H708.702V159.765H700.702V167.765ZM658.349 167.765H650.349V175.765H658.349V167.765ZM658.349 153.647V145.647H650.349V153.647H658.349ZM700.702 153.647V161.647H708.702V153.647H700.702ZM700.702 146.588V138.588H692.702V146.588H700.702ZM707.761 146.588V154.588H715.761V146.588H707.761ZM707.761 139.529H715.761V131.529H707.761V139.529ZM700.702 139.529H692.702V147.529H700.702V139.529ZM700.702 132.471H708.702V124.471H700.702V132.471ZM658.349 132.471H650.349V140.471H658.349V132.471ZM658.349 118.353V110.353H650.349V118.353H658.349ZM700.702 118.353V126.353H708.702V118.353H700.702ZM700.702 111.294V103.294H692.702V111.294H700.702ZM707.761 111.294V119.294H715.761V111.294H707.761ZM707.761 104.235H715.761V96.2353H707.761V104.235ZM700.702 104.235H692.702V112.235H700.702V104.235ZM700.702 89.1765H615.996V105.176H700.702V89.1765ZM607.996 97.1765V104.235H623.996V97.1765H607.996ZM615.996 112.235H630.114V96.2353H615.996V112.235ZM622.114 104.235V111.294H638.114V104.235H622.114ZM630.114 103.294H623.055V119.294H630.114V103.294ZM615.055 111.294V118.353H631.055V111.294H615.055ZM623.055 110.353H615.996V126.353H623.055V110.353ZM623.996 118.353V104.235H607.996V118.353H623.996ZM615.996 96.2353H608.938V112.235H615.996V96.2353ZM600.938 104.235V188.941H616.938V104.235H600.938ZM608.938 196.941H615.996V180.941H608.938V196.941ZM607.996 188.941V196H623.996V188.941H607.996ZM615.996 204H700.702V188H615.996V204ZM708.702 196V188.941H692.702V196H708.702ZM700.702 196.941H707.761V180.941H700.702V196.941ZM715.761 188.941V174.824H699.761V188.941H715.761ZM707.761 166.824H700.702V182.824H707.761V166.824ZM708.702 174.824V167.765H692.702V174.824H708.702ZM700.702 159.765H658.349V175.765H700.702V159.765ZM666.349 167.765V153.647H650.349V167.765H666.349ZM658.349 161.647H700.702V145.647H658.349V161.647ZM708.702 153.647V146.588H692.702V153.647H708.702ZM700.702 154.588H707.761V138.588H700.702V154.588ZM715.761 146.588V139.529H699.761V146.588H715.761ZM707.761 131.529H700.702V147.529H707.761V131.529ZM708.702 139.529V132.471H692.702V139.529H708.702ZM700.702 124.471H658.349V140.471H700.702V124.471ZM666.349 132.471V118.353H650.349V132.471H666.349ZM658.349 126.353H700.702V110.353H658.349V126.353ZM708.702 118.353V111.294H692.702V118.353H708.702ZM700.702 119.294H707.761V103.294H700.702V119.294ZM715.761 111.294V104.235H699.761V111.294H715.761ZM707.761 96.2353H700.702V112.235H707.761V96.2353ZM708.702 104.235V97.1765H692.702V104.235H708.702Z" fill="#131415"/>
</g>
<defs>
<filter id="filter0_d_329_17666" x="0" y="97.1765" width="344.761" height="106.824" filterUnits="userSpaceOnUse" color-interpolation-filters="sRGB">
<feFlood flood-opacity="0" result="BackgroundImageFix"/>
<feColorMatrix in="SourceAlpha" type="matrix" values="0 0 0 0 0 0 0 0 0 0 0 0 0 0 0 0 0 0 127 0" result="hardAlpha"/>
<feOffset dx="8" dy="8"/>
<feComposite in2="hardAlpha" operator="out"/>
<feColorMatrix type="matrix" values="0 0 0 0 0 0 0 0 0 0 0 0 0 0 0 0 0 0 1 0"/>
<feBlend mode="normal" in2="BackgroundImageFix" result="effect1_dropShadow_329_17666"/>
<feBlend mode="normal" in="SourceGraphic" in2="effect1_dropShadow_329_17666" result="shape"/>
</filter>
<filter id="filter1_d_329_17666" x="371" y="97.1765" width="344.761" height="106.824" filterUnits="userSpaceOnUse" color-interpolation-filters="sRGB">
<feFlood flood-opacity="0" result="BackgroundImageFix"/>
<feColorMatrix in="SourceAlpha" type="matrix" values="0 0 0 0 0 0 0 0 0 0 0 0 0 0 0 0 0 0 127 0" result="hardAlpha"/>
<feOffset dx="8" dy="8"/>
<feComposite in2="hardAlpha" operator="out"/>
<feColorMatrix type="matrix" values="0 0 0 0 0 0 0 0 0 0 0 0 0 0 0 0 0 0 1 0"/>
<feBlend mode="normal" in2="BackgroundImageFix" result="effect1_dropShadow_329_17666"/>
<feBlend mode="normal" in="SourceGraphic" in2="effect1_dropShadow_329_17666" result="shape"/>
</filter>
</defs>
</svg>
