<svg width="768" height="74" viewBox="0 0 768 74" fill="none" xmlns="http://www.w3.org/2000/svg">
<path d="M47.3333 73.3333V66.6667H40.6667V60H34V53.3333H27.3333V60H34V66.6667H27.3333V73.3333H20.6667V66.6667V60V53.3333V46.6667V40V33.3333H27.3333H34H40.6667H47.3333V26.6667H40.6667H34H27.3333V20V13.3333H20.6667V6.66667H27.3333V0H34V6.66667H40.6667H47.3333H54H60.6667V0H67.3333V6.66667H74V13.3333H67.3333V20V26.6667H60.6667H54V33.3333H60.6667H67.3333H74V40V46.6667V53.3333V60V66.6667V73.3333H67.3333H60.6667V66.6667H67.3333V60H60.6667V53.3333H54V60V66.6667V73.3333H47.3333ZM0.666667 73.3333V66.6667V60H7.33333V66.6667V73.3333H0.666667ZM7.33333 40V33.3333H14V40H7.33333ZM7.33333 20V13.3333H14V20H7.33333ZM47.3333 60V53.3333V46.6667V40H40.6667H34H27.3333V46.6667H34H40.6667V53.3333V60H47.3333ZM7.33333 60V53.3333V46.6667H14V53.3333V60H7.33333ZM67.3333 53.3333V46.6667V40H60.6667H54V46.6667H60.6667V53.3333H67.3333ZM7.33333 33.3333H0.666667V26.6667H7.33333V33.3333ZM54 20H60.6667V13.3333H54H47.3333H40.6667H34V20H40.6667H47.3333H54ZM7.33333 13.3333H0.666667V6.66667H7.33333V13.3333ZM153.974 66.6667H160.641V73.3333H153.974H147.307H140.641H133.974H127.307V66.6667H133.974H140.641H147.307H153.974ZM93.974 66.6667H100.641V73.3333H93.974H87.3073V66.6667H93.974ZM127.307 66.6667H120.641H113.974H107.307H100.641V60V53.3333V46.6667V40H107.307V46.6667V53.3333V60H113.974H120.641V53.3333V46.6667V40V33.3333V26.6667H113.974H107.307H100.641V20V13.3333V6.66667V0H107.307H113.974H120.641H127.307H133.974H140.641H147.307H153.974V6.66667V13.3333V20V26.6667H147.307H140.641H133.974H127.307V33.3333V40H133.974H140.641H147.307H153.974V46.6667H147.307H140.641H133.974H127.307V53.3333V60V66.6667ZM140.641 20H147.307V13.3333V6.66667H140.641H133.974H127.307H120.641H113.974H107.307V13.3333V20H113.974H120.641H127.307H133.974H140.641ZM207.281 73.3333V66.6667V60V53.3333V46.6667V40V33.3333H200.615V40H193.948H187.281V46.6667H180.615H173.948V40H180.615H187.281V33.3333H193.948H200.615V26.6667H207.281V20H213.948V26.6667V33.3333V40V46.6667V53.3333V60V66.6667V73.3333H207.281ZM240.615 53.3333V46.6667H247.281V53.3333H240.615ZM240.615 46.6667H233.948V40H240.615V46.6667ZM233.948 40H227.281V33.3333H233.948V40ZM227.281 33.3333H220.615V26.6667H227.281V33.3333ZM213.948 20V13.3333H220.615V20H213.948ZM220.615 13.3333V6.66667H213.948H207.281H200.615H193.948H187.281H180.615H173.948V0H180.615H187.281H193.948H200.615H207.281H213.948H220.615H227.281H233.948H240.615H247.281V6.66667H240.615H233.948H227.281V13.3333H220.615ZM293.922 73.3333H287.255H280.589V66.6667H287.255H293.922V60V53.3333V46.6667V40V33.3333V26.6667H300.589V33.3333V40V46.6667V53.3333V60V66.6667V73.3333H293.922ZM300.589 26.6667V20H307.255V26.6667H300.589ZM307.255 20V13.3333H313.922V20H307.255ZM313.922 13.3333V6.66667H307.255H300.589H293.922H287.255H280.589H273.922H267.255H260.589V0H267.255H273.922H280.589H287.255H293.922H300.589H307.255H313.922H320.589H327.255V6.66667H320.589V13.3333H313.922ZM347.229 73.3333V66.6667V60V53.3333V46.6667V40V33.3333V26.6667V20V13.3333V6.66667V0H353.896H360.562H367.229H373.896H380.562H387.229H393.896H400.562H407.229H413.896H420.562V6.66667V13.3333V20V26.6667V33.3333V40V46.6667V53.3333V60V66.6667V73.3333H413.896H407.229V66.6667H413.896V60V53.3333V46.6667V40V33.3333V26.6667V20V13.3333V6.66667H407.229H400.562H393.896H387.229H380.562H373.896H367.229H360.562H353.896V13.3333V20V26.6667V33.3333V40V46.6667V53.3333V60V66.6667V73.3333H347.229ZM393.896 66.6667H387.229H380.562H373.896H367.229V60V53.3333V46.6667V40H373.896H380.562H387.229H393.896H400.562V46.6667V53.3333V60V66.6667H393.896ZM387.229 60H393.896V53.3333V46.6667H387.229H380.562H373.896V53.3333V60H380.562H387.229ZM400.562 20H407.229V26.6667H400.562H393.896H387.229H380.562H373.896H367.229H360.562V20H367.229H373.896H380.562H387.229H393.896H400.562ZM467.203 73.3333H460.536H453.87V66.6667H460.536H467.203V60H460.536H453.87H447.203H440.536V53.3333H447.203H453.87H460.536H467.203V46.6667H460.536H453.87H447.203H440.536H433.87V40H440.536H447.203H453.87H460.536H467.203V33.3333H460.536H453.87H447.203H440.536V26.6667H447.203V20V13.3333H440.536H433.87V6.66667H440.536H447.203H453.87H460.536H467.203V0H473.87V6.66667H480.536H487.203H493.87H500.536H507.203V13.3333H500.536H493.87V20V26.6667H500.536V33.3333V40H507.203V46.6667H500.536V53.3333V60H493.87H487.203H480.536H473.87V66.6667V73.3333H467.203ZM487.203 53.3333H493.87V46.6667H487.203H480.536H473.87V53.3333H480.536H487.203ZM487.203 40H493.87V33.3333H487.203H480.536H473.87V40H480.536H487.203ZM480.536 26.6667H487.203V20V13.3333H480.536H473.87V20V26.6667H480.536ZM460.536 26.6667H467.203V20V13.3333H460.536H453.87V20V26.6667H460.536ZM567.177 46.6667V40H573.844V46.6667H567.177ZM553.844 26.6667V20V13.3333H560.51V20V26.6667H553.844ZM573.844 66.6667H580.51V73.3333H573.844H567.177V66.6667H573.844ZM580.51 66.6667V60H587.177V66.6667H580.51ZM540.51 66.6667H533.844H527.177H520.51V60V53.3333V46.6667V40V33.3333V26.6667V20V13.3333H527.177V6.66667V0H533.844V6.66667V13.3333H540.51H547.177V20V26.6667V33.3333V40V46.6667V53.3333V60V66.6667H540.51ZM533.844 60H540.51V53.3333V46.6667V40H533.844H527.177V46.6667V53.3333V60H533.844ZM587.177 60V53.3333V46.6667V40V33.3333V26.6667V20V13.3333H580.51H573.844H567.177H560.51V6.66667V0H567.177V6.66667H573.844H580.51H587.177H593.844V13.3333V20V26.6667V33.3333V40V46.6667V53.3333V60H587.177ZM567.177 40H560.51V33.3333H567.177V40ZM533.844 33.3333H540.51V26.6667V20H533.844H527.177V26.6667V33.3333H533.844ZM660.484 73.3333V66.6667V60V53.3333V46.6667H653.818H647.151H640.484V40H647.151H653.818H660.484V33.3333V26.6667V20V13.3333H653.818H647.151V20V26.6667H640.484V20V13.3333H647.151V6.66667V0H653.818V6.66667H660.484H667.151H673.818H680.484V13.3333H673.818H667.151V20V26.6667V33.3333V40H673.818H680.484V46.6667H673.818H667.151V53.3333V60V66.6667V73.3333H660.484ZM627.151 73.3333H620.484H613.818H607.151V66.6667V60V53.3333V46.6667H613.818H620.484H627.151H633.818V53.3333V60V66.6667V73.3333H627.151ZM620.484 66.6667H627.151V60V53.3333H620.484H613.818V60V66.6667H620.484ZM627.151 26.6667H633.818V33.3333H627.151H620.484H613.818H607.151V26.6667H613.818H620.484H627.151ZM627.151 13.3333H633.818V20H627.151H620.484H613.818H607.151V13.3333H613.818H620.484H627.151ZM627.151 0H633.818V6.66667H627.151H620.484H613.818H607.151V0H613.818H620.484H627.151ZM760.458 73.3333V66.6667H767.125V73.3333H760.458ZM693.792 66.6667V60H700.458V66.6667H693.792ZM733.792 66.6667H740.458V73.3333H733.792H727.125V66.6667H733.792ZM713.792 73.3333H707.125V66.6667H713.792V60V53.3333V46.6667H707.125H700.458V53.3333H707.125V60H700.458V53.3333H693.792V46.6667V40V33.3333V26.6667V20V13.3333V6.66667V0H700.458H707.125H713.792H720.458H727.125V6.66667H720.458V13.3333H727.125V20V26.6667V33.3333V40V46.6667H720.458V53.3333H727.125V60H720.458V66.6667V73.3333H713.792ZM760.458 66.6667H753.792V60H747.125V66.6667H740.458V60H733.792V53.3333V46.6667V40V33.3333V26.6667V20V13.3333H740.458H747.125V6.66667H740.458H733.792V0H740.458H747.125H753.792H760.458H767.125V6.66667H760.458H753.792V13.3333H760.458H767.125V20V26.6667V33.3333V40V46.6667V53.3333V60H760.458V66.6667ZM753.792 53.3333H760.458V46.6667H753.792H747.125H740.458V53.3333H747.125H753.792ZM753.792 40H760.458V33.3333H753.792H747.125H740.458V40H747.125H753.792ZM713.792 40H720.458V33.3333H713.792H707.125H700.458V40H707.125H713.792ZM753.792 26.6667H760.458V20H753.792H747.125H740.458V26.6667H747.125H753.792ZM713.792 26.6667H720.458V20H713.792H707.125H700.458V26.6667H707.125H713.792ZM707.125 13.3333H713.792V6.66667H707.125H700.458V13.3333H707.125Z" fill="white"/>
</svg>
