<svg width="940" height="74" viewBox="0 0 940 74" fill="none" xmlns="http://www.w3.org/2000/svg">
<path d="M40.0539 60V53.3333V46.6667H46.7205V53.3333V60H40.0539ZM53.3872 66.6667H60.0539V73.3333H53.3872H46.7205V66.6667H53.3872ZM26.7205 66.6667H33.3872V73.3333H26.7205H20.0539H13.3872H6.72054H0.0538739V66.6667H6.72054H13.3872V60H6.72054H0.0538739V53.3333H6.72054H13.3872V46.6667H6.72054H0.0538739V40V33.3333V26.6667V20V13.3333H6.72054H13.3872V6.66667H6.72054H0.0538739V0H6.72054H13.3872H20.0539H26.7205H33.3872V6.66667H26.7205H20.0539V13.3333H26.7205H33.3872H40.0539H46.7205V6.66667V0H53.3872V6.66667V13.3333H60.0539H66.7205H73.3872V20V26.6667V33.3333V40V46.6667V53.3333V60H66.7205V66.6667H60.0539V60H66.7205V53.3333V46.6667V40V33.3333V26.6667V20H60.0539H53.3872V26.6667V33.3333V40V46.6667H46.7205V40V33.3333V26.6667V20H40.0539H33.3872V26.6667V33.3333V40V46.6667H26.7205H20.0539V53.3333H26.7205H33.3872V60H26.7205H20.0539V66.6667H26.7205ZM26.7205 40V33.3333H20.0539V40H26.7205ZM13.3872 40V33.3333H6.72054V40H13.3872ZM26.7205 26.6667V20H20.0539V26.6667H26.7205ZM13.3872 26.6667V20H6.72054V26.6667H13.3872ZM153.361 66.6667H160.028V73.3333H153.361H146.695H140.028H133.361H126.695H120.028H113.361H106.694H100.028H93.3612H86.6945V66.6667H93.3612H100.028V60V53.3333V46.6667V40H93.3612H86.6945V33.3333H93.3612H100.028H106.694H113.361H120.028V26.6667H113.361H106.694H100.028H93.3612H86.6945V20H93.3612H100.028H106.694H113.361H120.028V13.3333H113.361H106.694H100.028H93.3612V6.66667H100.028H106.694H113.361H120.028V0H126.695V6.66667H133.361H140.028H146.695H153.361V13.3333V20H160.028V26.6667H153.361V33.3333H160.028V40H153.361H146.695V46.6667V53.3333V60V66.6667H153.361ZM133.361 66.6667H140.028V60V53.3333H133.361H126.695V60V66.6667H133.361ZM113.361 66.6667H120.028V60V53.3333H113.361H106.694V60V66.6667H113.361ZM133.361 46.6667H140.028V40H133.361H126.695V46.6667H133.361ZM113.361 46.6667H120.028V40H113.361H106.694V46.6667H113.361ZM140.028 33.3333H146.695V26.6667H140.028H133.361H126.695V33.3333H133.361H140.028ZM140.028 20H146.695V13.3333H140.028H133.361H126.695V20H133.361H140.028ZM240.002 66.6667H246.668V73.3333H240.002H233.335V66.6667H240.002ZM206.668 66.6667H213.335V73.3333H206.668H200.002H193.335V66.6667H200.002H206.668ZM180.002 73.3333H173.335V66.6667H180.002V60V53.3333H173.335V46.6667H180.002V40V33.3333V26.6667V20H173.335V13.3333H180.002V6.66667V0H186.668V6.66667V13.3333H193.335V20H186.668V26.6667V33.3333V40H193.335V46.6667H186.668V53.3333V60V66.6667V73.3333H180.002ZM233.335 66.6667H226.668H220.002H213.335V60V53.3333H220.002V60H226.668V53.3333H233.335V60V66.6667ZM233.335 53.3333V46.6667V40V33.3333H226.668H220.002H213.335H206.668H200.002V26.6667H206.668H213.335H220.002V20V13.3333H213.335H206.668H200.002H193.335V6.66667H200.002H206.668H213.335H220.002V0H226.668V6.66667H233.335H240.002H246.668V13.3333H240.002H233.335H226.668V20V26.6667H233.335H240.002V33.3333V40V46.6667V53.3333H233.335ZM213.335 53.3333H206.668V46.6667V40H213.335V46.6667V53.3333ZM259.976 73.3333V66.6667V60V53.3333V46.6667V40V33.3333V26.6667H266.642H273.309H279.976H286.642H293.309V33.3333V40V46.6667V53.3333V60V66.6667V73.3333H286.642H279.976V66.6667H286.642V60H279.976H273.309H266.642V66.6667V73.3333H259.976ZM326.642 73.3333H319.976H313.309H306.642H299.976V66.6667V60V53.3333V46.6667V40H306.642V46.6667H313.309H319.976V53.3333H313.309H306.642V60V66.6667H313.309H319.976H326.642V60H333.309V66.6667V73.3333H326.642ZM279.976 53.3333H286.642V46.6667H279.976H273.309H266.642V53.3333H273.309H279.976ZM326.642 40H333.309V46.6667H326.642H319.976V40H326.642ZM279.976 40H286.642V33.3333H279.976H273.309H266.642V40H273.309H279.976ZM326.642 33.3333H319.976H313.309H306.642H299.976V26.6667V20V13.3333V6.66667V0H306.642V6.66667H313.309H319.976V13.3333H313.309H306.642V20V26.6667H313.309H319.976H326.642V20H333.309V26.6667V33.3333H326.642ZM286.642 20H279.976H273.309H266.642H259.976V13.3333V6.66667H266.642V13.3333H273.309H279.976H286.642V6.66667H293.309V13.3333V20H286.642ZM326.642 0H333.309V6.66667H326.642H319.976V0H326.642ZM266.642 6.66667V0H273.309V6.66667H266.642ZM359.95 73.3333V66.6667V60V53.3333V46.6667H353.283V53.3333V60H346.616V53.3333V46.6667H353.283V40V33.3333H359.95V26.6667V20H353.283H346.616V13.3333H353.283H359.95V6.66667V0H366.616V6.66667V13.3333H373.283V6.66667H379.95H386.616V0H393.283V6.66667H399.95V13.3333H406.616H413.283V6.66667V0H419.95V6.66667V13.3333V20V26.6667V33.3333V40V46.6667V53.3333V60V66.6667V73.3333H413.283H406.616V66.6667H413.283V60V53.3333V46.6667H406.616V40H413.283V33.3333V26.6667V20H406.616H399.95V13.3333H393.283V20H399.95V26.6667H393.283H386.616H379.95H373.283V20H366.616V26.6667V33.3333V40V46.6667V53.3333V60V66.6667V73.3333H359.95ZM393.283 73.3333H386.616H379.95H373.283V66.6667H379.95V60V53.3333H373.283V46.6667V40V33.3333H379.95H386.616H393.283H399.95H406.616V40H399.95V46.6667V53.3333V60V66.6667V73.3333H393.283ZM393.283 66.6667V60V53.3333H386.616V60V66.6667H393.283ZM386.616 46.6667H393.283V40H386.616H379.95V46.6667H386.616ZM379.95 20H386.616V13.3333H379.95H373.283V20H379.95ZM499.924 73.3333V66.6667H506.59V73.3333H499.924ZM473.257 73.3333V66.6667H479.924V73.3333H473.257ZM433.257 73.3333V66.6667H439.924V73.3333H433.257ZM499.924 66.6667H493.257V60H499.924V66.6667ZM473.257 66.6667H466.59V60H473.257V66.6667ZM439.924 66.6667V60H446.59V66.6667H439.924ZM493.257 60H486.59V53.3333H493.257V60ZM446.59 60V53.3333H453.257V60H446.59ZM486.59 53.3333H479.924V46.6667V40H486.59V46.6667V53.3333ZM453.257 53.3333V46.6667V40H459.924V46.6667V53.3333H453.257ZM479.924 40H473.257V33.3333V26.6667H479.924V33.3333V40ZM459.924 40V33.3333V26.6667H466.59V33.3333V40H459.924ZM473.257 26.6667H466.59V20H459.924H453.257H446.59H439.924H433.257V13.3333H439.924H446.59H453.257H459.924H466.59V6.66667V0H473.257V6.66667V13.3333H479.924H486.59H493.257H499.924H506.59V20H499.924H493.257H486.59H479.924H473.257V26.6667ZM533.231 73.3333V66.6667V60H526.564V66.6667H519.898V60H526.564V53.3333H533.231V46.6667H526.564H519.898V40H526.564H533.231V33.3333V26.6667H539.898V33.3333V40H546.564H553.231V46.6667H546.564H539.898V53.3333H546.564V60H553.231V66.6667H546.564V60H539.898V66.6667V73.3333H533.231ZM546.564 33.3333V26.6667H553.231V33.3333H546.564ZM519.898 33.3333V26.6667H526.564V33.3333H519.898ZM586.564 73.3333H579.898H573.231H566.564H559.898V66.6667V60V53.3333V46.6667V40V33.3333V26.6667H553.231V20H559.898V13.3333H566.564V6.66667V0H573.231V6.66667V13.3333H579.898V6.66667V0H586.564V6.66667V13.3333H593.231V20H586.564V26.6667H593.231V33.3333H586.564V40V46.6667H593.231V53.3333H586.564V60V66.6667H593.231V73.3333H586.564ZM573.231 66.6667H579.898V60V53.3333H573.231H566.564V60V66.6667H573.231ZM573.231 46.6667H579.898V40V33.3333H573.231H566.564V40V46.6667H573.231ZM573.231 26.6667H579.898V20H573.231H566.564V26.6667H573.231ZM546.564 26.6667H539.898V20V13.3333H533.231V20V26.6667H526.564V20V13.3333H519.898V6.66667H526.564H533.231V0H539.898V6.66667H546.564H553.231H559.898V13.3333H553.231H546.564V20V26.6667ZM673.205 73.3333V66.6667H679.872V73.3333H673.205ZM653.205 73.3333V66.6667H659.872V73.3333H653.205ZM633.205 73.3333V66.6667H639.872V73.3333H633.205ZM606.538 73.3333V66.6667H613.205V73.3333H606.538ZM606.538 20V13.3333H613.205V20H606.538ZM673.205 66.6667H666.538V60H673.205V66.6667ZM653.205 66.6667H646.538V60H653.205V66.6667ZM633.205 66.6667H626.538V60H633.205V66.6667ZM613.205 66.6667V60H619.872V66.6667H613.205ZM673.205 46.6667H679.872V53.3333H673.205H666.538H659.872H653.205H646.538H639.872H633.205H626.538H619.872H613.205H606.538V46.6667H613.205H619.872V40V33.3333H613.205H606.538V26.6667H613.205H619.872V20V13.3333H613.205V6.66667H619.872V0H626.538V6.66667H633.205H639.872H646.538H653.205H659.872H666.538H673.205H679.872V13.3333H673.205H666.538V20V26.6667H673.205H679.872V33.3333H673.205H666.538V40V46.6667H673.205ZM659.872 46.6667V40V33.3333H653.205V40V46.6667H659.872ZM646.538 46.6667V40V33.3333H639.872V40V46.6667H646.538ZM633.205 46.6667V40V33.3333H626.538V40V46.6667H633.205ZM659.872 26.6667V20V13.3333H653.205V20V26.6667H659.872ZM646.538 26.6667V20V13.3333H639.872V20V26.6667H646.538ZM633.205 26.6667V20V13.3333H626.538V20V26.6667H633.205ZM759.846 26.6667V20H766.512V26.6667H759.846ZM713.179 20V13.3333H719.846V20H713.179ZM693.179 20V13.3333H699.846V20H693.179ZM759.846 66.6667H766.512V73.3333H759.846H753.179H746.512V66.6667H753.179H759.846ZM713.179 66.6667H719.846V73.3333H713.179H706.512H699.846V66.6667V60V53.3333V46.6667H693.179V40H699.846V33.3333H706.512V40V46.6667V53.3333V60V66.6667H713.179ZM746.512 66.6667H739.846H733.179H726.512H719.846V60V53.3333V46.6667V40H726.512V46.6667V53.3333V60H733.179H739.846V53.3333V46.6667V40V33.3333V26.6667H746.512V33.3333V40H753.179H759.846H766.512V46.6667H759.846H753.179H746.512V53.3333V60V66.6667ZM706.512 33.3333V26.6667H713.179V33.3333H706.512ZM739.846 26.6667H733.179V20H739.846V26.6667ZM759.846 20H753.179V13.3333H759.846V20ZM739.846 20V13.3333H746.512V20H739.846ZM733.179 20H726.512V13.3333H733.179V20ZM753.179 13.3333H746.512V6.66667H753.179V13.3333ZM726.512 13.3333H719.846V6.66667H726.512V13.3333ZM699.846 13.3333V6.66667H706.512V13.3333H699.846ZM753.179 6.66667V0H759.846V6.66667H753.179ZM726.512 6.66667V0H733.179V6.66667H726.512ZM706.512 6.66667V0H713.179V6.66667H706.512ZM819.82 26.6667H826.486H833.153V33.3333H839.82H846.486V40H839.82H833.153V33.3333H826.486H819.82V26.6667H813.153V33.3333V40V46.6667V53.3333V60V66.6667V73.3333H806.486V66.6667V60V53.3333V46.6667V40V33.3333V26.6667V20V13.3333V6.66667H799.819H793.153H786.486H779.819V0H786.486H793.153H799.819H806.486H813.153H819.82H826.486H833.153H839.82H846.486H853.153V6.66667H846.486H839.82H833.153H826.486H819.82H813.153V13.3333V20H819.82V26.6667ZM899.793 73.3333H893.127H886.46V66.6667H893.127H899.793V60V53.3333H893.127H886.46H879.793H873.127H866.46V46.6667H873.127H879.793H886.46H893.127H899.793V40V33.3333H893.127H886.46H879.793H873.127V26.6667H879.793H886.46H893.127H899.793V20V13.3333H893.127H886.46H879.793H873.127V6.66667H879.793H886.46H893.127H899.793H906.46V13.3333V20V26.6667H913.127H919.793H926.46H933.127V33.3333H926.46H919.793H913.127H906.46V40V46.6667H913.127H919.793H926.46H933.127H939.793V53.3333H933.127H926.46H919.793H913.127H906.46V60V66.6667V73.3333H899.793ZM926.46 0H933.127V6.66667H926.46H919.793H913.127H906.46V0H913.127H919.793H926.46Z" fill="white"/>
</svg>
