<svg width="941" height="74" viewBox="0 0 941 74" fill="none" xmlns="http://www.w3.org/2000/svg">
<path d="M60.6667 53.3333V46.6667H67.3333V53.3333H60.6667ZM27.3333 53.3333V46.6667H34V53.3333H27.3333ZM67.3333 66.6667H74V73.3333H67.3333H60.6667V66.6667H67.3333ZM34 66.6667H40.6667V73.3333H34H27.3333V66.6667H34ZM7.33333 66.6667H14V73.3333H7.33333H0.666667V66.6667H7.33333ZM60.6667 66.6667H54V60H60.6667V66.6667ZM40.6667 66.6667V60H47.3333V66.6667H40.6667ZM14 66.6667V60H20.6667V66.6667H14ZM54 60H47.3333V53.3333V46.6667V40H40.6667V46.6667H34V40H27.3333H20.6667H14V46.6667H20.6667V53.3333H14V46.6667H7.33333V53.3333H14V60H7.33333V53.3333H0.666667V46.6667H7.33333V40H0.666667V33.3333H7.33333H14H20.6667H27.3333H34V26.6667H27.3333H20.6667H14H7.33333V20H14H20.6667H27.3333H34V13.3333H27.3333H20.6667H14H7.33333H0.666667V6.66667H7.33333H14H20.6667V0H27.3333V6.66667H34H40.6667H47.3333V0H54V6.66667H60.6667H67.3333H74V13.3333H67.3333H60.6667H54H47.3333H40.6667V20H47.3333H54H60.6667H67.3333V26.6667H60.6667H54H47.3333H40.6667V33.3333H47.3333H54H60.6667H67.3333H74V40V46.6667H67.3333V40H60.6667H54V46.6667V53.3333V60ZM147.307 73.3333V66.6667V60H153.974V66.6667V73.3333H147.307ZM133.974 73.3333V66.6667V60H140.641V66.6667V73.3333H133.974ZM93.974 73.3333V66.6667H100.641V73.3333H93.974ZM120.641 73.3333H113.974V66.6667H120.641V60V53.3333V46.6667H127.307V53.3333V60V66.6667V73.3333H120.641ZM100.641 66.6667V60H107.307V66.6667H100.641ZM153.974 60V53.3333H160.641V60H153.974ZM100.641 60H93.974H87.3073V53.3333H93.974H100.641V60ZM153.974 53.3333H147.307V46.6667H153.974V53.3333ZM100.641 53.3333V46.6667H107.307V53.3333H100.641ZM147.307 46.6667H140.641V40H133.974H127.307H120.641H113.974V46.6667H107.307V40H100.641H93.974H87.3073V33.3333H93.974H100.641V26.6667V20H107.307V13.3333H100.641H93.974H87.3073V6.66667H93.974H100.641H107.307V0H113.974V6.66667H120.641H127.307H133.974V0H140.641V6.66667H147.307H153.974H160.641V13.3333H153.974H147.307H140.641V20H147.307V26.6667V33.3333H153.974H160.641V40H153.974H147.307V46.6667ZM133.974 33.3333H140.641V26.6667H133.974H127.307H120.641H113.974H107.307V33.3333H113.974H120.641H127.307H133.974ZM127.307 20H133.974V13.3333H127.307H120.641H113.974V20H120.641H127.307ZM173.948 60V53.3333V46.6667H180.615V53.3333V60H173.948ZM220.615 53.3333V46.6667V40V33.3333V26.6667V20V13.3333V6.66667H227.281V13.3333V20V26.6667V33.3333V40V46.6667V53.3333H220.615ZM240.615 73.3333H233.948V66.6667H240.615V60V53.3333V46.6667V40V33.3333V26.6667V20V13.3333V6.66667V0H247.281V6.66667V13.3333V20V26.6667V33.3333V40V46.6667V53.3333V60V66.6667V73.3333H240.615ZM193.948 66.6667H200.615V73.3333H193.948H187.281H180.615V66.6667H187.281H193.948ZM200.615 66.6667V60V53.3333V46.6667V40H193.948H187.281V46.6667H180.615V40V33.3333V26.6667H173.948V20V13.3333V6.66667V0H180.615H187.281H193.948H200.615H207.281V6.66667V13.3333V20V26.6667H200.615H193.948H187.281V33.3333H193.948H200.615H207.281V40V46.6667V53.3333V60V66.6667H200.615ZM193.948 20H200.615V13.3333V6.66667H193.948H187.281H180.615V13.3333V20H187.281H193.948ZM327.255 73.3333V66.6667H333.922V73.3333H327.255ZM260.589 73.3333V66.6667H267.255V73.3333H260.589ZM327.255 66.6667H320.589V60H327.255V66.6667ZM267.255 66.6667V60H273.922V66.6667H267.255ZM320.589 60H313.922V53.3333H320.589V60ZM273.922 60V53.3333H280.589V60H273.922ZM313.922 53.3333H307.255V46.6667V40H313.922V46.6667V53.3333ZM280.589 53.3333V46.6667V40H287.255V46.6667V53.3333H280.589ZM307.255 40H300.589V33.3333V26.6667H307.255V33.3333V40ZM287.255 40V33.3333V26.6667H293.922V33.3333V40H287.255ZM300.589 26.6667H293.922V20V13.3333V6.66667V0H300.589V6.66667V13.3333V20V26.6667ZM413.896 73.3333H407.229H400.562H393.896H387.229V66.6667V60V53.3333V46.6667H393.896H400.562H407.229H413.896H420.562V53.3333V60V66.6667V73.3333H413.896ZM407.229 66.6667H413.896V60V53.3333H407.229H400.562H393.896V60V66.6667H400.562H407.229ZM373.896 73.3333H367.229H360.562H353.896H347.229V66.6667V60V53.3333V46.6667V40V33.3333V26.6667V20H353.896V13.3333V6.66667H347.229V0H353.896H360.562H367.229H373.896H380.562V6.66667H373.896V13.3333V20H380.562H387.229V13.3333V6.66667V0H393.896V6.66667V13.3333H400.562V6.66667V0H407.229V6.66667V13.3333H413.896H420.562V20H413.896H407.229V26.6667V33.3333H413.896H420.562V40H413.896H407.229H400.562H393.896H387.229H380.562V46.6667V53.3333V60V66.6667V73.3333H373.896ZM367.229 66.6667H373.896V60H367.229H360.562H353.896V66.6667H360.562H367.229ZM367.229 53.3333H373.896V46.6667H367.229V40H360.562V33.3333V26.6667H353.896V33.3333V40H360.562V46.6667H353.896V53.3333H360.562H367.229ZM393.896 33.3333H400.562V26.6667V20H393.896H387.229V26.6667H380.562V33.3333H387.229H393.896ZM373.896 40V33.3333V26.6667H367.229V33.3333V40H373.896ZM367.229 20V13.3333V6.66667H360.562V13.3333V20H367.229ZM500.536 73.3333H493.87H487.203H480.536H473.87V66.6667V60V53.3333V46.6667H480.536H487.203H493.87H500.536H507.203V53.3333V60V66.6667V73.3333H500.536ZM493.87 66.6667H500.536V60V53.3333H493.87H487.203H480.536V60V66.6667H487.203H493.87ZM460.536 73.3333H453.87H447.203H440.536H433.87V66.6667V60V53.3333V46.6667V40V33.3333V26.6667V20H440.536V13.3333V6.66667H433.87V0H440.536H447.203H453.87H460.536H467.203V6.66667H460.536V13.3333V20H467.203H473.87V13.3333V6.66667V0H480.536V6.66667V13.3333H487.203V6.66667V0H493.87V6.66667V13.3333H500.536H507.203V20H500.536H493.87V26.6667V33.3333H500.536H507.203V40H500.536H493.87H487.203H480.536H473.87H467.203V46.6667V53.3333V60V66.6667V73.3333H460.536ZM453.87 66.6667H460.536V60H453.87H447.203H440.536V66.6667H447.203H453.87ZM453.87 53.3333H460.536V46.6667H453.87V40H447.203V33.3333V26.6667H440.536V33.3333V40H447.203V46.6667H440.536V53.3333H447.203H453.87ZM480.536 33.3333H487.203V26.6667V20H480.536H473.87V26.6667H467.203V33.3333H473.87H480.536ZM460.536 40V33.3333V26.6667H453.87V33.3333V40H460.536ZM453.87 20V13.3333V6.66667H447.203V13.3333V20H453.87ZM567.177 46.6667V40H573.844V46.6667H567.177ZM553.844 26.6667V20V13.3333H560.51V20V26.6667H553.844ZM573.844 66.6667H580.51V73.3333H573.844H567.177V66.6667H573.844ZM580.51 66.6667V60H587.177V66.6667H580.51ZM540.51 66.6667H533.844H527.177H520.51V60V53.3333V46.6667V40V33.3333V26.6667V20V13.3333H527.177V6.66667V0H533.844V6.66667V13.3333H540.51H547.177V20V26.6667V33.3333V40V46.6667V53.3333V60V66.6667H540.51ZM533.844 60H540.51V53.3333V46.6667V40H533.844H527.177V46.6667V53.3333V60H533.844ZM587.177 60V53.3333V46.6667V40V33.3333V26.6667V20V13.3333H580.51H573.844H567.177H560.51V6.66667V0H567.177V6.66667H573.844H580.51H587.177H593.844V13.3333V20V26.6667V33.3333V40V46.6667V53.3333V60H587.177ZM567.177 40H560.51V33.3333H567.177V40ZM533.844 33.3333H540.51V26.6667V20H533.844H527.177V26.6667V33.3333H533.844ZM633.818 73.3333V66.6667V60V53.3333V46.6667H627.151V53.3333V60V66.6667V73.3333H620.484V66.6667V60V53.3333V46.6667H613.818H607.151V40H613.818V33.3333H620.484V40H627.151H633.818V33.3333V26.6667V20V13.3333V6.66667V0H640.484H647.151H653.818H660.484H667.151H673.818H680.484V6.66667V13.3333V20V26.6667V33.3333V40V46.6667V53.3333V60V66.6667V73.3333H673.818H667.151V66.6667H660.484H653.818H647.151V60V53.3333V46.6667H640.484V53.3333V60V66.6667V73.3333H633.818ZM607.151 66.6667V60V53.3333H613.818V60V66.6667H607.151ZM673.818 66.6667V60V53.3333V46.6667H667.151H660.484H653.818V53.3333V60H660.484H667.151V66.6667H673.818ZM667.151 40H673.818V33.3333H667.151H660.484V40H667.151ZM647.151 40H653.818V33.3333H647.151H640.484V40H647.151ZM620.484 33.3333V26.6667H613.818H607.151V20V13.3333H613.818V20H620.484H627.151V26.6667V33.3333H620.484ZM673.818 26.6667V20V13.3333V6.66667H667.151H660.484H653.818H647.151H640.484V13.3333V20V26.6667H647.151V20V13.3333H653.818V20V26.6667H660.484V20V13.3333H667.151V20V26.6667H673.818ZM613.818 13.3333V6.66667H620.484V13.3333H613.818ZM620.484 6.66667V0H627.151V6.66667H620.484ZM760.458 66.6667H767.125V73.3333H760.458H753.792V66.6667H760.458ZM700.458 66.6667H707.125V73.3333H700.458H693.792V66.6667H700.458ZM753.792 66.6667H747.125V60H740.458H733.792H727.125H720.458H713.792V66.6667H707.125V60V53.3333V46.6667V40V33.3333V26.6667V20V13.3333H713.792H720.458H727.125V6.66667H720.458H713.792H707.125H700.458H693.792V0H700.458H707.125H713.792H720.458H727.125H733.792H740.458H747.125H753.792H760.458H767.125V6.66667H760.458H753.792H747.125H740.458H733.792V13.3333H740.458H747.125H753.792V20V26.6667V33.3333V40V46.6667V53.3333V60V66.6667ZM740.458 53.3333H747.125V46.6667H740.458H733.792H727.125H720.458H713.792V53.3333H720.458H727.125H733.792H740.458ZM740.458 40H747.125V33.3333H740.458H733.792H727.125H720.458H713.792V40H720.458H727.125H733.792H740.458ZM740.458 26.6667H747.125V20H740.458H733.792H727.125H720.458H713.792V26.6667H720.458H727.125H733.792H740.458ZM820.432 60V53.3333V46.6667H827.099V53.3333V60H820.432ZM833.766 66.6667H840.432V73.3333H833.766H827.099V66.6667H833.766ZM807.099 66.6667H813.766V73.3333H807.099H800.432H793.766H787.099H780.432V66.6667H787.099H793.766V60H787.099H780.432V53.3333H787.099H793.766V46.6667H787.099H780.432V40V33.3333V26.6667V20V13.3333H787.099H793.766V6.66667H787.099H780.432V0H787.099H793.766H800.432H807.099H813.766V6.66667H807.099H800.432V13.3333H807.099H813.766H820.432H827.099V6.66667V0H833.766V6.66667V13.3333H840.432H847.099H853.766V20V26.6667V33.3333V40V46.6667V53.3333V60H847.099V66.6667H840.432V60H847.099V53.3333V46.6667V40V33.3333V26.6667V20H840.432H833.766V26.6667V33.3333V40V46.6667H827.099V40V33.3333V26.6667V20H820.432H813.766V26.6667V33.3333V40V46.6667H807.099H800.432V53.3333H807.099H813.766V60H807.099H800.432V66.6667H807.099ZM807.099 40V33.3333H800.432V40H807.099ZM793.766 40V33.3333H787.099V40H793.766ZM807.099 26.6667V20H800.432V26.6667H807.099ZM793.766 26.6667V20H787.099V26.6667H793.766ZM933.74 66.6667H940.406V73.3333H933.74H927.073H920.406H913.74H907.073H900.406H893.74H887.073H880.406H873.74H867.073V66.6667H873.74H880.406V60V53.3333V46.6667V40H873.74H867.073V33.3333H873.74H880.406H887.073H893.74H900.406V26.6667H893.74H887.073H880.406H873.74H867.073V20H873.74H880.406H887.073H893.74H900.406V13.3333H893.74H887.073H880.406H873.74V6.66667H880.406H887.073H893.74H900.406V0H907.073V6.66667H913.74H920.406H927.073H933.74V13.3333V20H940.406V26.6667H933.74V33.3333H940.406V40H933.74H927.073V46.6667V53.3333V60V66.6667H933.74ZM913.74 66.6667H920.406V60V53.3333H913.74H907.073V60V66.6667H913.74ZM893.74 66.6667H900.406V60V53.3333H893.74H887.073V60V66.6667H893.74ZM913.74 46.6667H920.406V40H913.74H907.073V46.6667H913.74ZM893.74 46.6667H900.406V40H893.74H887.073V46.6667H893.74ZM920.406 33.3333H927.073V26.6667H920.406H913.74H907.073V33.3333H913.74H920.406ZM920.406 20H927.073V13.3333H920.406H913.74H907.073V20H913.74H920.406Z" fill="white"/>
</svg>
