<svg width="59" height="60" viewBox="0 0 59 60" fill="none" xmlns="http://www.w3.org/2000/svg">
<path d="M4.08667 37.2299L6.10493 37.2299L6.10493 39.2941L4.08667 39.2941L4.08667 37.2299Z" fill="#FBBF00"/>
<path d="M4.08667 35.1636L6.10493 35.1636L6.10493 37.2299L4.08667 37.2299L4.08667 35.1636Z" fill="#FBBF00"/>
<path d="M4.08667 33.0994L6.10493 33.0994L6.10493 35.1636L4.08667 35.1636L4.08667 33.0994Z" fill="#FBBF00"/>
<path d="M4.08667 31.0331L6.10492 31.0331L6.10493 33.0994L4.08667 33.0994L4.08667 31.0331Z" fill="#FBBF00"/>
<path d="M4.08667 28.9668L6.10492 28.9668L6.10492 31.0331L4.08667 31.0331L4.08667 28.9668Z" fill="#FBBF00"/>
<path d="M4.08667 26.9026L6.10492 26.9026L6.10492 28.9668L4.08667 28.9668L4.08667 26.9026Z" fill="#FBBF00"/>
<path d="M4.08667 24.8363L6.10492 24.8363L6.10492 26.9026L4.08667 26.9026L4.08667 24.8363Z" fill="#FBBF00"/>
<path d="M4.08667 22.7722L6.10492 22.7722L6.10492 24.8363L4.08667 24.8363L4.08667 22.7722Z" fill="#FBBF00"/>
<path d="M4.08667 20.7058L6.10492 20.7058L6.10492 22.7722L4.08667 22.7722L4.08667 20.7058Z" fill="#FBBF00"/>
<path d="M6.10493 41.3604L8.12109 41.3604L8.12109 43.4246L6.10493 43.4246L6.10493 41.3604Z" fill="#FBBF00"/>
<path d="M6.10493 39.2941L8.12109 39.2941L8.12109 41.3604L6.10493 41.3604L6.10493 39.2941Z" fill="#FBBF00"/>
<path d="M6.10493 37.2299L8.12109 37.2299L8.12109 39.2941L6.10493 39.2941L6.10493 37.2299Z" fill="#FBBF00"/>
<path d="M6.10493 35.1636L8.12109 35.1636L8.12109 37.2299L6.10493 37.2299L6.10493 35.1636Z" fill="#FBBF00"/>
<path d="M6.10493 33.0994L8.12109 33.0994L8.12109 35.1636L6.10493 35.1636L6.10493 33.0994Z" fill="#FBBF00"/>
<path d="M6.10492 31.0331L8.12109 31.0331L8.12109 33.0994L6.10493 33.0994L6.10492 31.0331Z" fill="#FBBF00"/>
<path d="M6.10492 28.9668L8.12109 28.9668L8.12109 31.0331L6.10492 31.0331L6.10492 28.9668Z" fill="#FBBF00"/>
<path d="M6.10492 26.9026L8.12109 26.9026L8.12109 28.9668L6.10492 28.9668L6.10492 26.9026Z" fill="#FBBF00"/>
<path d="M6.10492 24.8363L8.12109 24.8363L8.12109 26.9026L6.10492 26.9026L6.10492 24.8363Z" fill="#FBBF00"/>
<path d="M6.10492 22.7722L8.12109 22.7722L8.12109 24.8363L6.10492 24.8363L6.10492 22.7722Z" fill="#FBBF00"/>
<path d="M6.10492 20.7058L8.12109 20.7058L8.12109 22.7722L6.10492 22.7722L6.10492 20.7058Z" fill="#FBBF00"/>
<path d="M6.10492 18.6417L8.12109 18.6417L8.12109 20.7058L6.10492 20.7058L6.10492 18.6417Z" fill="#FBBF00"/>
<path d="M6.10492 16.5754L8.12109 16.5754L8.12109 18.6417L6.10492 18.6417L6.10492 16.5754Z" fill="#FBBF00"/>
<path d="M8.12109 43.4246L10.1393 43.4246L10.1393 45.4909L8.12109 45.4909L8.12109 43.4246Z" fill="#FBBF00"/>
<path d="M8.12109 41.3604L10.1393 41.3604L10.1393 43.4246L8.12109 43.4246L8.12109 41.3604Z" fill="#FBBF00"/>
<path d="M8.12109 39.2941L10.1393 39.2941L10.1393 41.3604L8.12109 41.3604L8.12109 39.2941Z" fill="#FBBF00"/>
<path d="M8.12109 37.2299L10.1393 37.2299L10.1393 39.2941L8.12109 39.2941L8.12109 37.2299Z" fill="#FBBF00"/>
<path d="M8.12109 35.1636L10.1393 35.1636L10.1393 37.2299L8.12109 37.2299L8.12109 35.1636Z" fill="#FBBF00"/>
<path d="M8.12109 33.0994L10.1393 33.0994L10.1393 35.1636L8.12109 35.1636L8.12109 33.0994Z" fill="#FBBF00"/>
<path d="M8.12109 31.0331L10.1393 31.0331L10.1393 33.0994L8.12109 33.0994L8.12109 31.0331Z" fill="#FBBF00"/>
<path d="M8.12109 28.9668L10.1393 28.9668L10.1393 31.0331L8.12109 31.0331L8.12109 28.9668Z" fill="#FBBF00"/>
<path d="M8.12109 26.9026L10.1393 26.9026L10.1393 28.9668L8.12109 28.9668L8.12109 26.9026Z" fill="#FBBF00"/>
<path d="M8.12109 24.8363L10.1393 24.8363L10.1393 26.9026L8.12109 26.9026L8.12109 24.8363Z" fill="#FBBF00"/>
<path d="M8.12109 22.7722L10.1393 22.7722L10.1393 24.8363L8.12109 24.8363L8.12109 22.7722Z" fill="#FBBF00"/>
<path d="M8.12109 20.7058L10.1393 20.7058L10.1393 22.7722L8.12109 22.7722L8.12109 20.7058Z" fill="#FBBF00"/>
<path d="M8.12109 18.6417L10.1393 18.6417L10.1393 20.7058L8.12109 20.7058L8.12109 18.6417Z" fill="#FBBF00"/>
<path d="M8.12109 16.5754L10.1393 16.5754L10.1393 18.6417L8.12109 18.6417L8.12109 16.5754Z" fill="#FBBF00"/>
<path d="M8.12109 14.5112L10.1393 14.5112L10.1393 16.5754L8.12109 16.5754L8.12109 14.5112Z" fill="#FBBF00"/>
<path d="M10.1393 45.4909L12.1555 45.4909L12.1555 47.5551L10.1393 47.5551L10.1393 45.4909Z" fill="#FBBF00"/>
<path d="M10.1393 43.4246L12.1555 43.4246L12.1555 45.4909L10.1393 45.4909L10.1393 43.4246Z" fill="#FBBF00"/>
<path d="M10.1393 41.3604L12.1555 41.3604L12.1555 43.4246L10.1393 43.4246L10.1393 41.3604Z" fill="#FBBF00"/>
<path d="M10.1393 39.2941L12.1555 39.2941L12.1555 41.3604L10.1393 41.3604L10.1393 39.2941Z" fill="#FBBF00"/>
<path d="M10.1393 37.2299L12.1555 37.2299L12.1555 39.2941L10.1393 39.2941L10.1393 37.2299Z" fill="#FBBF00"/>
<path d="M10.1393 35.1636L12.1555 35.1636L12.1555 37.2299L10.1393 37.2299L10.1393 35.1636Z" fill="#FBBF00"/>
<path d="M10.1393 33.0994L12.1555 33.0994L12.1555 35.1636L10.1393 35.1636L10.1393 33.0994Z" fill="#FBBF00"/>
<path d="M10.1393 31.0331L12.1555 31.0331L12.1555 33.0994L10.1393 33.0994L10.1393 31.0331Z" fill="#FBBF00"/>
<path d="M10.1393 28.9668L12.1555 28.9668L12.1555 31.0331L10.1393 31.0331L10.1393 28.9668Z" fill="#FBBF00"/>
<path d="M10.1393 26.9026L12.1555 26.9026L12.1555 28.9668L10.1393 28.9668L10.1393 26.9026Z" fill="#FBBF00"/>
<path d="M10.1393 24.8363L12.1555 24.8363L12.1555 26.9026L10.1393 26.9026L10.1393 24.8363Z" fill="#FBBF00"/>
<path d="M10.1393 22.7722L12.1555 22.7722L12.1555 24.8363L10.1393 24.8363L10.1393 22.7722Z" fill="#FBBF00"/>
<path d="M10.1393 20.7058L12.1555 20.7058L12.1555 22.7722L10.1393 22.7722L10.1393 20.7058Z" fill="#FBBF00"/>
<path d="M10.1393 18.6417L12.1555 18.6417L12.1555 20.7058L10.1393 20.7058L10.1393 18.6417Z" fill="#FBBF00"/>
<path d="M10.1393 16.5754L12.1555 16.5754L12.1555 18.6417L10.1393 18.6417L10.1393 16.5754Z" fill="#FBBF00"/>
<path d="M10.1393 14.5112L12.1555 14.5112L12.1555 16.5754L10.1393 16.5754L10.1393 14.5112Z" fill="#FBBF00"/>
<path d="M10.1393 12.4449L12.1555 12.4449L12.1555 14.5112L10.1393 14.5112L10.1393 12.4449Z" fill="#FBBF00"/>
<path d="M12.1555 47.5551L14.1738 47.5551L14.1738 49.6214L12.1555 49.6214L12.1555 47.5551Z" fill="#FBBF00"/>
<path d="M12.1555 45.4909L14.1738 45.4909L14.1738 47.5551L12.1555 47.5551L12.1555 45.4909Z" fill="#FBBF00"/>
<path d="M12.1555 43.4246L14.1738 43.4246L14.1738 45.4909L12.1555 45.4909L12.1555 43.4246Z" fill="#FBBF00"/>
<path d="M12.1555 41.3604L14.1738 41.3604L14.1738 43.4246L12.1555 43.4246L12.1555 41.3604Z" fill="#FBBF00"/>
<path d="M12.1555 39.2941L14.1738 39.2941L14.1738 41.3604L12.1555 41.3604L12.1555 39.2941Z" fill="#FBBF00"/>
<path d="M12.1555 37.2299L14.1738 37.2299L14.1738 39.2941L12.1555 39.2941L12.1555 37.2299Z" fill="#FBBF00"/>
<path d="M12.1555 35.1636L14.1738 35.1636L14.1738 37.2299L12.1555 37.2299L12.1555 35.1636Z" fill="#FBBF00"/>
<path d="M12.1555 33.0994L14.1738 33.0994L14.1738 35.1636L12.1555 35.1636L12.1555 33.0994Z" fill="#FBBF00"/>
<path d="M12.1555 31.0331L14.1738 31.0331L14.1738 33.0994L12.1555 33.0994L12.1555 31.0331Z" fill="#FBBF00"/>
<path d="M12.1555 28.9668L14.1738 28.9668L14.1738 31.0331L12.1555 31.0331L12.1555 28.9668Z" fill="#FBBF00"/>
<path d="M12.1555 26.9026L14.1738 26.9026L14.1738 28.9668L12.1555 28.9668L12.1555 26.9026Z" fill="#FBBF00"/>
<path d="M12.1555 24.8363L14.1738 24.8363L14.1738 26.9026L12.1555 26.9026L12.1555 24.8363Z" fill="#FBBF00"/>
<path d="M12.1555 22.7722L14.1738 22.7722L14.1738 24.8363L12.1555 24.8363L12.1555 22.7722Z" fill="#FBBF00"/>
<path d="M12.1555 20.7058L14.1738 20.7058L14.1738 22.7722L12.1555 22.7722L12.1555 20.7058Z" fill="#FBBF00"/>
<path d="M12.1555 18.6417L14.1738 18.6417L14.1738 20.7058L12.1555 20.7058L12.1555 18.6417Z" fill="#FBBF00"/>
<path d="M12.1555 16.5754L14.1738 16.5754L14.1738 18.6417L12.1555 18.6417L12.1555 16.5754Z" fill="#FBBF00"/>
<path d="M12.1555 14.5112L14.1738 14.5112L14.1738 16.5754L12.1555 16.5754L12.1555 14.5112Z" fill="#FBBF00"/>
<path d="M12.1555 12.4449L14.1738 12.4449L14.1738 14.5112L12.1555 14.5112L12.1555 12.4449Z" fill="#FBBF00"/>
<path d="M12.1555 10.3807L14.1738 10.3807L14.1738 12.4449L12.1555 12.4449L12.1555 10.3807Z" fill="#FBBF00"/>
<path d="M14.1738 49.6214L16.1899 49.6214L16.1899 51.6855L14.1738 51.6855L14.1738 49.6214Z" fill="#FBBF00"/>
<path d="M14.1738 47.5551L16.1899 47.5551L16.1899 49.6214L14.1738 49.6214L14.1738 47.5551Z" fill="#FBBF00"/>
<path d="M14.1738 45.4909L16.1899 45.4909L16.1899 47.5551L14.1738 47.5551L14.1738 45.4909Z" fill="#FBBF00"/>
<path d="M14.1738 43.4246L16.1899 43.4246L16.1899 45.4909L14.1738 45.4909L14.1738 43.4246Z" fill="#FBBF00"/>
<path d="M14.1738 41.3604L16.1899 41.3604L16.1899 43.4246L14.1738 43.4246L14.1738 41.3604Z" fill="#FBBF00"/>
<path d="M14.1738 39.2941L16.1899 39.2941L16.1899 41.3604L14.1738 41.3604L14.1738 39.2941Z" fill="#FBBF00"/>
<path d="M14.1738 37.2299L16.1899 37.2299L16.1899 39.2941L14.1738 39.2941L14.1738 37.2299Z" fill="#FBBF00"/>
<path d="M14.1738 35.1636L16.1899 35.1636L16.1899 37.2299L14.1738 37.2299L14.1738 35.1636Z" fill="#FBBF00"/>
<path d="M14.1738 33.0994L16.1899 33.0994L16.1899 35.1636L14.1738 35.1636L14.1738 33.0994Z" fill="#FBBF00"/>
<path d="M14.1738 31.0331L16.1899 31.0331L16.1899 33.0994L14.1738 33.0994L14.1738 31.0331Z" fill="#FBBF00"/>
<path d="M14.1738 28.9668L16.1899 28.9668L16.1899 31.0331L14.1738 31.0331L14.1738 28.9668Z" fill="#FBBF00"/>
<path d="M14.1738 26.9026L16.1899 26.9026L16.1899 28.9668L14.1738 28.9668L14.1738 26.9026Z" fill="#FBBF00"/>
<path d="M14.1738 24.8363L16.1899 24.8363L16.1899 26.9026L14.1738 26.9026L14.1738 24.8363Z" fill="#FBBF00"/>
<path d="M14.1738 22.7722L16.1899 22.7722L16.1899 24.8363L14.1738 24.8363L14.1738 22.7722Z" fill="#FBBF00"/>
<path d="M14.1738 20.7058L16.1899 20.7058L16.1899 22.7722L14.1738 22.7722L14.1738 20.7058Z" fill="#FBBF00"/>
<path d="M14.1738 18.6417L16.1899 18.6417L16.1899 20.7058L14.1738 20.7058L14.1738 18.6417Z" fill="#FBBF00"/>
<path d="M14.1738 16.5754L16.1899 16.5754L16.1899 18.6417L14.1738 18.6417L14.1738 16.5754Z" fill="#FBBF00"/>
<path d="M14.1738 14.5112L16.1899 14.5112L16.1899 16.5754L14.1738 16.5754L14.1738 14.5112Z" fill="#FBBF00"/>
<path d="M14.1738 12.4449L16.1899 12.4449L16.1899 14.5112L14.1738 14.5112L14.1738 12.4449Z" fill="#FBBF00"/>
<path d="M14.1738 10.3807L16.1899 10.3807L16.1899 12.4449L14.1738 12.4449L14.1738 10.3807Z" fill="#FBBF00"/>
<path d="M14.1738 8.3144L16.1899 8.3144L16.1899 10.3807L14.1738 10.3807L14.1738 8.3144Z" fill="#FBBF00"/>
<path d="M16.1899 51.6855L18.2082 51.6855L18.2082 53.7518L16.1899 53.7518L16.1899 51.6855Z" fill="#FBBF00"/>
<path d="M16.1899 49.6214L18.2082 49.6214L18.2082 51.6855L16.1899 51.6855L16.1899 49.6214Z" fill="#FBBF00"/>
<path d="M16.1899 47.5551L18.2082 47.5551L18.2082 49.6214L16.1899 49.6214L16.1899 47.5551Z" fill="#FBBF00"/>
<path d="M16.1899 45.4909L18.2082 45.4909L18.2082 47.5551L16.1899 47.5551L16.1899 45.4909Z" fill="#FBBF00"/>
<path d="M16.1899 43.4246L18.2082 43.4246L18.2082 45.4909L16.1899 45.4909L16.1899 43.4246Z" fill="#FBBF00"/>
<path d="M16.1899 41.3604L18.2082 41.3604L18.2082 43.4246L16.1899 43.4246L16.1899 41.3604Z" fill="#FBBF00"/>
<path d="M16.1899 39.2941L18.2082 39.2941L18.2082 41.3604L16.1899 41.3604L16.1899 39.2941Z" fill="#FBBF00"/>
<path d="M16.1899 37.2299L18.2082 37.2299L18.2082 39.2941L16.1899 39.2941L16.1899 37.2299Z" fill="#FBBF00"/>
<path d="M16.1899 35.1636L18.2082 35.1636L18.2082 37.2299L16.1899 37.2299L16.1899 35.1636Z" fill="#FBBF00"/>
<path d="M16.1899 33.0994L18.2082 33.0994L18.2082 35.1636L16.1899 35.1636L16.1899 33.0994Z" fill="#FBBF00"/>
<path d="M16.1899 31.0331L18.2082 31.0331L18.2082 33.0994L16.1899 33.0994L16.1899 31.0331Z" fill="#FBBF00"/>
<path d="M16.1899 28.9668L18.2082 28.9668L18.2082 31.0331L16.1899 31.0331L16.1899 28.9668Z" fill="#FBBF00"/>
<path d="M16.1899 26.9026L18.2082 26.9026L18.2082 28.9668L16.1899 28.9668L16.1899 26.9026Z" fill="#FBBF00"/>
<path d="M16.1899 24.8363L18.2082 24.8363L18.2082 26.9026L16.1899 26.9026L16.1899 24.8363Z" fill="#FBBF00"/>
<path d="M16.1899 22.7722L18.2082 22.7722L18.2082 24.8363L16.1899 24.8363L16.1899 22.7722Z" fill="#FBBF00"/>
<path d="M16.1899 20.7058L18.2082 20.7058L18.2082 22.7722L16.1899 22.7722L16.1899 20.7058Z" fill="#FBBF00"/>
<path d="M16.1899 18.6417L18.2082 18.6417L18.2082 20.7058L16.1899 20.7058L16.1899 18.6417Z" fill="#FBBF00"/>
<path d="M16.1899 16.5754L18.2082 16.5754L18.2082 18.6417L16.1899 18.6417L16.1899 16.5754Z" fill="#FBBF00"/>
<path d="M16.1899 14.5112L18.2082 14.5112L18.2082 16.5754L16.1899 16.5754L16.1899 14.5112Z" fill="#FBBF00"/>
<path d="M16.1899 12.4449L18.2082 12.4449L18.2082 14.5112L16.1899 14.5112L16.1899 12.4449Z" fill="#FBBF00"/>
<path d="M16.1899 10.3807L18.2082 10.3807L18.2082 12.4449L16.1899 12.4449L16.1899 10.3807Z" fill="#FBBF00"/>
<path d="M16.1899 8.3144L18.2082 8.3144L18.2082 10.3807L16.1899 10.3807L16.1899 8.3144Z" fill="#FBBF00"/>
<path d="M16.1899 6.25023L18.2082 6.25023L18.2082 8.3144L16.1899 8.3144L16.1899 6.25023Z" fill="#FBBF00"/>
<path d="M18.2082 53.7518L20.2244 53.7518L20.2244 55.816L18.2082 55.816L18.2082 53.7518Z" fill="#FBBF00"/>
<path d="M18.2082 51.6855L20.2244 51.6855L20.2244 53.7518L18.2082 53.7518L18.2082 51.6855Z" fill="#FBBF00"/>
<path d="M18.2082 49.6214L20.2244 49.6214L20.2244 51.6855L18.2082 51.6855L18.2082 49.6214Z" fill="#FBBF00"/>
<path d="M18.2082 47.5551L20.2244 47.5551L20.2244 49.6214L18.2082 49.6214L18.2082 47.5551Z" fill="#FBBF00"/>
<path d="M18.2082 45.4909L20.2244 45.4909L20.2244 47.5551L18.2082 47.5551L18.2082 45.4909Z" fill="#FBBF00"/>
<path d="M18.2082 43.4246L20.2244 43.4246L20.2244 45.4909L18.2082 45.4909L18.2082 43.4246Z" fill="#FBBF00"/>
<path d="M18.2082 41.3604L20.2244 41.3604L20.2244 43.4246L18.2082 43.4246L18.2082 41.3604Z" fill="#FBBF00"/>
<path d="M18.2082 39.2941L20.2244 39.2941L20.2244 41.3604L18.2082 41.3604L18.2082 39.2941Z" fill="#FBBF00"/>
<path d="M18.2082 37.2299L20.2244 37.2299L20.2244 39.2941L18.2082 39.2941L18.2082 37.2299Z" fill="#FBBF00"/>
<path d="M18.2082 35.1636L20.2244 35.1636L20.2244 37.2299L18.2082 37.2299L18.2082 35.1636Z" fill="#FBBF00"/>
<path d="M18.2082 33.0994L20.2244 33.0994L20.2244 35.1636L18.2082 35.1636L18.2082 33.0994Z" fill="#FBBF00"/>
<path d="M18.2082 31.0331L20.2244 31.0331L20.2244 33.0994L18.2082 33.0994L18.2082 31.0331Z" fill="#FBBF00"/>
<path d="M18.2082 28.9668L20.2244 28.9668L20.2244 31.0331L18.2082 31.0331L18.2082 28.9668Z" fill="#FBBF00"/>
<path d="M18.2082 26.9026L20.2244 26.9026L20.2244 28.9668L18.2082 28.9668L18.2082 26.9026Z" fill="#FBBF00"/>
<path d="M18.2082 24.8363L20.2244 24.8363L20.2244 26.9026L18.2082 26.9026L18.2082 24.8363Z" fill="#FBBF00"/>
<path d="M18.2082 22.7722L20.2244 22.7722L20.2244 24.8363L18.2082 24.8363L18.2082 22.7722Z" fill="#FBBF00"/>
<path d="M18.2082 20.7058L20.2244 20.7058L20.2244 22.7722L18.2082 22.7722L18.2082 20.7058Z" fill="#FBBF00"/>
<path d="M18.2082 18.6417L20.2244 18.6417L20.2244 20.7058L18.2082 20.7058L18.2082 18.6417Z" fill="#FBBF00"/>
<path d="M18.2082 16.5754L20.2244 16.5754L20.2244 18.6417L18.2082 18.6417L18.2082 16.5754Z" fill="#FBBF00"/>
<path d="M18.2082 14.5112L20.2244 14.5112L20.2244 16.5754L18.2082 16.5754L18.2082 14.5112Z" fill="#FBBF00"/>
<path d="M18.2082 12.4449L20.2244 12.4449L20.2244 14.5112L18.2082 14.5112L18.2082 12.4449Z" fill="#FBBF00"/>
<path d="M18.2082 10.3807L20.2244 10.3807L20.2244 12.4449L18.2082 12.4449L18.2082 10.3807Z" fill="#FBBF00"/>
<path d="M18.2082 8.3144L20.2244 8.3144L20.2244 10.3807L18.2082 10.3807L18.2082 8.3144Z" fill="#FBBF00"/>
<path d="M18.2082 6.25023L20.2244 6.25023L20.2244 8.3144L18.2082 8.3144L18.2082 6.25023Z" fill="#FBBF00"/>
<path d="M20.2244 53.7518L22.2426 53.7518L22.2426 55.816L20.2244 55.816L20.2244 53.7518Z" fill="#FBBF00"/>
<path d="M20.2244 51.6855L22.2426 51.6855L22.2426 53.7518L20.2244 53.7518L20.2244 51.6855Z" fill="#FBBF00"/>
<path d="M20.2244 49.6214L22.2426 49.6214L22.2426 51.6855L20.2244 51.6855L20.2244 49.6214Z" fill="#FBBF00"/>
<path d="M20.2244 47.5551L22.2426 47.5551L22.2426 49.6214L20.2244 49.6214L20.2244 47.5551Z" fill="#FBBF00"/>
<path d="M20.2244 45.4909L22.2426 45.4909L22.2426 47.5551L20.2244 47.5551L20.2244 45.4909Z" fill="#FBBF00"/>
<path d="M20.2244 43.4246L22.2426 43.4246L22.2426 45.4909L20.2244 45.4909L20.2244 43.4246Z" fill="#FBBF00"/>
<path d="M20.2244 41.3604L22.2426 41.3604L22.2426 43.4246L20.2244 43.4246L20.2244 41.3604Z" fill="#FBBF00"/>
<path d="M20.2244 39.2941L22.2426 39.2941L22.2426 41.3604L20.2244 41.3604L20.2244 39.2941Z" fill="#FBBF00"/>
<path d="M20.2244 37.2299L22.2426 37.2299L22.2426 39.2941L20.2244 39.2941L20.2244 37.2299Z" fill="#FBBF00"/>
<path d="M20.2244 35.1636L22.2426 35.1636L22.2426 37.2299L20.2244 37.2299L20.2244 35.1636Z" fill="#FBBF00"/>
<path d="M20.2244 33.0994L22.2426 33.0994L22.2426 35.1636L20.2244 35.1636L20.2244 33.0994Z" fill="#FBBF00"/>
<path d="M20.2244 31.0331L22.2426 31.0331L22.2426 33.0994L20.2244 33.0994L20.2244 31.0331Z" fill="#FBBF00"/>
<path d="M20.2244 28.9668L22.2426 28.9668L22.2426 31.0331L20.2244 31.0331L20.2244 28.9668Z" fill="#FBBF00"/>
<path d="M20.2244 26.9026L22.2426 26.9026L22.2426 28.9668L20.2244 28.9668L20.2244 26.9026Z" fill="#FBBF00"/>
<path d="M20.2244 24.8363L22.2426 24.8363L22.2426 26.9026L20.2244 26.9026L20.2244 24.8363Z" fill="#FBBF00"/>
<path d="M20.2244 22.7722L22.2426 22.7722L22.2426 24.8363L20.2244 24.8363L20.2244 22.7722Z" fill="#FBBF00"/>
<path d="M20.2244 20.7058L22.2426 20.7058L22.2426 22.7722L20.2244 22.7722L20.2244 20.7058Z" fill="#FBBF00"/>
<path d="M20.2244 18.6417L22.2426 18.6417L22.2426 20.7058L20.2244 20.7058L20.2244 18.6417Z" fill="#FBBF00"/>
<path d="M20.2244 16.5754L22.2426 16.5754L22.2426 18.6417L20.2244 18.6417L20.2244 16.5754Z" fill="#FBBF00"/>
<path d="M20.2244 14.5112L22.2426 14.5112L22.2426 16.5754L20.2244 16.5754L20.2244 14.5112Z" fill="#FBBF00"/>
<path d="M20.2244 12.4449L22.2426 12.4449L22.2426 14.5112L20.2244 14.5112L20.2244 12.4449Z" fill="#FBBF00"/>
<path d="M20.2244 10.3807L22.2426 10.3807L22.2426 12.4449L20.2244 12.4449L20.2244 10.3807Z" fill="#FBBF00"/>
<path d="M20.2244 8.3144L22.2426 8.3144L22.2426 10.3807L20.2244 10.3807L20.2244 8.3144Z" fill="#FBBF00"/>
<path d="M20.2244 6.25023L22.2426 6.25023L22.2426 8.3144L20.2244 8.3144L20.2244 6.25023Z" fill="#FBBF00"/>
<path d="M20.2244 4.18392L22.2426 4.18392L22.2426 6.25023L20.2244 6.25023L20.2244 4.18392Z" fill="#FBBF00"/>
<path d="M22.2426 55.816L24.2588 55.816L24.2588 57.8823L22.2426 57.8823L22.2426 55.816Z" fill="#FBBF00"/>
<path d="M22.2426 53.7518L24.2588 53.7518L24.2588 55.816L22.2426 55.816L22.2426 53.7518Z" fill="#FBBF00"/>
<path d="M22.2426 51.6855L24.2588 51.6855L24.2588 53.7518L22.2426 53.7518L22.2426 51.6855Z" fill="#FBBF00"/>
<path d="M22.2426 49.6214L24.2588 49.6214L24.2588 51.6855L22.2426 51.6855L22.2426 49.6214Z" fill="#FBBF00"/>
<path d="M22.2426 47.5551L24.2588 47.5551L24.2588 49.6214L22.2426 49.6214L22.2426 47.5551Z" fill="#FBBF00"/>
<path d="M22.2426 45.4909L24.2588 45.4909L24.2588 47.5551L22.2426 47.5551L22.2426 45.4909Z" fill="#FBBF00"/>
<path d="M22.2426 43.4246L24.2588 43.4246L24.2588 45.4909L22.2426 45.4909L22.2426 43.4246Z" fill="#FBBF00"/>
<path d="M22.2426 41.3604L24.2588 41.3604L24.2588 43.4246L22.2426 43.4246L22.2426 41.3604Z" fill="#FBBF00"/>
<path d="M22.2426 39.2941L24.2588 39.2941L24.2588 41.3604L22.2426 41.3604L22.2426 39.2941Z" fill="#FBBF00"/>
<path d="M22.2426 37.2299L24.2588 37.2299L24.2588 39.2941L22.2426 39.2941L22.2426 37.2299Z" fill="#FBBF00"/>
<path d="M22.2426 35.1636L24.2588 35.1636L24.2588 37.2299L22.2426 37.2299L22.2426 35.1636Z" fill="#FBBF00"/>
<path d="M22.2426 33.0994L24.2588 33.0994L24.2588 35.1636L22.2426 35.1636L22.2426 33.0994Z" fill="#FBBF00"/>
<path d="M22.2426 31.0331L24.2588 31.0331L24.2588 33.0994L22.2426 33.0994L22.2426 31.0331Z" fill="#FBBF00"/>
<path d="M22.2426 28.9668L24.2588 28.9668L24.2588 31.0331L22.2426 31.0331L22.2426 28.9668Z" fill="#FBBF00"/>
<path d="M22.2426 26.9026L24.2588 26.9026L24.2588 28.9668L22.2426 28.9668L22.2426 26.9026Z" fill="#FBBF00"/>
<path d="M22.2426 24.8363L24.2588 24.8363L24.2588 26.9026L22.2426 26.9026L22.2426 24.8363Z" fill="#FBBF00"/>
<path d="M22.2426 22.7722L24.2588 22.7722L24.2588 24.8363L22.2426 24.8363L22.2426 22.7722Z" fill="#FBBF00"/>
<path d="M22.2426 20.7058L24.2588 20.7058L24.2588 22.7722L22.2426 22.7722L22.2426 20.7058Z" fill="#FBBF00"/>
<path d="M22.2426 18.6417L24.2588 18.6417L24.2588 20.7058L22.2426 20.7058L22.2426 18.6417Z" fill="#FBBF00"/>
<path d="M22.2426 16.5754L24.2588 16.5754L24.2588 18.6417L22.2426 18.6417L22.2426 16.5754Z" fill="#FBBF00"/>
<path d="M22.2426 14.5112L24.2588 14.5112L24.2588 16.5754L22.2426 16.5754L22.2426 14.5112Z" fill="#FBBF00"/>
<path d="M22.2426 12.4449L24.2588 12.4449L24.2588 14.5112L22.2426 14.5112L22.2426 12.4449Z" fill="#FBBF00"/>
<path d="M22.2426 10.3807L24.2588 10.3807L24.2588 12.4449L22.2426 12.4449L22.2426 10.3807Z" fill="#FBBF00"/>
<path d="M22.2426 8.3144L24.2588 8.3144L24.2588 10.3807L22.2426 10.3807L22.2426 8.3144Z" fill="#FBBF00"/>
<path d="M22.2426 6.25023L24.2588 6.25023L24.2588 8.3144L22.2426 8.3144L22.2426 6.25023Z" fill="#FBBF00"/>
<path d="M22.2426 4.18392L24.2588 4.18392L24.2588 6.25023L22.2426 6.25023L22.2426 4.18392Z" fill="#FBBF00"/>
<path d="M22.2426 2.11975L24.2588 2.11975L24.2588 4.18392L22.2426 4.18392L22.2426 2.11975Z" fill="#FBBF00"/>
<path d="M24.2588 55.816L26.277 55.816L26.277 57.8823L24.2588 57.8823L24.2588 55.816Z" fill="#FBBF00"/>
<path d="M24.2588 53.7518L26.277 53.7518L26.277 55.816L24.2588 55.816L24.2588 53.7518Z" fill="#FBBF00"/>
<path d="M24.2588 51.6855L26.277 51.6855L26.277 53.7518L24.2588 53.7518L24.2588 51.6855Z" fill="#FBBF00"/>
<path d="M24.2588 49.6214L26.277 49.6214L26.277 51.6855L24.2588 51.6855L24.2588 49.6214Z" fill="#FBBF00"/>
<path d="M24.2588 47.5551L26.277 47.5551L26.277 49.6214L24.2588 49.6214L24.2588 47.5551Z" fill="#FBBF00"/>
<path d="M24.2588 45.4909L26.277 45.4909L26.277 47.5551L24.2588 47.5551L24.2588 45.4909Z" fill="#FBBF00"/>
<path d="M24.2588 43.4246L26.277 43.4246L26.277 45.4909L24.2588 45.4909L24.2588 43.4246Z" fill="#FBBF00"/>
<path d="M24.2588 41.3604L26.277 41.3604L26.277 43.4246L24.2588 43.4246L24.2588 41.3604Z" fill="#FBBF00"/>
<path d="M24.2588 39.2941L26.277 39.2941L26.277 41.3604L24.2588 41.3604L24.2588 39.2941Z" fill="#FBBF00"/>
<path d="M24.2588 37.2299L26.277 37.2299L26.277 39.2941L24.2588 39.2941L24.2588 37.2299Z" fill="#FBBF00"/>
<path d="M24.2588 35.1636L26.277 35.1636L26.277 37.2299L24.2588 37.2299L24.2588 35.1636Z" fill="#FBBF00"/>
<path d="M24.2588 33.0994L26.277 33.0994L26.277 35.1636L24.2588 35.1636L24.2588 33.0994Z" fill="#FBBF00"/>
<path d="M24.2588 31.0331L26.277 31.0331L26.277 33.0994L24.2588 33.0994L24.2588 31.0331Z" fill="#FBBF00"/>
<path d="M24.2588 28.9668L26.277 28.9668L26.277 31.0331L24.2588 31.0331L24.2588 28.9668Z" fill="#FBBF00"/>
<path d="M24.2588 26.9026L26.277 26.9026L26.277 28.9668L24.2588 28.9668L24.2588 26.9026Z" fill="#FBBF00"/>
<path d="M24.2588 24.8363L26.277 24.8363L26.277 26.9026L24.2588 26.9026L24.2588 24.8363Z" fill="#FBBF00"/>
<path d="M24.2588 22.7722L26.277 22.7722L26.277 24.8363L24.2588 24.8363L24.2588 22.7722Z" fill="#FBBF00"/>
<path d="M24.2588 20.7058L26.277 20.7058L26.277 22.7722L24.2588 22.7722L24.2588 20.7058Z" fill="#FBBF00"/>
<path d="M24.2588 18.6417L26.277 18.6417L26.277 20.7058L24.2588 20.7058L24.2588 18.6417Z" fill="#FBBF00"/>
<path d="M24.2588 16.5754L26.277 16.5754L26.277 18.6417L24.2588 18.6417L24.2588 16.5754Z" fill="#FBBF00"/>
<path d="M24.2588 14.5112L26.277 14.5112L26.277 16.5754L24.2588 16.5754L24.2588 14.5112Z" fill="#FBBF00"/>
<path d="M24.2588 12.4449L26.277 12.4449L26.277 14.5112L24.2588 14.5112L24.2588 12.4449Z" fill="#FBBF00"/>
<path d="M24.2588 10.3807L26.277 10.3807L26.277 12.4449L24.2588 12.4449L24.2588 10.3807Z" fill="#FBBF00"/>
<path d="M24.2588 8.3144L26.277 8.3144L26.277 10.3807L24.2588 10.3807L24.2588 8.3144Z" fill="#FBBF00"/>
<path d="M24.2588 6.25023L26.277 6.25023L26.277 8.3144L24.2588 8.3144L24.2588 6.25023Z" fill="#FBBF00"/>
<path d="M24.2588 4.18392L26.277 4.18392L26.277 6.25023L24.2588 6.25023L24.2588 4.18392Z" fill="#FBBF00"/>
<path d="M24.2588 2.11975L26.277 2.11975L26.277 4.18392L24.2588 4.18392L24.2588 2.11975Z" fill="#FBBF00"/>
<path d="M26.277 55.816L28.2932 55.816L28.2932 57.8823L26.277 57.8823L26.277 55.816Z" fill="#FBBF00"/>
<path d="M26.277 53.7518L28.2932 53.7518L28.2932 55.816L26.277 55.816L26.277 53.7518Z" fill="#FBBF00"/>
<path d="M26.277 51.6855L28.2932 51.6855L28.2932 53.7518L26.277 53.7518L26.277 51.6855Z" fill="#FBBF00"/>
<path d="M26.277 49.6214L28.2932 49.6214L28.2932 51.6855L26.277 51.6855L26.277 49.6214Z" fill="#FBBF00"/>
<path d="M26.277 47.5551L28.2932 47.5551L28.2932 49.6214L26.277 49.6214L26.277 47.5551Z" fill="#FBBF00"/>
<path d="M26.277 45.4909L28.2932 45.4909L28.2932 47.5551L26.277 47.5551L26.277 45.4909Z" fill="#FBBF00"/>
<path d="M26.277 43.4246L28.2932 43.4246L28.2932 45.4909L26.277 45.4909L26.277 43.4246Z" fill="#FBBF00"/>
<path d="M26.277 41.3604L28.2932 41.3604L28.2932 43.4246L26.277 43.4246L26.277 41.3604Z" fill="#FBBF00"/>
<path d="M26.277 39.2941L28.2932 39.2941L28.2932 41.3604L26.277 41.3604L26.277 39.2941Z" fill="#FBBF00"/>
<path d="M26.277 37.2299L28.2932 37.2299L28.2932 39.2941L26.277 39.2941L26.277 37.2299Z" fill="#FBBF00"/>
<path d="M26.277 35.1636L28.2932 35.1636L28.2932 37.2299L26.277 37.2299L26.277 35.1636Z" fill="#FBBF00"/>
<path d="M26.277 33.0994L28.2932 33.0994L28.2932 35.1636L26.277 35.1636L26.277 33.0994Z" fill="#FBBF00"/>
<path d="M26.277 31.0331L28.2932 31.0331L28.2932 33.0994L26.277 33.0994L26.277 31.0331Z" fill="#FBBF00"/>
<path d="M26.277 28.9668L28.2932 28.9668L28.2932 31.0331L26.277 31.0331L26.277 28.9668Z" fill="#FBBF00"/>
<path d="M26.277 26.9026L28.2932 26.9026L28.2932 28.9668L26.277 28.9668L26.277 26.9026Z" fill="#FBBF00"/>
<path d="M26.277 24.8363L28.2932 24.8363L28.2932 26.9026L26.277 26.9026L26.277 24.8363Z" fill="#FBBF00"/>
<path d="M26.277 22.7722L28.2932 22.7722L28.2932 24.8363L26.277 24.8363L26.277 22.7722Z" fill="#FBBF00"/>
<path d="M26.277 20.7058L28.2932 20.7058L28.2932 22.7722L26.277 22.7722L26.277 20.7058Z" fill="#FBBF00"/>
<path d="M26.277 18.6417L28.2932 18.6417L28.2932 20.7058L26.277 20.7058L26.277 18.6417Z" fill="#FBBF00"/>
<path d="M26.277 16.5754L28.2932 16.5754L28.2932 18.6417L26.277 18.6417L26.277 16.5754Z" fill="#FBBF00"/>
<path d="M26.277 14.5112L28.2932 14.5112L28.2932 16.5754L26.277 16.5754L26.277 14.5112Z" fill="#FBBF00"/>
<path d="M26.277 12.4449L28.2932 12.4449L28.2932 14.5112L26.277 14.5112L26.277 12.4449Z" fill="#FBBF00"/>
<path d="M26.277 10.3807L28.2932 10.3807L28.2932 12.4449L26.277 12.4449L26.277 10.3807Z" fill="#FBBF00"/>
<path d="M26.277 8.3144L28.2932 8.3144L28.2932 10.3807L26.277 10.3807L26.277 8.3144Z" fill="#FBBF00"/>
<path d="M26.277 6.25023L28.2932 6.25023L28.2932 8.3144L26.277 8.3144L26.277 6.25023Z" fill="#FBBF00"/>
<path d="M26.277 4.18392L28.2932 4.18392L28.2932 6.25023L26.277 6.25023L26.277 4.18392Z" fill="#FBBF00"/>
<path d="M26.277 2.11975L28.2932 2.11975L28.2932 4.18392L26.277 4.18392L26.277 2.11975Z" fill="#FBBF00"/>
<path d="M28.2932 55.816L30.3115 55.816L30.3115 57.8823L28.2932 57.8823L28.2932 55.816Z" fill="#FBBF00"/>
<path d="M28.2932 53.7518L30.3115 53.7518L30.3115 55.816L28.2932 55.816L28.2932 53.7518Z" fill="#FBBF00"/>
<path d="M28.2932 51.6855L30.3115 51.6855L30.3115 53.7518L28.2932 53.7518L28.2932 51.6855Z" fill="#FBBF00"/>
<path d="M28.2932 49.6214L30.3115 49.6214L30.3115 51.6855L28.2932 51.6855L28.2932 49.6214Z" fill="#FBBF00"/>
<path d="M28.2932 47.5551L30.3115 47.5551L30.3115 49.6214L28.2932 49.6214L28.2932 47.5551Z" fill="#FBBF00"/>
<path d="M28.2932 45.4909L30.3115 45.4909L30.3115 47.5551L28.2932 47.5551L28.2932 45.4909Z" fill="#FBBF00"/>
<path d="M28.2932 43.4246L30.3115 43.4246L30.3115 45.4909L28.2932 45.4909L28.2932 43.4246Z" fill="#FBBF00"/>
<path d="M28.2932 41.3604L30.3115 41.3604L30.3115 43.4246L28.2932 43.4246L28.2932 41.3604Z" fill="#FBBF00"/>
<path d="M28.2932 39.2941L30.3115 39.2941L30.3115 41.3604L28.2932 41.3604L28.2932 39.2941Z" fill="#FBBF00"/>
<path d="M28.2932 37.2299L30.3115 37.2299L30.3115 39.2941L28.2932 39.2941L28.2932 37.2299Z" fill="#FBBF00"/>
<path d="M28.2932 35.1636L30.3115 35.1636L30.3115 37.2299L28.2932 37.2299L28.2932 35.1636Z" fill="#FBBF00"/>
<path d="M28.2932 33.0994L30.3115 33.0994L30.3115 35.1636L28.2932 35.1636L28.2932 33.0994Z" fill="#FBBF00"/>
<path d="M28.2932 31.0331L30.3115 31.0331L30.3115 33.0994L28.2932 33.0994L28.2932 31.0331Z" fill="#FBBF00"/>
<path d="M28.2932 26.9026L30.3115 26.9026L30.3115 28.9668L28.2932 28.9668L28.2932 26.9026Z" fill="#FBBF00"/>
<path d="M28.2932 24.8363L30.3115 24.8363L30.3115 26.9026L28.2932 26.9026L28.2932 24.8363Z" fill="#FBBF00"/>
<path d="M28.2932 22.7722L30.3115 22.7722L30.3115 24.8363L28.2932 24.8363L28.2932 22.7722Z" fill="#FBBF00"/>
<path d="M28.2932 20.7058L30.3115 20.7058L30.3115 22.7722L28.2932 22.7722L28.2932 20.7058Z" fill="#FBBF00"/>
<path d="M28.2932 18.6417L30.3115 18.6417L30.3115 20.7058L28.2932 20.7058L28.2932 18.6417Z" fill="#FBBF00"/>
<path d="M28.2932 16.5754L30.3115 16.5754L30.3115 18.6417L28.2932 18.6417L28.2932 16.5754Z" fill="#FBBF00"/>
<path d="M28.2932 14.5112L30.3115 14.5112L30.3115 16.5754L28.2932 16.5754L28.2932 14.5112Z" fill="#FBBF00"/>
<path d="M28.2932 12.4449L30.3115 12.4449L30.3115 14.5112L28.2932 14.5112L28.2932 12.4449Z" fill="#FBBF00"/>
<path d="M28.2932 10.3807L30.3115 10.3807L30.3115 12.4449L28.2932 12.4449L28.2932 10.3807Z" fill="#FBBF00"/>
<path d="M28.2932 8.3144L30.3115 8.3144L30.3115 10.3807L28.2932 10.3807L28.2932 8.3144Z" fill="#FBBF00"/>
<path d="M28.2932 6.25023L30.3115 6.25023L30.3115 8.3144L28.2932 8.3144L28.2932 6.25023Z" fill="#FBBF00"/>
<path d="M28.2932 4.18392L30.3115 4.18392L30.3115 6.25023L28.2932 6.25023L28.2932 4.18392Z" fill="#FBBF00"/>
<path d="M28.2932 2.11975L30.3115 2.11975L30.3115 4.18392L28.2932 4.18392L28.2932 2.11975Z" fill="#FBBF00"/>
<path d="M30.3115 55.816L32.3276 55.816L32.3276 57.8823L30.3115 57.8823L30.3115 55.816Z" fill="#FBBF00"/>
<path d="M30.3115 53.7518L32.3276 53.7518L32.3276 55.816L30.3115 55.816L30.3115 53.7518Z" fill="#FBBF00"/>
<path d="M30.3115 51.6855L32.3276 51.6855L32.3276 53.7518L30.3115 53.7518L30.3115 51.6855Z" fill="#FBBF00"/>
<path d="M30.3115 49.6214L32.3276 49.6214L32.3276 51.6855L30.3115 51.6855L30.3115 49.6214Z" fill="#FBBF00"/>
<path d="M30.3115 47.5551L32.3276 47.5551L32.3276 49.6214L30.3115 49.6214L30.3115 47.5551Z" fill="#FBBF00"/>
<path d="M30.3115 45.4909L32.3276 45.4909L32.3276 47.5551L30.3115 47.5551L30.3115 45.4909Z" fill="#FBBF00"/>
<path d="M30.3115 43.4246L32.3276 43.4246L32.3276 45.4909L30.3115 45.4909L30.3115 43.4246Z" fill="#FBBF00"/>
<path d="M30.3115 41.3604L32.3276 41.3604L32.3276 43.4246L30.3115 43.4246L30.3115 41.3604Z" fill="#FBBF00"/>
<path d="M30.3115 39.2941L32.3276 39.2941L32.3276 41.3604L30.3115 41.3604L30.3115 39.2941Z" fill="#FBBF00"/>
<path d="M30.3115 37.2299L32.3276 37.2299L32.3276 39.2941L30.3115 39.2941L30.3115 37.2299Z" fill="#FBBF00"/>
<path d="M30.3115 35.1636L32.3276 35.1636L32.3276 37.2299L30.3115 37.2299L30.3115 35.1636Z" fill="#FBBF00"/>
<path d="M30.3115 33.0994L32.3276 33.0994L32.3276 35.1636L30.3115 35.1636L30.3115 33.0994Z" fill="#FBBF00"/>
<path d="M30.3115 24.8363L32.3276 24.8363L32.3276 26.9026L30.3115 26.9026L30.3115 24.8363Z" fill="#FBBF00"/>
<path d="M30.3115 22.7722L32.3276 22.7722L32.3276 24.8363L30.3115 24.8363L30.3115 22.7722Z" fill="#FBBF00"/>
<path d="M30.3115 20.7058L32.3276 20.7058L32.3276 22.7722L30.3115 22.7722L30.3115 20.7058Z" fill="#FBBF00"/>
<path d="M30.3115 18.6417L32.3276 18.6417L32.3276 20.7058L30.3115 20.7058L30.3115 18.6417Z" fill="#FBBF00"/>
<path d="M30.3115 16.5754L32.3276 16.5754L32.3276 18.6417L30.3115 18.6417L30.3115 16.5754Z" fill="#FBBF00"/>
<path d="M30.3115 14.5112L32.3276 14.5112L32.3276 16.5754L30.3115 16.5754L30.3115 14.5112Z" fill="#FBBF00"/>
<path d="M30.3115 12.4449L32.3276 12.4449L32.3276 14.5112L30.3115 14.5112L30.3115 12.4449Z" fill="#FBBF00"/>
<path d="M30.3115 10.3807L32.3276 10.3807L32.3276 12.4449L30.3115 12.4449L30.3115 10.3807Z" fill="#FBBF00"/>
<path d="M30.3115 8.3144L32.3276 8.3144L32.3276 10.3807L30.3115 10.3807L30.3115 8.3144Z" fill="#FBBF00"/>
<path d="M30.3115 6.25023L32.3276 6.25023L32.3276 8.3144L30.3115 8.3144L30.3115 6.25023Z" fill="#FBBF00"/>
<path d="M30.3115 4.18392L32.3276 4.18392L32.3276 6.25023L30.3115 6.25023L30.3115 4.18392Z" fill="#FBBF00"/>
<path d="M30.3115 2.11975L32.3276 2.11975L32.3276 4.18392L30.3115 4.18392L30.3115 2.11975Z" fill="#FBBF00"/>
<path d="M32.3276 55.816L34.3459 55.816L34.3459 57.8823L32.3276 57.8823L32.3276 55.816Z" fill="#FBBF00"/>
<path d="M32.3276 53.7518L34.3459 53.7518L34.3459 55.816L32.3276 55.816L32.3276 53.7518Z" fill="#FBBF00"/>
<path d="M32.3276 51.6855L34.3459 51.6855L34.3459 53.7518L32.3276 53.7518L32.3276 51.6855Z" fill="#FBBF00"/>
<path d="M32.3276 49.6214L34.3459 49.6214L34.3459 51.6855L32.3276 51.6855L32.3276 49.6214Z" fill="#FBBF00"/>
<path d="M32.3276 47.5551L34.3459 47.5551L34.3459 49.6214L32.3276 49.6214L32.3276 47.5551Z" fill="#FBBF00"/>
<path d="M32.3276 45.4909L34.3459 45.4909L34.3459 47.5551L32.3276 47.5551L32.3276 45.4909Z" fill="#FBBF00"/>
<path d="M32.3276 43.4246L34.3459 43.4246L34.3459 45.4909L32.3276 45.4909L32.3276 43.4246Z" fill="#FBBF00"/>
<path d="M32.3276 41.3604L34.3459 41.3604L34.3459 43.4246L32.3276 43.4246L32.3276 41.3604Z" fill="#FBBF00"/>
<path d="M32.3276 39.2941L34.3459 39.2941L34.3459 41.3604L32.3276 41.3604L32.3276 39.2941Z" fill="#FBBF00"/>
<path d="M32.3276 37.2299L34.3459 37.2299L34.3459 39.2941L32.3276 39.2941L32.3276 37.2299Z" fill="#FBBF00"/>
<path d="M32.3276 35.1636L34.3459 35.1636L34.3459 37.2299L32.3276 37.2299L32.3276 35.1636Z" fill="#FBBF00"/>
<path d="M32.3276 33.0994L34.3459 33.0994L34.3459 35.1636L32.3276 35.1636L32.3276 33.0994Z" fill="#FBBF00"/>
<path d="M32.3276 24.8363L34.3459 24.8363L34.3459 26.9026L32.3276 26.9026L32.3276 24.8363Z" fill="#FBBF00"/>
<path d="M32.3276 22.7722L34.3459 22.7722L34.3459 24.8363L32.3276 24.8363L32.3276 22.7722Z" fill="#FBBF00"/>
<path d="M32.3276 20.7058L34.3459 20.7058L34.3459 22.7722L32.3276 22.7722L32.3276 20.7058Z" fill="#FBBF00"/>
<path d="M32.3276 18.6417L34.3459 18.6417L34.3459 20.7058L32.3276 20.7058L32.3276 18.6417Z" fill="#FBBF00"/>
<path d="M32.3276 16.5754L34.3459 16.5754L34.3459 18.6417L32.3276 18.6417L32.3276 16.5754Z" fill="#FBBF00"/>
<path d="M32.3276 14.5112L34.3459 14.5112L34.3459 16.5754L32.3276 16.5754L32.3276 14.5112Z" fill="#FBBF00"/>
<path d="M32.3276 12.4449L34.3459 12.4449L34.3459 14.5112L32.3276 14.5112L32.3276 12.4449Z" fill="#FBBF00"/>
<path d="M32.3276 10.3807L34.3459 10.3807L34.3459 12.4449L32.3276 12.4449L32.3276 10.3807Z" fill="#FBBF00"/>
<path d="M32.3276 8.3144L34.3459 8.3144L34.3459 10.3807L32.3276 10.3807L32.3276 8.3144Z" fill="#FBBF00"/>
<path d="M32.3276 6.25023L34.3459 6.25023L34.3459 8.3144L32.3276 8.3144L32.3276 6.25023Z" fill="#FBBF00"/>
<path d="M32.3276 4.18392L34.3459 4.18392L34.3459 6.25023L32.3276 6.25023L32.3276 4.18392Z" fill="#FBBF00"/>
<path d="M32.3276 2.11975L34.3459 2.11975L34.3459 4.18392L32.3276 4.18392L32.3276 2.11975Z" fill="#FBBF00"/>
<path d="M34.3459 55.816L36.3642 55.816L36.3642 57.8823L34.3459 57.8823L34.3459 55.816Z" fill="#FBBF00"/>
<path d="M34.3459 53.7518L36.3642 53.7518L36.3642 55.816L34.3459 55.816L34.3459 53.7518Z" fill="#FBBF00"/>
<path d="M34.3459 51.6855L36.3642 51.6855L36.3642 53.7518L34.3459 53.7518L34.3459 51.6855Z" fill="#FBBF00"/>
<path d="M34.3459 49.6214L36.3642 49.6214L36.3642 51.6855L34.3459 51.6855L34.3459 49.6214Z" fill="#FBBF00"/>
<path d="M34.3459 47.5551L36.3641 47.5551L36.3642 49.6214L34.3459 49.6214L34.3459 47.5551Z" fill="#FBBF00"/>
<path d="M34.3459 45.4909L36.3641 45.4909L36.3641 47.5551L34.3459 47.5551L34.3459 45.4909Z" fill="#FBBF00"/>
<path d="M34.3459 43.4246L36.3641 43.4246L36.3641 45.4909L34.3459 45.4909L34.3459 43.4246Z" fill="#FBBF00"/>
<path d="M34.3459 41.3604L36.3641 41.3604L36.3641 43.4246L34.3459 43.4246L34.3459 41.3604Z" fill="#FBBF00"/>
<path d="M34.3459 39.2941L36.3641 39.2941L36.3641 41.3604L34.3459 41.3604L34.3459 39.2941Z" fill="#FBBF00"/>
<path d="M34.3459 37.2299L36.3641 37.2299L36.3641 39.2941L34.3459 39.2941L34.3459 37.2299Z" fill="#FBBF00"/>
<path d="M34.3459 35.1636L36.3641 35.1636L36.3641 37.2299L34.3459 37.2299L34.3459 35.1636Z" fill="#FBBF00"/>
<path d="M34.3459 22.7722L36.3641 22.7722L36.3641 24.8363L34.3459 24.8363L34.3459 22.7722Z" fill="#FBBF00"/>
<path d="M34.3459 20.7058L36.3641 20.7058L36.3641 22.7722L34.3459 22.7722L34.3459 20.7058Z" fill="#FBBF00"/>
<path d="M34.3459 18.6417L36.3641 18.6417L36.3641 20.7058L34.3459 20.7058L34.3459 18.6417Z" fill="#FBBF00"/>
<path d="M34.3459 16.5754L36.3641 16.5754L36.3641 18.6417L34.3459 18.6417L34.3459 16.5754Z" fill="#FBBF00"/>
<path d="M34.3459 14.5112L36.3641 14.5112L36.3641 16.5754L34.3459 16.5754L34.3459 14.5112Z" fill="#FBBF00"/>
<path d="M34.3459 12.4449L36.3641 12.4449L36.3641 14.5112L34.3459 14.5112L34.3459 12.4449Z" fill="#FBBF00"/>
<path d="M34.3459 10.3807L36.3641 10.3807L36.3641 12.4449L34.3459 12.4449L34.3459 10.3807Z" fill="#FBBF00"/>
<path d="M34.3459 8.3144L36.3641 8.3144L36.3641 10.3807L34.3459 10.3807L34.3459 8.3144Z" fill="#FBBF00"/>
<path d="M34.3459 6.25023L36.3641 6.25023L36.3641 8.3144L34.3459 8.3144L34.3459 6.25023Z" fill="#FBBF00"/>
<path d="M34.3459 4.18392L36.3641 4.18392L36.3641 6.25023L34.3459 6.25023L34.3459 4.18392Z" fill="#FBBF00"/>
<path d="M34.3459 2.11975L36.3641 2.11975L36.3641 4.18392L34.3459 4.18392L34.3459 2.11975Z" fill="#FBBF00"/>
<path d="M36.3642 55.816L38.3803 55.816L38.3803 57.8823L36.3642 57.8823L36.3642 55.816Z" fill="#FBBF00"/>
<path d="M36.3642 53.7518L38.3803 53.7518L38.3803 55.816L36.3642 55.816L36.3642 53.7518Z" fill="#FBBF00"/>
<path d="M36.3642 51.6855L38.3803 51.6855L38.3803 53.7518L36.3642 53.7518L36.3642 51.6855Z" fill="#FBBF00"/>
<path d="M36.3642 49.6214L38.3803 49.6214L38.3803 51.6855L36.3642 51.6855L36.3642 49.6214Z" fill="#FBBF00"/>
<path d="M36.3641 47.5551L38.3803 47.5551L38.3803 49.6214L36.3642 49.6214L36.3641 47.5551Z" fill="#FBBF00"/>
<path d="M36.3641 45.4909L38.3803 45.4909L38.3803 47.5551L36.3641 47.5551L36.3641 45.4909Z" fill="#FBBF00"/>
<path d="M36.3641 43.4246L38.3803 43.4246L38.3803 45.4909L36.3641 45.4909L36.3641 43.4246Z" fill="#FBBF00"/>
<path d="M36.3641 41.3604L38.3803 41.3604L38.3803 43.4246L36.3641 43.4246L36.3641 41.3604Z" fill="#FBBF00"/>
<path d="M36.3641 39.2941L38.3803 39.2941L38.3803 41.3604L36.3641 41.3604L36.3641 39.2941Z" fill="#FBBF00"/>
<path d="M36.3641 37.2299L38.3803 37.2299L38.3803 39.2941L36.3641 39.2941L36.3641 37.2299Z" fill="#FBBF00"/>
<path d="M36.3641 35.1636L38.3803 35.1636L38.3803 37.2299L36.3641 37.2299L36.3641 35.1636Z" fill="#FBBF00"/>
<path d="M36.3641 22.7722L38.3803 22.7722L38.3803 24.8363L36.3641 24.8363L36.3641 22.7722Z" fill="#FBBF00"/>
<path d="M36.3641 20.7058L38.3803 20.7058L38.3803 22.7722L36.3641 22.7722L36.3641 20.7058Z" fill="#FBBF00"/>
<path d="M36.3641 18.6417L38.3803 18.6417L38.3803 20.7058L36.3641 20.7058L36.3641 18.6417Z" fill="#FBBF00"/>
<path d="M36.3641 16.5754L38.3803 16.5754L38.3803 18.6417L36.3641 18.6417L36.3641 16.5754Z" fill="#FBBF00"/>
<path d="M36.3641 14.5112L38.3803 14.5112L38.3803 16.5754L36.3641 16.5754L36.3641 14.5112Z" fill="#FBBF00"/>
<path d="M36.3641 12.4449L38.3803 12.4449L38.3803 14.5112L36.3641 14.5112L36.3641 12.4449Z" fill="#FBBF00"/>
<path d="M36.3641 10.3807L38.3803 10.3807L38.3803 12.4449L36.3641 12.4449L36.3641 10.3807Z" fill="#FBBF00"/>
<path d="M36.3641 8.3144L38.3803 8.3144L38.3803 10.3807L36.3641 10.3807L36.3641 8.3144Z" fill="#FBBF00"/>
<path d="M36.3641 6.25023L38.3803 6.25023L38.3803 8.3144L36.3641 8.3144L36.3641 6.25023Z" fill="#FBBF00"/>
<path d="M36.3641 4.18392L38.3803 4.18392L38.3803 6.25023L36.3641 6.25023L36.3641 4.18392Z" fill="#FBBF00"/>
<path d="M36.3641 2.11975L38.3803 2.11975L38.3803 4.18392L36.3641 4.18392L36.3641 2.11975Z" fill="#FBBF00"/>
<path d="M38.3803 53.7518L40.3986 53.7518L40.3986 55.816L38.3803 55.816L38.3803 53.7518Z" fill="#FBBF00"/>
<path d="M38.3803 51.6855L40.3986 51.6855L40.3986 53.7518L38.3803 53.7518L38.3803 51.6855Z" fill="#FBBF00"/>
<path d="M38.3803 49.6214L40.3986 49.6214L40.3986 51.6855L38.3803 51.6855L38.3803 49.6214Z" fill="#FBBF00"/>
<path d="M38.3803 47.5551L40.3986 47.5551L40.3986 49.6214L38.3803 49.6214L38.3803 47.5551Z" fill="#FBBF00"/>
<path d="M38.3803 45.4909L40.3986 45.4909L40.3986 47.5551L38.3803 47.5551L38.3803 45.4909Z" fill="#FBBF00"/>
<path d="M38.3803 43.4246L40.3986 43.4246L40.3986 45.4909L38.3803 45.4909L38.3803 43.4246Z" fill="#FBBF00"/>
<path d="M38.3803 41.3604L40.3986 41.3604L40.3986 43.4246L38.3803 43.4246L38.3803 41.3604Z" fill="#FBBF00"/>
<path d="M38.3803 39.2941L40.3986 39.2941L40.3986 41.3604L38.3803 41.3604L38.3803 39.2941Z" fill="#FBBF00"/>
<path d="M38.3803 37.2299L40.3986 37.2299L40.3986 39.2941L38.3803 39.2941L38.3803 37.2299Z" fill="#FBBF00"/>
<path d="M38.3803 35.1636L40.3986 35.1636L40.3986 37.2299L38.3803 37.2299L38.3803 35.1636Z" fill="#FBBF00"/>
<path d="M38.3803 22.7722L40.3986 22.7722L40.3986 24.8363L38.3803 24.8363L38.3803 22.7722Z" fill="#FBBF00"/>
<path d="M38.3803 20.7058L40.3986 20.7058L40.3986 22.7722L38.3803 22.7722L38.3803 20.7058Z" fill="#FBBF00"/>
<path d="M38.3803 18.6417L40.3986 18.6417L40.3986 20.7058L38.3803 20.7058L38.3803 18.6417Z" fill="#FBBF00"/>
<path d="M38.3803 16.5754L40.3986 16.5754L40.3986 18.6417L38.3803 18.6417L38.3803 16.5754Z" fill="#FBBF00"/>
<path d="M38.3803 14.5112L40.3986 14.5112L40.3986 16.5754L38.3803 16.5754L38.3803 14.5112Z" fill="#FBBF00"/>
<path d="M38.3803 12.4449L40.3986 12.4449L40.3986 14.5112L38.3803 14.5112L38.3803 12.4449Z" fill="#FBBF00"/>
<path d="M38.3803 10.3807L40.3986 10.3807L40.3986 12.4449L38.3803 12.4449L38.3803 10.3807Z" fill="#FBBF00"/>
<path d="M38.3803 8.3144L40.3986 8.3144L40.3986 10.3807L38.3803 10.3807L38.3803 8.3144Z" fill="#FBBF00"/>
<path d="M38.3803 6.25023L40.3986 6.25023L40.3986 8.3144L38.3803 8.3144L38.3803 6.25023Z" fill="#FBBF00"/>
<path d="M38.3803 4.18392L40.3986 4.18392L40.3986 6.25023L38.3803 6.25023L38.3803 4.18392Z" fill="#FBBF00"/>
<path d="M40.3986 53.7518L42.4147 53.7518L42.4147 55.816L40.3986 55.816L40.3986 53.7518Z" fill="#FBBF00"/>
<path d="M40.3986 51.6855L42.4147 51.6855L42.4147 53.7518L40.3986 53.7518L40.3986 51.6855Z" fill="#FBBF00"/>
<path d="M40.3986 49.6214L42.4147 49.6214L42.4147 51.6855L40.3986 51.6855L40.3986 49.6214Z" fill="#FBBF00"/>
<path d="M40.3986 47.5551L42.4147 47.5551L42.4147 49.6214L40.3986 49.6214L40.3986 47.5551Z" fill="#FBBF00"/>
<path d="M40.3986 45.4909L42.4147 45.4909L42.4147 47.5551L40.3986 47.5551L40.3986 45.4909Z" fill="#FBBF00"/>
<path d="M40.3986 43.4246L42.4147 43.4246L42.4147 45.4909L40.3986 45.4909L40.3986 43.4246Z" fill="#FBBF00"/>
<path d="M40.3986 41.3604L42.4147 41.3604L42.4147 43.4246L40.3986 43.4246L40.3986 41.3604Z" fill="#FBBF00"/>
<path d="M40.3986 39.2941L42.4147 39.2941L42.4147 41.3604L40.3986 41.3604L40.3986 39.2941Z" fill="#FBBF00"/>
<path d="M40.3986 37.2299L42.4147 37.2299L42.4147 39.2941L40.3986 39.2941L40.3986 37.2299Z" fill="#FBBF00"/>
<path d="M40.3986 20.7058L42.4147 20.7058L42.4147 22.7722L40.3986 22.7722L40.3986 20.7058Z" fill="#FBBF00"/>
<path d="M40.3986 18.6417L42.4147 18.6417L42.4147 20.7058L40.3986 20.7058L40.3986 18.6417Z" fill="#FBBF00"/>
<path d="M40.3986 16.5754L42.4147 16.5754L42.4147 18.6417L40.3986 18.6417L40.3986 16.5754Z" fill="#FBBF00"/>
<path d="M40.3986 14.5112L42.4147 14.5112L42.4147 16.5754L40.3986 16.5754L40.3986 14.5112Z" fill="#FBBF00"/>
<path d="M40.3986 12.4449L42.4147 12.4449L42.4147 14.5112L40.3986 14.5112L40.3986 12.4449Z" fill="#FBBF00"/>
<path d="M40.3986 10.3807L42.4147 10.3807L42.4147 12.4449L40.3986 12.4449L40.3986 10.3807Z" fill="#FBBF00"/>
<path d="M40.3986 8.3144L42.4147 8.3144L42.4147 10.3807L40.3986 10.3807L40.3986 8.3144Z" fill="#FBBF00"/>
<path d="M40.3986 6.25023L42.4147 6.25023L42.4147 8.3144L40.3986 8.3144L40.3986 6.25023Z" fill="#FBBF00"/>
<path d="M40.3986 4.18392L42.4147 4.18392L42.4147 6.25023L40.3986 6.25023L40.3986 4.18392Z" fill="#FBBF00"/>
<path d="M42.4147 51.6855L44.433 51.6855L44.433 53.7518L42.4147 53.7518L42.4147 51.6855Z" fill="#FBBF00"/>
<path d="M42.4147 49.6214L44.433 49.6214L44.433 51.6855L42.4147 51.6855L42.4147 49.6214Z" fill="#FBBF00"/>
<path d="M42.4147 47.5551L44.433 47.5551L44.433 49.6214L42.4147 49.6214L42.4147 47.5551Z" fill="#FBBF00"/>
<path d="M42.4147 45.4909L44.433 45.4909L44.433 47.5551L42.4147 47.5551L42.4147 45.4909Z" fill="#FBBF00"/>
<path d="M42.4147 43.4246L44.433 43.4246L44.433 45.4909L42.4147 45.4909L42.4147 43.4246Z" fill="#FBBF00"/>
<path d="M42.4147 41.3604L44.433 41.3604L44.433 43.4246L42.4147 43.4246L42.4147 41.3604Z" fill="#FBBF00"/>
<path d="M42.4147 39.2941L44.433 39.2941L44.433 41.3604L42.4147 41.3604L42.4147 39.2941Z" fill="#FBBF00"/>
<path d="M42.4147 37.2299L44.433 37.2299L44.433 39.2941L42.4147 39.2941L42.4147 37.2299Z" fill="#FBBF00"/>
<path d="M42.4147 20.7058L44.433 20.7058L44.433 22.7722L42.4147 22.7722L42.4147 20.7058Z" fill="#FBBF00"/>
<path d="M42.4147 18.6417L44.433 18.6417L44.433 20.7058L42.4147 20.7058L42.4147 18.6417Z" fill="#FBBF00"/>
<path d="M42.4147 16.5754L44.433 16.5754L44.433 18.6417L42.4147 18.6417L42.4147 16.5754Z" fill="#FBBF00"/>
<path d="M42.4147 14.5112L44.433 14.5112L44.433 16.5754L42.4147 16.5754L42.4147 14.5112Z" fill="#FBBF00"/>
<path d="M42.4147 12.4449L44.433 12.4449L44.433 14.5112L42.4147 14.5112L42.4147 12.4449Z" fill="#FBBF00"/>
<path d="M42.4147 10.3807L44.433 10.3807L44.433 12.4449L42.4147 12.4449L42.4147 10.3807Z" fill="#FBBF00"/>
<path d="M42.4147 8.3144L44.433 8.3144L44.433 10.3807L42.4147 10.3807L42.4147 8.3144Z" fill="#FBBF00"/>
<path d="M42.4147 6.25023L44.433 6.25023L44.433 8.3144L42.4147 8.3144L42.4147 6.25023Z" fill="#FBBF00"/>
<path d="M42.4147 4.18392L44.433 4.18392L44.433 6.25023L42.4147 6.25023L42.4147 4.18392Z" fill="#FBBF00"/>
<path d="M44.433 51.6855L46.4492 51.6855L46.4492 53.7518L44.433 53.7518L44.433 51.6855Z" fill="#FBBF00"/>
<path d="M44.433 49.6214L46.4492 49.6214L46.4492 51.6855L44.433 51.6855L44.433 49.6214Z" fill="#FBBF00"/>
<path d="M44.433 47.5551L46.4492 47.5551L46.4492 49.6214L44.433 49.6214L44.433 47.5551Z" fill="#FBBF00"/>
<path d="M44.433 45.4909L46.4492 45.4909L46.4492 47.5551L44.433 47.5551L44.433 45.4909Z" fill="#FBBF00"/>
<path d="M44.433 43.4246L46.4492 43.4246L46.4492 45.4909L44.433 45.4909L44.433 43.4246Z" fill="#FBBF00"/>
<path d="M44.433 41.3604L46.4492 41.3604L46.4492 43.4246L44.433 43.4246L44.433 41.3604Z" fill="#FBBF00"/>
<path d="M44.433 39.2941L46.4492 39.2941L46.4492 41.3604L44.433 41.3604L44.433 39.2941Z" fill="#FBBF00"/>
<path d="M44.433 37.2299L46.4492 37.2299L46.4492 39.2941L44.433 39.2941L44.433 37.2299Z" fill="#FBBF00"/>
<path d="M44.433 20.7058L46.4492 20.7058L46.4492 22.7722L44.433 22.7722L44.433 20.7058Z" fill="#FBBF00"/>
<path d="M44.433 18.6417L46.4492 18.6417L46.4492 20.7058L44.433 20.7058L44.433 18.6417Z" fill="#FBBF00"/>
<path d="M44.433 16.5754L46.4492 16.5754L46.4492 18.6417L44.433 18.6417L44.433 16.5754Z" fill="#FBBF00"/>
<path d="M44.433 14.5112L46.4492 14.5112L46.4492 16.5754L44.433 16.5754L44.433 14.5112Z" fill="#FBBF00"/>
<path d="M44.433 12.4449L46.4492 12.4449L46.4492 14.5112L44.433 14.5112L44.433 12.4449Z" fill="#FBBF00"/>
<path d="M44.433 10.3807L46.4492 10.3807L46.4492 12.4449L44.433 12.4449L44.433 10.3807Z" fill="#FBBF00"/>
<path d="M44.433 8.3144L46.4492 8.3144L46.4492 10.3807L44.433 10.3807L44.433 8.3144Z" fill="#FBBF00"/>
<path d="M44.433 6.25023L46.4492 6.25023L46.4492 8.3144L44.433 8.3144L44.433 6.25023Z" fill="#FBBF00"/>
<path d="M46.4492 49.6214L48.4674 49.6214L48.4674 51.6855L46.4492 51.6855L46.4492 49.6214Z" fill="#FBBF00"/>
<path d="M46.4492 47.5551L48.4674 47.5551L48.4674 49.6214L46.4492 49.6214L46.4492 47.5551Z" fill="#FBBF00"/>
<path d="M46.4492 45.4909L48.4674 45.4909L48.4674 47.5551L46.4492 47.5551L46.4492 45.4909Z" fill="#FBBF00"/>
<path d="M46.4492 43.4246L48.4674 43.4246L48.4674 45.4909L46.4492 45.4909L46.4492 43.4246Z" fill="#FBBF00"/>
<path d="M46.4492 41.3604L48.4674 41.3604L48.4674 43.4246L46.4492 43.4246L46.4492 41.3604Z" fill="#FBBF00"/>
<path d="M46.4492 39.2941L48.4674 39.2941L48.4674 41.3604L46.4492 41.3604L46.4492 39.2941Z" fill="#FBBF00"/>
<path d="M46.4492 18.6417L48.4674 18.6417L48.4674 20.7058L46.4492 20.7058L46.4492 18.6417Z" fill="#FBBF00"/>
<path d="M46.4492 16.5754L48.4674 16.5754L48.4674 18.6417L46.4492 18.6417L46.4492 16.5754Z" fill="#FBBF00"/>
<path d="M46.4492 14.5112L48.4674 14.5112L48.4674 16.5754L46.4492 16.5754L46.4492 14.5112Z" fill="#FBBF00"/>
<path d="M46.4492 12.4449L48.4674 12.4449L48.4674 14.5112L46.4492 14.5112L46.4492 12.4449Z" fill="#FBBF00"/>
<path d="M46.4492 10.3807L48.4674 10.3807L48.4674 12.4449L46.4492 12.4449L46.4492 10.3807Z" fill="#FBBF00"/>
<path d="M46.4492 8.3144L48.4674 8.3144L48.4674 10.3807L46.4492 10.3807L46.4492 8.3144Z" fill="#FBBF00"/>
<path d="M48.4674 47.5551L50.4836 47.5551L50.4836 49.6214L48.4674 49.6214L48.4674 47.5551Z" fill="#FBBF00"/>
<path d="M48.4674 45.4909L50.4836 45.4909L50.4836 47.5551L48.4674 47.5551L48.4674 45.4909Z" fill="#FBBF00"/>
<path d="M48.4674 43.4246L50.4836 43.4246L50.4836 45.4909L48.4674 45.4909L48.4674 43.4246Z" fill="#FBBF00"/>
<path d="M48.4674 41.3604L50.4836 41.3604L50.4836 43.4246L48.4674 43.4246L48.4674 41.3604Z" fill="#FBBF00"/>
<path d="M48.4674 39.2941L50.4836 39.2941L50.4836 41.3604L48.4674 41.3604L48.4674 39.2941Z" fill="#FBBF00"/>
<path d="M48.4674 18.6417L50.4836 18.6417L50.4836 20.7058L48.4674 20.7058L48.4674 18.6417Z" fill="#FBBF00"/>
<path d="M48.4674 16.5754L50.4836 16.5754L50.4836 18.6417L48.4674 18.6417L48.4674 16.5754Z" fill="#FBBF00"/>
<path d="M48.4674 14.5112L50.4836 14.5112L50.4836 16.5754L48.4674 16.5754L48.4674 14.5112Z" fill="#FBBF00"/>
<path d="M48.4674 12.4449L50.4836 12.4449L50.4836 14.5112L48.4674 14.5112L48.4674 12.4449Z" fill="#FBBF00"/>
<path d="M48.4674 10.3807L50.4836 10.3807L50.4836 12.4449L48.4674 12.4449L48.4674 10.3807Z" fill="#FBBF00"/>
<path d="M50.4836 45.4909L52.5018 45.4909L52.5018 47.555L50.4836 47.5551L50.4836 45.4909Z" fill="#FBBF00"/>
<path d="M50.4836 43.4246L52.5018 43.4246L52.5018 45.4909L50.4836 45.4909L50.4836 43.4246Z" fill="#FBBF00"/>
<path d="M50.4836 41.3604L52.5018 41.3604L52.5018 43.4246L50.4836 43.4246L50.4836 41.3604Z" fill="#FBBF00"/>
<path d="M50.4836 16.5754L52.5018 16.5754L52.5018 18.6417L50.4836 18.6417L50.4836 16.5754Z" fill="#FBBF00"/>
<path d="M50.4836 14.5112L52.5018 14.5112L52.5018 16.5754L50.4836 16.5754L50.4836 14.5112Z" fill="#FBBF00"/>
<path d="M50.4836 12.4449L52.5018 12.4449L52.5018 14.5112L50.4836 14.5112L50.4836 12.4449Z" fill="#FBBF00"/>
<path d="M52.5018 43.4246L54.518 43.4246L54.518 45.4909L52.5018 45.4909L52.5018 43.4246Z" fill="#FBBF00"/>
<path d="M52.5018 14.5112L54.518 14.5112L54.518 16.5754L52.5018 16.5754L52.5018 14.5112Z" fill="#FBBF00"/>
</svg>
