<?xml version="1.0" encoding="utf-8"?>
<!-- Generator: Adobe Illustrator 26.0.2, SVG Export Plug-In . SVG Version: 6.00 Build 0)  -->
<svg version="1.1" id="圖層_1" xmlns="http://www.w3.org/2000/svg" xmlns:xlink="http://www.w3.org/1999/xlink" x="0px" y="0px"
	 viewBox="0 0 59 60" style="enable-background:new 0 0 59 60;" xml:space="preserve">
<path d="M3.3,37.2h2v2.1h-2V37.2z"/>
<path d="M3.3,35.2h2v2.1h-2V35.2z"/>
<path d="M3.3,33.1h2v2.1h-2V33.1z"/>
<path d="M3.3,31h2l0,2.1h-2V31z"/>
<path d="M3.3,29h2V31h-2V29z"/>
<path d="M3.3,26.9h2V29h-2V26.9z"/>
<path d="M3.3,24.8h2v2.1h-2V24.8z"/>
<path d="M3.3,22.8h2v2.1h-2V22.8z"/>
<path d="M3.3,20.7h2v2.1h-2V20.7z"/>
<path d="M5.3,41.4h2v2.1h-2V41.4z"/>
<path d="M5.3,39.3h2v2.1h-2V39.3z"/>
<path d="M5.3,37.2h2v2.1h-2V37.2z"/>
<path d="M5.3,35.2h2v2.1h-2V35.2z"/>
<path d="M5.3,33.1h2v2.1h-2V33.1z"/>
<path d="M5.3,31h2v2.1h-2L5.3,31z"/>
<path d="M5.3,29h2V31h-2V29z"/>
<path d="M5.3,26.9h2V29h-2V26.9z"/>
<path d="M5.3,24.8h2v2.1h-2V24.8z"/>
<path d="M5.3,22.8h2v2.1h-2V22.8z"/>
<path d="M5.3,20.7h2v2.1h-2V20.7z"/>
<path d="M5.3,18.6h2v2.1h-2V18.6z"/>
<path d="M5.3,16.6h2v2.1h-2V16.6z"/>
<path d="M7.3,43.4h2v2.1h-2V43.4z"/>
<path d="M7.3,41.4h2v2.1h-2V41.4z"/>
<path d="M7.3,39.3h2v2.1h-2V39.3z"/>
<path d="M7.3,37.2h2v2.1h-2V37.2z"/>
<path d="M7.3,35.2h2v2.1h-2V35.2z"/>
<path d="M7.3,33.1h2v2.1h-2V33.1z"/>
<path d="M7.3,31h2v2.1h-2V31z"/>
<path d="M7.3,29h2V31h-2V29z"/>
<path d="M7.3,26.9h2V29h-2V26.9z"/>
<path d="M7.3,24.8h2v2.1h-2V24.8z"/>
<path d="M7.3,22.8h2v2.1h-2V22.8z"/>
<path d="M7.3,20.7h2v2.1h-2V20.7z"/>
<path d="M7.3,18.6h2v2.1h-2V18.6z"/>
<path d="M7.3,16.6h2v2.1h-2V16.6z"/>
<path d="M7.3,14.5h2v2.1h-2V14.5z"/>
<path d="M9.3,45.5h2v2.1h-2V45.5z"/>
<path d="M9.3,43.4h2v2.1h-2V43.4z"/>
<path d="M9.3,41.4h2v2.1h-2V41.4z"/>
<path d="M9.3,39.3h2v2.1h-2V39.3z"/>
<path d="M9.3,37.2h2v2.1h-2V37.2z"/>
<path d="M9.3,35.2h2v2.1h-2V35.2z"/>
<path d="M9.3,33.1h2v2.1h-2V33.1z"/>
<path d="M9.3,31h2v2.1h-2V31z"/>
<path d="M9.3,29h2V31h-2V29z"/>
<path d="M9.3,26.9h2V29h-2V26.9z"/>
<path d="M9.3,24.8h2v2.1h-2V24.8z"/>
<path d="M9.3,22.8h2v2.1h-2V22.8z"/>
<path d="M9.3,20.7h2v2.1h-2V20.7z"/>
<path d="M9.3,18.6h2v2.1h-2V18.6z"/>
<path d="M9.3,16.6h2v2.1h-2V16.6z"/>
<path d="M9.3,14.5h2v2.1h-2V14.5z"/>
<path d="M9.3,12.4h2v2.1h-2V12.4z"/>
<path d="M11.3,47.6h2v2.1h-2V47.6z"/>
<path d="M11.3,45.5h2v2.1h-2V45.5z"/>
<path d="M11.3,43.4h2v2.1h-2V43.4z"/>
<path d="M11.3,41.4h2v2.1h-2V41.4z"/>
<path d="M11.3,39.3h2v2.1h-2V39.3z"/>
<path d="M11.3,37.2h2v2.1h-2V37.2z"/>
<path d="M11.3,35.2h2v2.1h-2V35.2z"/>
<path d="M11.3,33.1h2v2.1h-2V33.1z"/>
<path d="M11.3,31h2v2.1h-2V31z"/>
<path d="M11.3,29h2V31h-2V29z"/>
<path d="M11.3,26.9h2V29h-2V26.9z"/>
<path d="M11.3,24.8h2v2.1h-2V24.8z"/>
<path d="M11.3,22.8h2v2.1h-2V22.8z"/>
<path d="M11.3,20.7h2v2.1h-2V20.7z"/>
<path d="M11.3,18.6h2v2.1h-2V18.6z"/>
<path d="M11.3,16.6h2v2.1h-2V16.6z"/>
<path d="M11.3,14.5h2v2.1h-2V14.5z"/>
<path d="M11.3,12.4h2v2.1h-2V12.4z"/>
<path d="M11.3,10.4h2v2.1h-2V10.4z"/>
<path d="M13.4,49.6h2v2.1h-2V49.6z"/>
<path d="M13.4,47.6h2v2.1h-2V47.6z"/>
<path d="M13.4,45.5h2v2.1h-2V45.5z"/>
<path d="M13.4,43.4h2v2.1h-2V43.4z"/>
<path d="M13.4,41.4h2v2.1h-2V41.4z"/>
<path d="M13.4,39.3h2v2.1h-2V39.3z"/>
<path d="M13.4,37.2h2v2.1h-2V37.2z"/>
<path d="M13.4,35.2h2v2.1h-2V35.2z"/>
<path d="M13.4,33.1h2v2.1h-2V33.1z"/>
<path d="M13.4,31h2v2.1h-2V31z"/>
<path d="M13.4,29h2V31h-2V29z"/>
<path d="M13.4,26.9h2V29h-2V26.9z"/>
<path d="M13.4,24.8h2v2.1h-2V24.8z"/>
<path d="M13.4,22.8h2v2.1h-2V22.8z"/>
<path d="M13.4,20.7h2v2.1h-2V20.7z"/>
<path d="M13.4,18.6h2v2.1h-2V18.6z"/>
<path d="M13.4,16.6h2v2.1h-2V16.6z"/>
<path d="M13.4,14.5h2v2.1h-2V14.5z"/>
<path d="M13.4,12.4h2v2.1h-2V12.4z"/>
<path d="M13.4,10.4h2v2.1h-2V10.4z"/>
<path d="M13.4,8.3h2v2.1h-2V8.3z"/>
<path d="M15.4,51.7h2v2.1h-2V51.7z"/>
<path d="M15.4,49.6h2v2.1h-2V49.6z"/>
<path d="M15.4,47.6h2v2.1h-2V47.6z"/>
<path d="M15.4,45.5h2v2.1h-2V45.5z"/>
<path d="M15.4,43.4h2v2.1h-2V43.4z"/>
<path d="M15.4,41.4h2v2.1h-2V41.4z"/>
<path d="M15.4,39.3h2v2.1h-2V39.3z"/>
<path d="M15.4,37.2h2v2.1h-2V37.2z"/>
<path d="M15.4,35.2h2v2.1h-2V35.2z"/>
<path d="M15.4,33.1h2v2.1h-2V33.1z"/>
<path d="M15.4,31h2v2.1h-2V31z"/>
<path d="M15.4,29h2V31h-2V29z"/>
<path d="M15.4,26.9h2V29h-2V26.9z"/>
<path d="M15.4,24.8h2v2.1h-2V24.8z"/>
<path d="M15.4,22.8h2v2.1h-2V22.8z"/>
<path d="M15.4,20.7h2v2.1h-2V20.7z"/>
<path d="M15.4,18.6h2v2.1h-2V18.6z"/>
<path d="M15.4,16.6h2v2.1h-2V16.6z"/>
<path d="M15.4,14.5h2v2.1h-2V14.5z"/>
<path d="M15.4,12.4h2v2.1h-2V12.4z"/>
<path d="M15.4,10.4h2v2.1h-2V10.4z"/>
<path d="M15.4,8.3h2v2.1h-2V8.3z"/>
<path d="M15.4,6.2h2v2.1h-2V6.2z"/>
<path d="M17.4,53.8h2v2.1h-2V53.8z"/>
<path d="M17.4,51.7h2v2.1h-2V51.7z"/>
<path d="M17.4,49.6h2v2.1h-2V49.6z"/>
<path d="M17.4,47.6h2v2.1h-2V47.6z"/>
<path d="M17.4,45.5h2v2.1h-2V45.5z"/>
<path d="M17.4,43.4h2v2.1h-2V43.4z"/>
<path d="M17.4,41.4h2v2.1h-2V41.4z"/>
<path d="M17.4,39.3h2v2.1h-2V39.3z"/>
<path d="M17.4,37.2h2v2.1h-2V37.2z"/>
<path d="M17.4,35.2h2v2.1h-2V35.2z"/>
<path d="M17.4,33.1h2v2.1h-2V33.1z"/>
<path d="M17.4,31h2v2.1h-2V31z"/>
<path d="M17.4,29h2V31h-2V29z"/>
<path d="M17.4,26.9h2V29h-2V26.9z"/>
<path d="M17.4,24.8h2v2.1h-2V24.8z"/>
<path d="M17.4,22.8h2v2.1h-2V22.8z"/>
<path d="M17.4,20.7h2v2.1h-2V20.7z"/>
<path d="M17.4,18.6h2v2.1h-2V18.6z"/>
<path d="M17.4,16.6h2v2.1h-2V16.6z"/>
<path d="M17.4,14.5h2v2.1h-2V14.5z"/>
<path d="M17.4,12.4h2v2.1h-2V12.4z"/>
<path d="M17.4,10.4h2v2.1h-2V10.4z"/>
<path d="M17.4,8.3h2v2.1h-2V8.3z"/>
<path d="M17.4,6.2h2v2.1h-2V6.2z"/>
<path d="M19.4,53.8h2v2.1h-2V53.8z"/>
<path d="M19.4,51.7h2v2.1h-2V51.7z"/>
<path d="M19.4,49.6h2v2.1h-2V49.6z"/>
<path d="M19.4,47.6h2v2.1h-2V47.6z"/>
<path d="M19.4,45.5h2v2.1h-2V45.5z"/>
<path d="M19.4,43.4h2v2.1h-2V43.4z"/>
<path d="M19.4,41.4h2v2.1h-2V41.4z"/>
<path d="M19.4,39.3h2v2.1h-2V39.3z"/>
<path d="M19.4,37.2h2v2.1h-2V37.2z"/>
<path d="M19.4,35.2h2v2.1h-2V35.2z"/>
<path d="M19.4,33.1h2v2.1h-2V33.1z"/>
<path d="M19.4,31h2v2.1h-2V31z"/>
<path d="M19.4,29h2V31h-2V29z"/>
<path d="M19.4,26.9h2V29h-2V26.9z"/>
<path d="M19.4,24.8h2v2.1h-2V24.8z"/>
<path d="M19.4,22.8h2v2.1h-2V22.8z"/>
<path d="M19.4,20.7h2v2.1h-2V20.7z"/>
<path d="M19.4,18.6h2v2.1h-2V18.6z"/>
<path d="M19.4,16.6h2v2.1h-2V16.6z"/>
<path d="M19.4,14.5h2v2.1h-2V14.5z"/>
<path d="M19.4,12.4h2v2.1h-2V12.4z"/>
<path d="M19.4,10.4h2v2.1h-2V10.4z"/>
<path d="M19.4,8.3h2v2.1h-2V8.3z"/>
<path d="M19.4,6.2h2v2.1h-2V6.2z"/>
<path d="M19.4,4.2h2v2.1h-2V4.2z"/>
<path d="M21.4,55.8h2v2.1h-2V55.8z"/>
<path d="M21.4,53.8h2v2.1h-2V53.8z"/>
<path d="M21.4,51.7h2v2.1h-2V51.7z"/>
<path d="M21.4,49.6h2v2.1h-2V49.6z"/>
<path d="M21.4,47.6h2v2.1h-2V47.6z"/>
<path d="M21.4,45.5h2v2.1h-2V45.5z"/>
<path d="M21.4,43.4h2v2.1h-2V43.4z"/>
<path d="M21.4,41.4h2v2.1h-2V41.4z"/>
<path d="M21.4,39.3h2v2.1h-2V39.3z"/>
<path d="M21.4,37.2h2v2.1h-2V37.2z"/>
<path d="M21.4,35.2h2v2.1h-2V35.2z"/>
<path d="M21.4,33.1h2v2.1h-2V33.1z"/>
<path d="M21.4,31h2v2.1h-2V31z"/>
<path d="M21.4,29h2V31h-2V29z"/>
<path d="M21.4,26.9h2V29h-2V26.9z"/>
<path d="M21.4,24.8h2v2.1h-2V24.8z"/>
<path d="M21.4,22.8h2v2.1h-2V22.8z"/>
<path d="M21.4,20.7h2v2.1h-2V20.7z"/>
<path d="M21.4,18.6h2v2.1h-2V18.6z"/>
<path d="M21.4,16.6h2v2.1h-2V16.6z"/>
<path d="M21.4,14.5h2v2.1h-2V14.5z"/>
<path d="M21.4,12.4h2v2.1h-2V12.4z"/>
<path d="M21.4,10.4h2v2.1h-2V10.4z"/>
<path d="M21.4,8.3h2v2.1h-2V8.3z"/>
<path d="M21.4,6.2h2v2.1h-2V6.2z"/>
<path d="M21.4,4.2h2v2.1h-2V4.2z"/>
<path d="M21.4,2.1h2v2.1h-2V2.1z"/>
<path d="M23.4,55.8h2v2.1h-2V55.8z"/>
<path d="M23.4,53.8h2v2.1h-2V53.8z"/>
<path d="M23.4,51.7h2v2.1h-2V51.7z"/>
<path d="M23.4,49.6h2v2.1h-2V49.6z"/>
<path d="M23.4,47.6h2v2.1h-2V47.6z"/>
<path d="M23.4,45.5h2v2.1h-2V45.5z"/>
<path d="M23.4,43.4h2v2.1h-2V43.4z"/>
<path d="M23.4,41.4h2v2.1h-2V41.4z"/>
<path d="M23.4,39.3h2v2.1h-2V39.3z"/>
<path d="M23.4,37.2h2v2.1h-2V37.2z"/>
<path d="M23.4,35.2h2v2.1h-2V35.2z"/>
<path d="M23.4,33.1h2v2.1h-2V33.1z"/>
<path d="M23.4,31h2v2.1h-2V31z"/>
<path d="M23.4,29h2V31h-2V29z"/>
<path d="M23.4,26.9h2V29h-2V26.9z"/>
<path d="M23.4,24.8h2v2.1h-2V24.8z"/>
<path d="M23.4,22.8h2v2.1h-2V22.8z"/>
<path d="M23.4,20.7h2v2.1h-2V20.7z"/>
<path d="M23.4,18.6h2v2.1h-2V18.6z"/>
<path d="M23.4,16.6h2v2.1h-2V16.6z"/>
<path d="M23.4,14.5h2v2.1h-2V14.5z"/>
<path d="M23.4,12.4h2v2.1h-2V12.4z"/>
<path d="M23.4,10.4h2v2.1h-2V10.4z"/>
<path d="M23.4,8.3h2v2.1h-2V8.3z"/>
<path d="M23.4,6.2h2v2.1h-2V6.2z"/>
<path d="M23.4,4.2h2v2.1h-2V4.2z"/>
<path d="M23.4,2.1h2v2.1h-2V2.1z"/>
<path d="M25.5,55.8h2v2.1h-2V55.8z"/>
<path d="M25.5,53.8h2v2.1h-2V53.8z"/>
<path d="M25.5,51.7h2v2.1h-2V51.7z"/>
<path d="M25.5,49.6h2v2.1h-2V49.6z"/>
<path d="M25.5,47.6h2v2.1h-2V47.6z"/>
<path d="M25.5,45.5h2v2.1h-2V45.5z"/>
<path d="M25.5,43.4h2v2.1h-2V43.4z"/>
<path d="M25.5,41.4h2v2.1h-2V41.4z"/>
<path d="M25.5,39.3h2v2.1h-2V39.3z"/>
<path d="M25.5,37.2h2v2.1h-2V37.2z"/>
<path d="M25.5,35.2h2v2.1h-2V35.2z"/>
<path d="M25.5,33.1h2v2.1h-2V33.1z"/>
<path d="M25.5,31h2v2.1h-2V31z"/>
<path d="M25.5,26.9h2V29h-2V26.9z"/>
<path d="M25.5,24.8h2v2.1h-2V24.8z"/>
<path d="M25.5,22.8h2v2.1h-2V22.8z"/>
<path d="M25.5,20.7h2v2.1h-2V20.7z"/>
<path d="M25.5,18.6h2v2.1h-2V18.6z"/>
<path d="M25.5,16.6h2v2.1h-2V16.6z"/>
<path d="M25.5,14.5h2v2.1h-2V14.5z"/>
<path d="M25.5,12.4h2v2.1h-2V12.4z"/>
<path d="M25.5,10.4h2v2.1h-2V10.4z"/>
<path d="M25.5,8.3h2v2.1h-2V8.3z"/>
<path d="M25.5,6.2h2v2.1h-2V6.2z"/>
<path d="M25.5,4.2h2v2.1h-2V4.2z"/>
<path d="M25.5,2.1h2v2.1h-2V2.1z"/>
<path d="M27.5,55.8h2v2.1h-2V55.8z"/>
<path d="M27.5,53.8h2v2.1h-2V53.8z"/>
<path d="M27.5,51.7h2v2.1h-2V51.7z"/>
<path d="M27.5,49.6h2v2.1h-2V49.6z"/>
<path d="M27.5,47.6h2v2.1h-2V47.6z"/>
<path d="M27.5,45.5h2v2.1h-2V45.5z"/>
<path d="M27.5,43.4h2v2.1h-2V43.4z"/>
<path d="M27.5,41.4h2v2.1h-2V41.4z"/>
<path d="M27.5,39.3h2v2.1h-2V39.3z"/>
<path d="M27.5,37.2h2v2.1h-2V37.2z"/>
<path d="M27.5,35.2h2v2.1h-2V35.2z"/>
<path d="M27.5,33.1h2v2.1h-2V33.1z"/>
<path d="M27.5,31h2v2.1h-2V31z"/>
<path d="M27.5,26.9h2V29h-2V26.9z"/>
<path d="M27.5,24.8h2v2.1h-2V24.8z"/>
<path d="M27.5,22.8h2v2.1h-2V22.8z"/>
<path d="M27.5,20.7h2v2.1h-2V20.7z"/>
<path d="M27.5,18.6h2v2.1h-2V18.6z"/>
<path d="M27.5,16.6h2v2.1h-2V16.6z"/>
<path d="M27.5,14.5h2v2.1h-2V14.5z"/>
<path d="M27.5,12.4h2v2.1h-2V12.4z"/>
<path d="M27.5,10.4h2v2.1h-2V10.4z"/>
<path d="M27.5,8.3h2v2.1h-2V8.3z"/>
<path d="M27.5,6.2h2v2.1h-2V6.2z"/>
<path d="M27.5,4.2h2v2.1h-2V4.2z"/>
<path d="M27.5,2.1h2v2.1h-2V2.1z"/>
<path d="M29.5,55.8h2v2.1h-2V55.8z"/>
<path d="M29.5,53.8h2v2.1h-2V53.8z"/>
<path d="M29.5,51.7h2v2.1h-2V51.7z"/>
<path d="M29.5,49.6h2v2.1h-2V49.6z"/>
<path d="M29.5,47.6h2v2.1h-2V47.6z"/>
<path d="M29.5,45.5h2v2.1h-2V45.5z"/>
<path d="M29.5,43.4h2v2.1h-2V43.4z"/>
<path d="M29.5,41.4h2v2.1h-2V41.4z"/>
<path d="M29.5,39.3h2v2.1h-2V39.3z"/>
<path d="M29.5,37.2h2v2.1h-2V37.2z"/>
<path d="M29.5,35.2h2v2.1h-2V35.2z"/>
<path d="M29.5,33.1h2v2.1h-2V33.1z"/>
<path d="M29.5,24.8h2v2.1h-2V24.8z"/>
<path d="M29.5,22.8h2v2.1h-2V22.8z"/>
<path d="M29.5,20.7h2v2.1h-2V20.7z"/>
<path d="M29.5,18.6h2v2.1h-2V18.6z"/>
<path d="M29.5,16.6h2v2.1h-2V16.6z"/>
<path d="M29.5,14.5h2v2.1h-2V14.5z"/>
<path d="M29.5,12.4h2v2.1h-2V12.4z"/>
<path d="M29.5,10.4h2v2.1h-2V10.4z"/>
<path d="M29.5,8.3h2v2.1h-2V8.3z"/>
<path d="M29.5,6.2h2v2.1h-2V6.2z"/>
<path d="M29.5,4.2h2v2.1h-2V4.2z"/>
<path d="M29.5,2.1h2v2.1h-2V2.1z"/>
<path d="M31.5,55.8h2v2.1h-2V55.8z"/>
<path d="M31.5,53.8h2v2.1h-2V53.8z"/>
<path d="M31.5,51.7h2v2.1h-2V51.7z"/>
<path d="M31.5,49.6h2v2.1h-2V49.6z"/>
<path d="M31.5,47.6h2v2.1h-2V47.6z"/>
<path d="M31.5,45.5h2v2.1h-2V45.5z"/>
<path d="M31.5,43.4h2v2.1h-2V43.4z"/>
<path d="M31.5,41.4h2v2.1h-2V41.4z"/>
<path d="M31.5,39.3h2v2.1h-2V39.3z"/>
<path d="M31.5,37.2h2v2.1h-2V37.2z"/>
<path d="M31.5,35.2h2v2.1h-2V35.2z"/>
<path d="M31.5,33.1h2v2.1h-2V33.1z"/>
<path d="M31.5,24.8h2v2.1h-2V24.8z"/>
<path d="M31.5,22.8h2v2.1h-2V22.8z"/>
<path d="M31.5,20.7h2v2.1h-2V20.7z"/>
<path d="M31.5,18.6h2v2.1h-2V18.6z"/>
<path d="M31.5,16.6h2v2.1h-2V16.6z"/>
<path d="M31.5,14.5h2v2.1h-2V14.5z"/>
<path d="M31.5,12.4h2v2.1h-2V12.4z"/>
<path d="M31.5,10.4h2v2.1h-2V10.4z"/>
<path d="M31.5,8.3h2v2.1h-2V8.3z"/>
<path d="M31.5,6.2h2v2.1h-2V6.2z"/>
<path d="M31.5,4.2h2v2.1h-2V4.2z"/>
<path d="M31.5,2.1h2v2.1h-2V2.1z"/>
<path d="M33.5,55.8h2v2.1h-2V55.8z"/>
<path d="M33.5,53.8h2v2.1h-2V53.8z"/>
<path d="M33.5,51.7h2v2.1h-2V51.7z"/>
<path d="M33.5,49.6h2v2.1h-2V49.6z"/>
<path d="M33.5,47.6h2l0,2.1h-2V47.6z"/>
<path d="M33.5,45.5h2v2.1h-2V45.5z"/>
<path d="M33.5,43.4h2v2.1h-2V43.4z"/>
<path d="M33.5,41.4h2v2.1h-2V41.4z"/>
<path d="M33.5,39.3h2v2.1h-2V39.3z"/>
<path d="M33.5,37.2h2v2.1h-2V37.2z"/>
<path d="M33.5,35.2h2v2.1h-2V35.2z"/>
<path d="M33.5,22.8h2v2.1h-2V22.8z"/>
<path d="M33.5,20.7h2v2.1h-2V20.7z"/>
<path d="M33.5,18.6h2v2.1h-2V18.6z"/>
<path d="M33.5,16.6h2v2.1h-2V16.6z"/>
<path d="M33.5,14.5h2v2.1h-2V14.5z"/>
<path d="M33.5,12.4h2v2.1h-2V12.4z"/>
<path d="M33.5,10.4h2v2.1h-2V10.4z"/>
<path d="M33.5,8.3h2v2.1h-2V8.3z"/>
<path d="M33.5,6.2h2v2.1h-2V6.2z"/>
<path d="M33.5,4.2h2v2.1h-2V4.2z"/>
<path d="M33.5,2.1h2v2.1h-2V2.1z"/>
<path d="M35.6,55.8h2v2.1h-2V55.8z"/>
<path d="M35.6,53.8h2v2.1h-2V53.8z"/>
<path d="M35.6,51.7h2v2.1h-2V51.7z"/>
<path d="M35.6,49.6h2v2.1h-2V49.6z"/>
<path d="M35.6,47.6h2v2.1h-2L35.6,47.6z"/>
<path d="M35.6,45.5h2v2.1h-2V45.5z"/>
<path d="M35.6,43.4h2v2.1h-2V43.4z"/>
<path d="M35.6,41.4h2v2.1h-2V41.4z"/>
<path d="M35.6,39.3h2v2.1h-2V39.3z"/>
<path d="M35.6,37.2h2v2.1h-2V37.2z"/>
<path d="M35.6,35.2h2v2.1h-2V35.2z"/>
<path d="M35.6,22.8h2v2.1h-2V22.8z"/>
<path d="M35.6,20.7h2v2.1h-2V20.7z"/>
<path d="M35.6,18.6h2v2.1h-2V18.6z"/>
<path d="M35.6,16.6h2v2.1h-2V16.6z"/>
<path d="M35.6,14.5h2v2.1h-2V14.5z"/>
<path d="M35.6,12.4h2v2.1h-2V12.4z"/>
<path d="M35.6,10.4h2v2.1h-2V10.4z"/>
<path d="M35.6,8.3h2v2.1h-2V8.3z"/>
<path d="M35.6,6.2h2v2.1h-2V6.2z"/>
<path d="M35.6,4.2h2v2.1h-2V4.2z"/>
<path d="M35.6,2.1h2v2.1h-2V2.1z"/>
<path d="M37.6,53.8h2v2.1h-2V53.8z"/>
<path d="M37.6,51.7h2v2.1h-2V51.7z"/>
<path d="M37.6,49.6h2v2.1h-2V49.6z"/>
<path d="M37.6,47.6h2v2.1h-2V47.6z"/>
<path d="M37.6,45.5h2v2.1h-2V45.5z"/>
<path d="M37.6,43.4h2v2.1h-2V43.4z"/>
<path d="M37.6,41.4h2v2.1h-2V41.4z"/>
<path d="M37.6,39.3h2v2.1h-2V39.3z"/>
<path d="M37.6,37.2h2v2.1h-2V37.2z"/>
<path d="M37.6,35.2h2v2.1h-2V35.2z"/>
<path d="M37.6,22.8h2v2.1h-2V22.8z"/>
<path d="M37.6,20.7h2v2.1h-2V20.7z"/>
<path d="M37.6,18.6h2v2.1h-2V18.6z"/>
<path d="M37.6,16.6h2v2.1h-2V16.6z"/>
<path d="M37.6,14.5h2v2.1h-2V14.5z"/>
<path d="M37.6,12.4h2v2.1h-2V12.4z"/>
<path d="M37.6,10.4h2v2.1h-2V10.4z"/>
<path d="M37.6,8.3h2v2.1h-2V8.3z"/>
<path d="M37.6,6.2h2v2.1h-2V6.2z"/>
<path d="M37.6,4.2h2v2.1h-2V4.2z"/>
<path d="M39.6,53.8h2v2.1h-2V53.8z"/>
<path d="M39.6,51.7h2v2.1h-2V51.7z"/>
<path d="M39.6,49.6h2v2.1h-2V49.6z"/>
<path d="M39.6,47.6h2v2.1h-2V47.6z"/>
<path d="M39.6,45.5h2v2.1h-2V45.5z"/>
<path d="M39.6,43.4h2v2.1h-2V43.4z"/>
<path d="M39.6,41.4h2v2.1h-2V41.4z"/>
<path d="M39.6,39.3h2v2.1h-2V39.3z"/>
<path d="M39.6,37.2h2v2.1h-2V37.2z"/>
<path d="M39.6,20.7h2v2.1h-2V20.7z"/>
<path d="M39.6,18.6h2v2.1h-2V18.6z"/>
<path d="M39.6,16.6h2v2.1h-2V16.6z"/>
<path d="M39.6,14.5h2v2.1h-2V14.5z"/>
<path d="M39.6,12.4h2v2.1h-2V12.4z"/>
<path d="M39.6,10.4h2v2.1h-2V10.4z"/>
<path d="M39.6,8.3h2v2.1h-2V8.3z"/>
<path d="M39.6,6.2h2v2.1h-2V6.2z"/>
<path d="M39.6,4.2h2v2.1h-2V4.2z"/>
<path d="M41.6,51.7h2v2.1h-2V51.7z"/>
<path d="M41.6,49.6h2v2.1h-2V49.6z"/>
<path d="M41.6,47.6h2v2.1h-2V47.6z"/>
<path d="M41.6,45.5h2v2.1h-2V45.5z"/>
<path d="M41.6,43.4h2v2.1h-2V43.4z"/>
<path d="M41.6,41.4h2v2.1h-2V41.4z"/>
<path d="M41.6,39.3h2v2.1h-2V39.3z"/>
<path d="M41.6,37.2h2v2.1h-2V37.2z"/>
<path d="M41.6,20.7h2v2.1h-2V20.7z"/>
<path d="M41.6,18.6h2v2.1h-2V18.6z"/>
<path d="M41.6,16.6h2v2.1h-2V16.6z"/>
<path d="M41.6,14.5h2v2.1h-2V14.5z"/>
<path d="M41.6,12.4h2v2.1h-2V12.4z"/>
<path d="M41.6,10.4h2v2.1h-2V10.4z"/>
<path d="M41.6,8.3h2v2.1h-2V8.3z"/>
<path d="M41.6,6.2h2v2.1h-2V6.2z"/>
<path d="M41.6,4.2h2v2.1h-2V4.2z"/>
<path d="M43.6,51.7h2v2.1h-2V51.7z"/>
<path d="M43.6,49.6h2v2.1h-2V49.6z"/>
<path d="M43.6,47.6h2v2.1h-2V47.6z"/>
<path d="M43.6,45.5h2v2.1h-2V45.5z"/>
<path d="M43.6,43.4h2v2.1h-2V43.4z"/>
<path d="M43.6,41.4h2v2.1h-2V41.4z"/>
<path d="M43.6,39.3h2v2.1h-2V39.3z"/>
<path d="M43.6,37.2h2v2.1h-2V37.2z"/>
<path d="M43.6,20.7h2v2.1h-2V20.7z"/>
<path d="M43.6,18.6h2v2.1h-2V18.6z"/>
<path d="M43.6,16.6h2v2.1h-2V16.6z"/>
<path d="M43.6,14.5h2v2.1h-2V14.5z"/>
<path d="M43.6,12.4h2v2.1h-2V12.4z"/>
<path d="M43.6,10.4h2v2.1h-2V10.4z"/>
<path d="M43.6,8.3h2v2.1h-2V8.3z"/>
<path d="M43.6,6.2h2v2.1h-2V6.2z"/>
<path d="M45.6,49.6h2v2.1h-2V49.6z"/>
<path d="M45.6,47.6h2v2.1h-2V47.6z"/>
<path d="M45.6,45.5h2v2.1h-2V45.5z"/>
<path d="M45.6,43.4h2v2.1h-2V43.4z"/>
<path d="M45.6,41.4h2v2.1h-2V41.4z"/>
<path d="M45.6,39.3h2v2.1h-2V39.3z"/>
<path d="M45.6,18.6h2v2.1h-2V18.6z"/>
<path d="M45.6,16.6h2v2.1h-2V16.6z"/>
<path d="M45.6,14.5h2v2.1h-2V14.5z"/>
<path d="M45.6,12.4h2v2.1h-2V12.4z"/>
<path d="M45.6,10.4h2v2.1h-2V10.4z"/>
<path d="M45.6,8.3h2v2.1h-2V8.3z"/>
<path d="M47.7,47.6h2v2.1h-2V47.6z"/>
<path d="M47.7,45.5h2v2.1h-2V45.5z"/>
<path d="M47.7,43.4h2v2.1h-2V43.4z"/>
<path d="M47.7,41.4h2v2.1h-2V41.4z"/>
<path d="M47.7,39.3h2v2.1h-2V39.3z"/>
<path d="M47.7,18.6h2v2.1h-2V18.6z"/>
<path d="M47.7,16.6h2v2.1h-2V16.6z"/>
<path d="M47.7,14.5h2v2.1h-2V14.5z"/>
<path d="M47.7,12.4h2v2.1h-2V12.4z"/>
<path d="M47.7,10.4h2v2.1h-2V10.4z"/>
<path d="M49.7,45.5h2v2.1l-2,0V45.5z"/>
<path d="M49.7,43.4h2v2.1h-2V43.4z"/>
<path d="M49.7,41.4h2v2.1h-2V41.4z"/>
<path d="M49.7,16.6h2v2.1h-2V16.6z"/>
<path d="M49.7,14.5h2v2.1h-2V14.5z"/>
<path d="M49.7,12.4h2v2.1h-2V12.4z"/>
<path d="M51.7,43.4h2v2.1h-2V43.4z"/>
<path d="M51.7,14.5h2v2.1h-2V14.5z"/>
</svg>
