<svg width="606" height="100" viewBox="0 0 606 100" fill="none" xmlns="http://www.w3.org/2000/svg">
<path d="M76.4706 5.64705H5.88235V11.5294H17.6471V17.4118H11.7647V23.2941H5.88235V29.1765H23.5294V82.1176H29.4118V88H52.9412V82.1176H58.8235V29.1765H76.4706V23.2941H82.3529V11.5294H76.4706V5.64705ZM5.88235 11.5294H0V23.2941H5.88235V11.5294ZM175.611 11.5294V5.64705H157.964V11.5294H152.082V35.0588H140.317V11.5294H134.435V5.64705H105.023V11.5294H116.788V17.4118H110.905V23.2941H105.023V11.5294H99.1406V82.1176H105.023V88H134.435V82.1176H140.317V52.7059H152.082V82.1176H157.964V88H175.611V82.1176H181.494V11.5294H175.611ZM274.752 5.64705H204.164V11.5294H215.928V17.4118H210.046V23.2941H204.164V11.5294H198.281V82.1176H204.164V88H274.752V82.1176H280.634V70.3529H274.752V64.4706H239.458V52.7059H274.752V46.8235H280.634V40.9412H274.752V35.0588H239.458V23.2941H274.752V17.4118H280.634V11.5294H274.752V5.64705Z" fill="#131415"/>
<path d="M76.4706 5.64705H77.4706V4.64705H76.4706V5.64705ZM5.88235 5.64705V4.64705H4.88235V5.64705H5.88235ZM5.88235 11.5294H4.88235V12.5294H5.88235V11.5294ZM17.6471 11.5294H18.6471V10.5294H17.6471V11.5294ZM17.6471 17.4118V18.4118H18.6471V17.4118H17.6471ZM11.7647 17.4118V16.4118H10.7647V17.4118H11.7647ZM11.7647 23.2941V24.2941H12.7647V23.2941H11.7647ZM5.88235 23.2941V22.2941H4.88235V23.2941H5.88235ZM5.88235 29.1765H4.88235V30.1765H5.88235V29.1765ZM23.5294 29.1765H24.5294V28.1765H23.5294V29.1765ZM23.5294 82.1176H22.5294V83.1176H23.5294V82.1176ZM29.4118 82.1176H30.4118V81.1176H29.4118V82.1176ZM29.4118 88H28.4118V89H29.4118V88ZM52.9412 88V89H53.9412V88H52.9412ZM52.9412 82.1176V81.1176H51.9412V82.1176H52.9412ZM58.8235 82.1176V83.1176H59.8235V82.1176H58.8235ZM58.8235 29.1765V28.1765H57.8235V29.1765H58.8235ZM76.4706 29.1765V30.1765H77.4706V29.1765H76.4706ZM76.4706 23.2941V22.2941H75.4706V23.2941H76.4706ZM82.353 23.2941V24.2941H83.353V23.2941H82.353ZM82.353 11.5294H83.353V10.5294H82.353V11.5294ZM76.4706 11.5294H75.4706V12.5294H76.4706V11.5294ZM5.88235 11.5294H6.88235V10.5294H5.88235V11.5294ZM0 11.5294V10.5294H-1V11.5294H0ZM0 23.2941H-1V24.2941H0V23.2941ZM5.88235 23.2941V24.2941H6.88235V23.2941H5.88235ZM76.4706 4.64705H5.88235V6.64705H76.4706V4.64705ZM4.88235 5.64705V11.5294H6.88235V5.64705H4.88235ZM5.88235 12.5294H17.6471V10.5294H5.88235V12.5294ZM16.6471 11.5294V17.4118H18.6471V11.5294H16.6471ZM17.6471 16.4118H11.7647V18.4118H17.6471V16.4118ZM10.7647 17.4118V23.2941H12.7647V17.4118H10.7647ZM11.7647 22.2941H5.88235V24.2941H11.7647V22.2941ZM4.88235 23.2941V29.1765H6.88235V23.2941H4.88235ZM5.88235 30.1765H23.5294V28.1765H5.88235V30.1765ZM22.5294 29.1765V82.1176H24.5294V29.1765H22.5294ZM23.5294 83.1176H29.4118V81.1176H23.5294V83.1176ZM28.4118 82.1176V88H30.4118V82.1176H28.4118ZM29.4118 89H52.9412V87H29.4118V89ZM53.9412 88V82.1176H51.9412V88H53.9412ZM52.9412 83.1176H58.8235V81.1176H52.9412V83.1176ZM59.8235 82.1176V29.1765H57.8235V82.1176H59.8235ZM58.8235 30.1765H76.4706V28.1765H58.8235V30.1765ZM77.4706 29.1765V23.2941H75.4706V29.1765H77.4706ZM76.4706 24.2941H82.353V22.2941H76.4706V24.2941ZM83.353 23.2941V11.5294H81.353V23.2941H83.353ZM82.353 10.5294H76.4706V12.5294H82.353V10.5294ZM77.4706 11.5294V5.64705H75.4706V11.5294H77.4706ZM5.88235 10.5294H0V12.5294H5.88235V10.5294ZM-1 11.5294V23.2941H1V11.5294H-1ZM0 24.2941H5.88235V22.2941H0V24.2941ZM6.88235 23.2941V11.5294H4.88235V23.2941H6.88235ZM175.611 11.5294H174.611V12.5294H175.611V11.5294ZM175.611 5.64705H176.611V4.64705H175.611V5.64705ZM157.964 5.64705V4.64705H156.964V5.64705H157.964ZM157.964 11.5294V12.5294H158.964V11.5294H157.964ZM152.082 11.5294V10.5294H151.082V11.5294H152.082ZM152.082 35.0588V36.0588H153.082V35.0588H152.082ZM140.317 35.0588H139.317V36.0588H140.317V35.0588ZM140.317 11.5294H141.317V10.5294H140.317V11.5294ZM134.435 11.5294H133.435V12.5294H134.435V11.5294ZM134.435 5.64705H135.435V4.64705H134.435V5.64705ZM105.023 5.64705V4.64705H104.023V5.64705H105.023ZM105.023 11.5294H104.023V12.5294H105.023V11.5294ZM116.788 11.5294H117.788V10.5294H116.788V11.5294ZM116.788 17.4118V18.4118H117.788V17.4118H116.788ZM110.905 17.4118V16.4118H109.905V17.4118H110.905ZM110.905 23.2941V24.2941H111.905V23.2941H110.905ZM105.023 23.2941H104.023V24.2941H105.023V23.2941ZM105.023 11.5294H106.023V10.5294H105.023V11.5294ZM99.1406 11.5294V10.5294H98.1406V11.5294H99.1406ZM99.1406 82.1176H98.1406V83.1176H99.1406V82.1176ZM105.023 82.1176H106.023V81.1176H105.023V82.1176ZM105.023 88H104.023V89H105.023V88ZM134.435 88V89H135.435V88H134.435ZM134.435 82.1176V81.1176H133.435V82.1176H134.435ZM140.317 82.1176V83.1176H141.317V82.1176H140.317ZM140.317 52.7059V51.7059H139.317V52.7059H140.317ZM152.082 52.7059H153.082V51.7059H152.082V52.7059ZM152.082 82.1176H151.082V83.1176H152.082V82.1176ZM157.964 82.1176H158.964V81.1176H157.964V82.1176ZM157.964 88H156.964V89H157.964V88ZM175.611 88V89H176.611V88H175.611ZM175.611 82.1176V81.1176H174.611V82.1176H175.611ZM181.494 82.1176V83.1176H182.494V82.1176H181.494ZM181.494 11.5294H182.494V10.5294H181.494V11.5294ZM176.611 11.5294V5.64705H174.611V11.5294H176.611ZM175.611 4.64705H157.964V6.64705H175.611V4.64705ZM156.964 5.64705V11.5294H158.964V5.64705H156.964ZM157.964 10.5294H152.082V12.5294H157.964V10.5294ZM151.082 11.5294V35.0588H153.082V11.5294H151.082ZM152.082 34.0588H140.317V36.0588H152.082V34.0588ZM141.317 35.0588V11.5294H139.317V35.0588H141.317ZM140.317 10.5294H134.435V12.5294H140.317V10.5294ZM135.435 11.5294V5.64705H133.435V11.5294H135.435ZM134.435 4.64705H105.023V6.64705H134.435V4.64705ZM104.023 5.64705V11.5294H106.023V5.64705H104.023ZM105.023 12.5294H116.788V10.5294H105.023V12.5294ZM115.788 11.5294V17.4118H117.788V11.5294H115.788ZM116.788 16.4118H110.905V18.4118H116.788V16.4118ZM109.905 17.4118V23.2941H111.905V17.4118H109.905ZM110.905 22.2941H105.023V24.2941H110.905V22.2941ZM106.023 23.2941V11.5294H104.023V23.2941H106.023ZM105.023 10.5294H99.1406V12.5294H105.023V10.5294ZM98.1406 11.5294V82.1176H100.141V11.5294H98.1406ZM99.1406 83.1176H105.023V81.1176H99.1406V83.1176ZM104.023 82.1176V88H106.023V82.1176H104.023ZM105.023 89H134.435V87H105.023V89ZM135.435 88V82.1176H133.435V88H135.435ZM134.435 83.1176H140.317V81.1176H134.435V83.1176ZM141.317 82.1176V52.7059H139.317V82.1176H141.317ZM140.317 53.7059H152.082V51.7059H140.317V53.7059ZM151.082 52.7059V82.1176H153.082V52.7059H151.082ZM152.082 83.1176H157.964V81.1176H152.082V83.1176ZM156.964 82.1176V88H158.964V82.1176H156.964ZM157.964 89H175.611V87H157.964V89ZM176.611 88V82.1176H174.611V88H176.611ZM175.611 83.1176H181.494V81.1176H175.611V83.1176ZM182.494 82.1176V11.5294H180.494V82.1176H182.494ZM181.494 10.5294H175.611V12.5294H181.494V10.5294ZM274.752 5.64705H275.752V4.64705H274.752V5.64705ZM204.164 5.64705V4.64705H203.164V5.64705H204.164ZM204.164 11.5294H203.164V12.5294H204.164V11.5294ZM215.928 11.5294H216.928V10.5294H215.928V11.5294ZM215.928 17.4118V18.4118H216.928V17.4118H215.928ZM210.046 17.4118V16.4118H209.046V17.4118H210.046ZM210.046 23.2941V24.2941H211.046V23.2941H210.046ZM204.164 23.2941H203.164V24.2941H204.164V23.2941ZM204.164 11.5294H205.164V10.5294H204.164V11.5294ZM198.281 11.5294V10.5294H197.281V11.5294H198.281ZM198.281 82.1176H197.281V83.1176H198.281V82.1176ZM204.164 82.1176H205.164V81.1176H204.164V82.1176ZM204.164 88H203.164V89H204.164V88ZM274.752 88V89H275.752V88H274.752ZM274.752 82.1176V81.1176H273.752V82.1176H274.752ZM280.634 82.1176V83.1176H281.634V82.1176H280.634ZM280.634 70.3529H281.634V69.3529H280.634V70.3529ZM274.752 70.3529H273.752V71.3529H274.752V70.3529ZM274.752 64.4706H275.752V63.4706H274.752V64.4706ZM239.458 64.4706H238.458V65.4706H239.458V64.4706ZM239.458 52.7059V51.7059H238.458V52.7059H239.458ZM274.752 52.7059V53.7059H275.752V52.7059H274.752ZM274.752 46.8235V45.8235H273.752V46.8235H274.752ZM280.634 46.8235V47.8235H281.634V46.8235H280.634ZM280.634 40.9412H281.634V39.9412H280.634V40.9412ZM274.752 40.9412H273.752V41.9412H274.752V40.9412ZM274.752 35.0588H275.752V34.0588H274.752V35.0588ZM239.458 35.0588H238.458V36.0588H239.458V35.0588ZM239.458 23.2941V22.2941H238.458V23.2941H239.458ZM274.752 23.2941V24.2941H275.752V23.2941H274.752ZM274.752 17.4118V16.4118H273.752V17.4118H274.752ZM280.634 17.4118V18.4118H281.634V17.4118H280.634ZM280.634 11.5294H281.634V10.5294H280.634V11.5294ZM274.752 11.5294H273.752V12.5294H274.752V11.5294ZM274.752 4.64705H204.164V6.64705H274.752V4.64705ZM203.164 5.64705V11.5294H205.164V5.64705H203.164ZM204.164 12.5294H215.928V10.5294H204.164V12.5294ZM214.928 11.5294V17.4118H216.928V11.5294H214.928ZM215.928 16.4118H210.046V18.4118H215.928V16.4118ZM209.046 17.4118V23.2941H211.046V17.4118H209.046ZM210.046 22.2941H204.164V24.2941H210.046V22.2941ZM205.164 23.2941V11.5294H203.164V23.2941H205.164ZM204.164 10.5294H198.281V12.5294H204.164V10.5294ZM197.281 11.5294V82.1176H199.281V11.5294H197.281ZM198.281 83.1176H204.164V81.1176H198.281V83.1176ZM203.164 82.1176V88H205.164V82.1176H203.164ZM204.164 89H274.752V87H204.164V89ZM275.752 88V82.1176H273.752V88H275.752ZM274.752 83.1176H280.634V81.1176H274.752V83.1176ZM281.634 82.1176V70.3529H279.634V82.1176H281.634ZM280.634 69.3529H274.752V71.3529H280.634V69.3529ZM275.752 70.3529V64.4706H273.752V70.3529H275.752ZM274.752 63.4706H239.458V65.4706H274.752V63.4706ZM240.458 64.4706V52.7059H238.458V64.4706H240.458ZM239.458 53.7059H274.752V51.7059H239.458V53.7059ZM275.752 52.7059V46.8235H273.752V52.7059H275.752ZM274.752 47.8235H280.634V45.8235H274.752V47.8235ZM281.634 46.8235V40.9412H279.634V46.8235H281.634ZM280.634 39.9412H274.752V41.9412H280.634V39.9412ZM275.752 40.9412V35.0588H273.752V40.9412H275.752ZM274.752 34.0588H239.458V36.0588H274.752V34.0588ZM240.458 35.0588V23.2941H238.458V35.0588H240.458ZM239.458 24.2941H274.752V22.2941H239.458V24.2941ZM275.752 23.2941V17.4118H273.752V23.2941H275.752ZM274.752 18.4118H280.634V16.4118H274.752V18.4118ZM281.634 17.4118V11.5294H279.634V17.4118H281.634ZM280.634 10.5294H274.752V12.5294H280.634V10.5294ZM275.752 11.5294V5.64705H273.752V11.5294H275.752Z" fill="#6633FF"/>
<path d="M389.471 5.64705H318.882V11.5294H330.647V17.4118H324.765V23.2941H318.882V11.5294H313V82.1176H318.882V88H348.294V82.1176H354.176V52.7059H389.471V46.8235H395.353V40.9412H389.471V35.0588H354.176V23.2941H389.471V17.4118H395.353V11.5294H389.471V5.64705ZM488.611 11.5294H482.729V5.64705H418.023V11.5294H429.788V17.4118H423.905V23.2941H418.023V29.1765H465.082V35.0588H423.905V40.9412H418.023V46.8235H412.141V82.1176H418.023V88H488.611V82.1176H494.494V64.4706H488.611V58.5882H453.317V52.7059H482.729V46.8235H488.611V40.9412H494.494V17.4118H488.611V11.5294ZM418.023 11.5294H412.141V23.2941H418.023V11.5294ZM587.752 5.64705H517.164V11.5294H528.928V17.4118H523.046V23.2941H517.164V11.5294H511.281V82.1176H517.164V88H587.752V82.1176H593.634V70.3529H587.752V64.4706H552.458V52.7059H587.752V46.8235H593.634V40.9412H587.752V35.0588H552.458V23.2941H587.752V17.4118H593.634V11.5294H587.752V5.64705Z" fill="#131415"/>
<path d="M389.471 5.64705H390.471V4.64705H389.471V5.64705ZM318.882 5.64705V4.64705H317.882V5.64705H318.882ZM318.882 11.5294H317.882V12.5294H318.882V11.5294ZM330.647 11.5294H331.647V10.5294H330.647V11.5294ZM330.647 17.4118V18.4118H331.647V17.4118H330.647ZM324.765 17.4118V16.4118H323.765V17.4118H324.765ZM324.765 23.2941V24.2941H325.765V23.2941H324.765ZM318.882 23.2941H317.882V24.2941H318.882V23.2941ZM318.882 11.5294H319.882V10.5294H318.882V11.5294ZM313 11.5294V10.5294H312V11.5294H313ZM313 82.1176H312V83.1176H313V82.1176ZM318.882 82.1176H319.882V81.1176H318.882V82.1176ZM318.882 88H317.882V89H318.882V88ZM348.294 88V89H349.294V88H348.294ZM348.294 82.1176V81.1176H347.294V82.1176H348.294ZM354.176 82.1176V83.1176H355.176V82.1176H354.176ZM354.176 52.7059V51.7059H353.176V52.7059H354.176ZM389.471 52.7059V53.7059H390.471V52.7059H389.471ZM389.471 46.8235V45.8235H388.471V46.8235H389.471ZM395.353 46.8235V47.8235H396.353V46.8235H395.353ZM395.353 40.9412H396.353V39.9412H395.353V40.9412ZM389.471 40.9412H388.471V41.9412H389.471V40.9412ZM389.471 35.0588H390.471V34.0588H389.471V35.0588ZM354.176 35.0588H353.176V36.0588H354.176V35.0588ZM354.176 23.2941V22.2941H353.176V23.2941H354.176ZM389.471 23.2941V24.2941H390.471V23.2941H389.471ZM389.471 17.4118V16.4118H388.471V17.4118H389.471ZM395.353 17.4118V18.4118H396.353V17.4118H395.353ZM395.353 11.5294H396.353V10.5294H395.353V11.5294ZM389.471 11.5294H388.471V12.5294H389.471V11.5294ZM389.471 4.64705H318.882V6.64705H389.471V4.64705ZM317.882 5.64705V11.5294H319.882V5.64705H317.882ZM318.882 12.5294H330.647V10.5294H318.882V12.5294ZM329.647 11.5294V17.4118H331.647V11.5294H329.647ZM330.647 16.4118H324.765V18.4118H330.647V16.4118ZM323.765 17.4118V23.2941H325.765V17.4118H323.765ZM324.765 22.2941H318.882V24.2941H324.765V22.2941ZM319.882 23.2941V11.5294H317.882V23.2941H319.882ZM318.882 10.5294H313V12.5294H318.882V10.5294ZM312 11.5294V82.1176H314V11.5294H312ZM313 83.1176H318.882V81.1176H313V83.1176ZM317.882 82.1176V88H319.882V82.1176H317.882ZM318.882 89H348.294V87H318.882V89ZM349.294 88V82.1176H347.294V88H349.294ZM348.294 83.1176H354.176V81.1176H348.294V83.1176ZM355.176 82.1176V52.7059H353.176V82.1176H355.176ZM354.176 53.7059H389.471V51.7059H354.176V53.7059ZM390.471 52.7059V46.8235H388.471V52.7059H390.471ZM389.471 47.8235H395.353V45.8235H389.471V47.8235ZM396.353 46.8235V40.9412H394.353V46.8235H396.353ZM395.353 39.9412H389.471V41.9412H395.353V39.9412ZM390.471 40.9412V35.0588H388.471V40.9412H390.471ZM389.471 34.0588H354.176V36.0588H389.471V34.0588ZM355.176 35.0588V23.2941H353.176V35.0588H355.176ZM354.176 24.2941H389.471V22.2941H354.176V24.2941ZM390.471 23.2941V17.4118H388.471V23.2941H390.471ZM389.471 18.4118H395.353V16.4118H389.471V18.4118ZM396.353 17.4118V11.5294H394.353V17.4118H396.353ZM395.353 10.5294H389.471V12.5294H395.353V10.5294ZM390.471 11.5294V5.64705H388.471V11.5294H390.471ZM488.611 11.5294H489.611V10.5294H488.611V11.5294ZM482.729 11.5294H481.729V12.5294H482.729V11.5294ZM482.729 5.64705H483.729V4.64705H482.729V5.64705ZM418.023 5.64705V4.64705H417.023V5.64705H418.023ZM418.023 11.5294H417.023V12.5294H418.023V11.5294ZM429.788 11.5294H430.788V10.5294H429.788V11.5294ZM429.788 17.4118V18.4118H430.788V17.4118H429.788ZM423.905 17.4118V16.4118H422.905V17.4118H423.905ZM423.905 23.2941V24.2941H424.905V23.2941H423.905ZM418.023 23.2941V22.2941H417.023V23.2941H418.023ZM418.023 29.1765H417.023V30.1765H418.023V29.1765ZM465.082 29.1765H466.082V28.1765H465.082V29.1765ZM465.082 35.0588V36.0588H466.082V35.0588H465.082ZM423.905 35.0588V34.0588H422.905V35.0588H423.905ZM423.905 40.9412V41.9412H424.905V40.9412H423.905ZM418.023 40.9412V39.9412H417.023V40.9412H418.023ZM418.023 46.8235V47.8235H419.023V46.8235H418.023ZM412.141 46.8235V45.8235H411.141V46.8235H412.141ZM412.141 82.1176H411.141V83.1176H412.141V82.1176ZM418.023 82.1176H419.023V81.1176H418.023V82.1176ZM418.023 88H417.023V89H418.023V88ZM488.611 88V89H489.611V88H488.611ZM488.611 82.1176V81.1176H487.611V82.1176H488.611ZM494.494 82.1176V83.1176H495.494V82.1176H494.494ZM494.494 64.4706H495.494V63.4706H494.494V64.4706ZM488.611 64.4706H487.611V65.4706H488.611V64.4706ZM488.611 58.5882H489.611V57.5882H488.611V58.5882ZM453.317 58.5882H452.317V59.5882H453.317V58.5882ZM453.317 52.7059V51.7059H452.317V52.7059H453.317ZM482.729 52.7059V53.7059H483.729V52.7059H482.729ZM482.729 46.8235V45.8235H481.729V46.8235H482.729ZM488.611 46.8235V47.8235H489.611V46.8235H488.611ZM488.611 40.9412V39.9412H487.611V40.9412H488.611ZM494.494 40.9412V41.9412H495.494V40.9412H494.494ZM494.494 17.4118H495.494V16.4118H494.494V17.4118ZM488.611 17.4118H487.611V18.4118H488.611V17.4118ZM418.023 11.5294H419.023V10.5294H418.023V11.5294ZM412.141 11.5294V10.5294H411.141V11.5294H412.141ZM412.141 23.2941H411.141V24.2941H412.141V23.2941ZM418.023 23.2941V24.2941H419.023V23.2941H418.023ZM488.611 10.5294H482.729V12.5294H488.611V10.5294ZM483.729 11.5294V5.64705H481.729V11.5294H483.729ZM482.729 4.64705H418.023V6.64705H482.729V4.64705ZM417.023 5.64705V11.5294H419.023V5.64705H417.023ZM418.023 12.5294H429.788V10.5294H418.023V12.5294ZM428.788 11.5294V17.4118H430.788V11.5294H428.788ZM429.788 16.4118H423.905V18.4118H429.788V16.4118ZM422.905 17.4118V23.2941H424.905V17.4118H422.905ZM423.905 22.2941H418.023V24.2941H423.905V22.2941ZM417.023 23.2941V29.1765H419.023V23.2941H417.023ZM418.023 30.1765H465.082V28.1765H418.023V30.1765ZM464.082 29.1765V35.0588H466.082V29.1765H464.082ZM465.082 34.0588H423.905V36.0588H465.082V34.0588ZM422.905 35.0588V40.9412H424.905V35.0588H422.905ZM423.905 39.9412H418.023V41.9412H423.905V39.9412ZM417.023 40.9412V46.8235H419.023V40.9412H417.023ZM418.023 45.8235H412.141V47.8235H418.023V45.8235ZM411.141 46.8235V82.1176H413.141V46.8235H411.141ZM412.141 83.1176H418.023V81.1176H412.141V83.1176ZM417.023 82.1176V88H419.023V82.1176H417.023ZM418.023 89H488.611V87H418.023V89ZM489.611 88V82.1176H487.611V88H489.611ZM488.611 83.1176H494.494V81.1176H488.611V83.1176ZM495.494 82.1176V64.4706H493.494V82.1176H495.494ZM494.494 63.4706H488.611V65.4706H494.494V63.4706ZM489.611 64.4706V58.5882H487.611V64.4706H489.611ZM488.611 57.5882H453.317V59.5882H488.611V57.5882ZM454.317 58.5882V52.7059H452.317V58.5882H454.317ZM453.317 53.7059H482.729V51.7059H453.317V53.7059ZM483.729 52.7059V46.8235H481.729V52.7059H483.729ZM482.729 47.8235H488.611V45.8235H482.729V47.8235ZM489.611 46.8235V40.9412H487.611V46.8235H489.611ZM488.611 41.9412H494.494V39.9412H488.611V41.9412ZM495.494 40.9412V17.4118H493.494V40.9412H495.494ZM494.494 16.4118H488.611V18.4118H494.494V16.4118ZM489.611 17.4118V11.5294H487.611V17.4118H489.611ZM418.023 10.5294H412.141V12.5294H418.023V10.5294ZM411.141 11.5294V23.2941H413.141V11.5294H411.141ZM412.141 24.2941H418.023V22.2941H412.141V24.2941ZM419.023 23.2941V11.5294H417.023V23.2941H419.023ZM587.752 5.64705H588.752V4.64705H587.752V5.64705ZM517.164 5.64705V4.64705H516.164V5.64705H517.164ZM517.164 11.5294H516.164V12.5294H517.164V11.5294ZM528.928 11.5294H529.928V10.5294H528.928V11.5294ZM528.928 17.4118V18.4118H529.928V17.4118H528.928ZM523.046 17.4118V16.4118H522.046V17.4118H523.046ZM523.046 23.2941V24.2941H524.046V23.2941H523.046ZM517.164 23.2941H516.164V24.2941H517.164V23.2941ZM517.164 11.5294H518.164V10.5294H517.164V11.5294ZM511.281 11.5294V10.5294H510.281V11.5294H511.281ZM511.281 82.1176H510.281V83.1176H511.281V82.1176ZM517.164 82.1176H518.164V81.1176H517.164V82.1176ZM517.164 88H516.164V89H517.164V88ZM587.752 88V89H588.752V88H587.752ZM587.752 82.1176V81.1176H586.752V82.1176H587.752ZM593.634 82.1176V83.1176H594.634V82.1176H593.634ZM593.634 70.3529H594.634V69.3529H593.634V70.3529ZM587.752 70.3529H586.752V71.3529H587.752V70.3529ZM587.752 64.4706H588.752V63.4706H587.752V64.4706ZM552.458 64.4706H551.458V65.4706H552.458V64.4706ZM552.458 52.7059V51.7059H551.458V52.7059H552.458ZM587.752 52.7059V53.7059H588.752V52.7059H587.752ZM587.752 46.8235V45.8235H586.752V46.8235H587.752ZM593.634 46.8235V47.8235H594.634V46.8235H593.634ZM593.634 40.9412H594.634V39.9412H593.634V40.9412ZM587.752 40.9412H586.752V41.9412H587.752V40.9412ZM587.752 35.0588H588.752V34.0588H587.752V35.0588ZM552.458 35.0588H551.458V36.0588H552.458V35.0588ZM552.458 23.2941V22.2941H551.458V23.2941H552.458ZM587.752 23.2941V24.2941H588.752V23.2941H587.752ZM587.752 17.4118V16.4118H586.752V17.4118H587.752ZM593.634 17.4118V18.4118H594.634V17.4118H593.634ZM593.634 11.5294H594.634V10.5294H593.634V11.5294ZM587.752 11.5294H586.752V12.5294H587.752V11.5294ZM587.752 4.64705H517.164V6.64705H587.752V4.64705ZM516.164 5.64705V11.5294H518.164V5.64705H516.164ZM517.164 12.5294H528.928V10.5294H517.164V12.5294ZM527.928 11.5294V17.4118H529.928V11.5294H527.928ZM528.928 16.4118H523.046V18.4118H528.928V16.4118ZM522.046 17.4118V23.2941H524.046V17.4118H522.046ZM523.046 22.2941H517.164V24.2941H523.046V22.2941ZM518.164 23.2941V11.5294H516.164V23.2941H518.164ZM517.164 10.5294H511.281V12.5294H517.164V10.5294ZM510.281 11.5294V82.1176H512.281V11.5294H510.281ZM511.281 83.1176H517.164V81.1176H511.281V83.1176ZM516.164 82.1176V88H518.164V82.1176H516.164ZM517.164 89H587.752V87H517.164V89ZM588.752 88V82.1176H586.752V88H588.752ZM587.752 83.1176H593.634V81.1176H587.752V83.1176ZM594.634 82.1176V70.3529H592.634V82.1176H594.634ZM593.634 69.3529H587.752V71.3529H593.634V69.3529ZM588.752 70.3529V64.4706H586.752V70.3529H588.752ZM587.752 63.4706H552.458V65.4706H587.752V63.4706ZM553.458 64.4706V52.7059H551.458V64.4706H553.458ZM552.458 53.7059H587.752V51.7059H552.458V53.7059ZM588.752 52.7059V46.8235H586.752V52.7059H588.752ZM587.752 47.8235H593.634V45.8235H587.752V47.8235ZM594.634 46.8235V40.9412H592.634V46.8235H594.634ZM593.634 39.9412H587.752V41.9412H593.634V39.9412ZM588.752 40.9412V35.0588H586.752V40.9412H588.752ZM587.752 34.0588H552.458V36.0588H587.752V34.0588ZM553.458 35.0588V23.2941H551.458V35.0588H553.458ZM552.458 24.2941H587.752V22.2941H552.458V24.2941ZM588.752 23.2941V17.4118H586.752V23.2941H588.752ZM587.752 18.4118H593.634V16.4118H587.752V18.4118ZM594.634 17.4118V11.5294H592.634V17.4118H594.634ZM593.634 10.5294H587.752V12.5294H593.634V10.5294ZM588.752 11.5294V5.64705H586.752V11.5294H588.752Z" fill="#6633FF"/>
</svg>
