<svg width="147" height="17" viewBox="0 0 147 17" fill="none" xmlns="http://www.w3.org/2000/svg">
<path d="M8.9 16.5H13.94V3.552H22.316V0.3H0.476V3.552H8.9V16.5ZM25.6066 16.5H30.6466V10.188H42.2026V16.5H47.2426V0.3H42.2026V6.936H30.6466V0.3H25.6066V16.5ZM51.3725 16.5H70.6085V13.248H56.4125V9.828H69.5165V6.804H56.4125V3.552H70.6085V0.3H51.3725V16.5ZM84.2879 16.5H89.3279V10.8H101.064V7.788H89.3279V3.552H102.264V0.3H84.2879V16.5ZM105.338 16.5H124.49V13.248H110.546C110.546 12.704 111.058 12.264 112.082 11.928C113.114 11.592 114.726 11.224 116.918 10.824C119.158 10.464 120.986 9.86 122.402 9.012C123.826 8.164 124.538 6.892 124.538 5.196C124.538 3.788 123.79 2.596 122.294 1.62C120.806 0.643999 118.482 0.155999 115.322 0.155999C112.154 0.155999 109.682 0.667999 107.906 1.692C106.138 2.716 105.254 4.212 105.254 6.18H110.234C110.234 5.268 110.69 4.58 111.602 4.116C112.514 3.644 113.73 3.408 115.25 3.408C116.61 3.408 117.658 3.584 118.394 3.936C119.138 4.288 119.51 4.772 119.51 5.388C119.51 6.052 119.174 6.544 118.502 6.864C117.83 7.176 116.142 7.548 113.438 7.98C110.606 8.444 108.546 9.104 107.258 9.96C105.978 10.808 105.338 11.972 105.338 13.452V16.5ZM127.732 16.5H146.968V13.248H132.772V9.828H145.876V6.804H132.772V3.552H146.968V0.3H127.732V16.5Z" fill="white"/>
</svg>
