<svg width="87" height="98" viewBox="0 0 87 98" fill="none" xmlns="http://www.w3.org/2000/svg">
<path d="M86.5469 45.2448H84.1657V47.6224H86.5469V45.2448Z" fill="#131415"/>
<path d="M86.5469 38.1096H84.1657V40.4896H86.5469V38.1096Z" fill="#131415"/>
<path d="M84.1657 42.8672H81.7845V45.2448H84.1657V42.8672Z" fill="#131415"/>
<path d="M84.1657 38.1096H81.7845V40.4896H84.1657V38.1096Z" fill="#131415"/>
<path d="M81.7845 40.4896L79.4033 40.4896V42.8672H81.7845V40.4896Z" fill="#131415"/>
<path d="M81.7845 38.1096H79.4033V40.4896L81.7845 40.4896V38.1096Z" fill="#131415"/>
<path d="M81.7845 35.732H79.4033V38.1096H81.7845L81.7845 35.732Z" fill="#131415"/>
<path d="M81.7845 33.3544H79.4033V35.732H81.7845V33.3544Z" fill="#131415"/>
<path d="M81.7845 30.9769H79.4033V33.3544H81.7845V30.9769Z" fill="#131415"/>
<path d="M79.4033 42.8672H77.0221V45.2448H79.4033V42.8672Z" fill="#131415"/>
<path d="M79.4033 40.4896H77.0221V42.8672H79.4033V40.4896Z" fill="#131415"/>
<path d="M79.4033 38.1096H77.0221V40.4896H79.4033V38.1096Z" fill="#131415"/>
<path d="M79.4033 35.732H77.0221V38.1096H79.4033V35.732Z" fill="white"/>
<path d="M79.4033 33.3544H77.0221V35.732H79.4033V33.3544Z" fill="white"/>
<path d="M79.4033 30.9769H77.0221V33.3544H79.4033V30.9769Z" fill="#131415"/>
<path d="M79.4033 28.5993H77.0221V30.9769H79.4033V28.5993Z" fill="#131415"/>
<path d="M77.0221 45.2448H74.6409V47.6224H77.0221L77.0221 45.2448Z" fill="#131415"/>
<path d="M77.0221 42.8672H74.6409V45.2448H77.0221V42.8672Z" fill="#131415"/>
<path d="M77.0221 40.4896H74.6409V42.8672H77.0221V40.4896Z" fill="white"/>
<path d="M77.0221 38.1096H74.6409V40.4896H77.0221V38.1096Z" fill="#131415"/>
<path d="M77.0221 35.732H74.6409V38.1096H77.0221V35.732Z" fill="white"/>
<path d="M77.0221 33.3544H74.6409V35.732H77.0221V33.3544Z" fill="white"/>
<path d="M77.0221 30.9769H74.6409V33.3544H77.0221V30.9769Z" fill="white"/>
<path d="M77.0221 28.5993H74.6409V30.9769H77.0221V28.5993Z" fill="#131415"/>
<path d="M77.0221 26.2217H74.6409V28.5993H77.0221L77.0221 26.2217Z" fill="#131415"/>
<path d="M77.0221 23.8417H74.6409V26.2217H77.0221V23.8417Z" fill="#131415"/>
<path d="M77.0221 21.4641H74.6409V23.8417H77.0221V21.4641Z" fill="#131415"/>
<path d="M77.0221 19.0865H74.6409V21.4641H77.0221V19.0865Z" fill="#131415"/>
<path d="M77.0221 16.7089H74.6409V19.0865H77.0221V16.7089Z" fill="#131415"/>
<path d="M77.0221 14.3313H74.6409V16.7089H77.0221V14.3313Z" fill="#131415"/>
<path d="M77.0221 11.9513H74.6409V14.3313H77.0221V11.9513Z" fill="#131415"/>
<path d="M77.0221 9.57369H74.6409V11.9513H77.0221V9.57369Z" fill="#131415"/>
<path d="M77.0221 7.1961H74.6409V9.57369H77.0221V7.1961Z" fill="#131415"/>
<path d="M77.0221 4.81851H74.6409V7.1961H77.0221V4.81851Z" fill="#131415"/>
<path d="M77.0221 2.44092H74.6409V4.81851H77.0221V2.44092Z" fill="#131415"/>
<path d="M77.0221 0.0608978H74.6409V2.44092H77.0221V0.0608978Z" fill="#131415"/>
<path d="M74.6409 78.5384H72.2597V80.916H74.6409V78.5384Z" fill="#131415"/>
<path d="M74.6409 76.1608H72.2597V78.5384H74.6409V76.1608Z" fill="#131415"/>
<path d="M74.6409 73.7808H72.2597V76.1608H74.6409V73.7808Z" fill="#131415"/>
<path d="M74.6409 71.4032H72.2597V73.7808H74.6409V71.4032Z" fill="#131415"/>
<path d="M74.6409 69.0256H72.2597V71.4032H74.6409V69.0256Z" fill="#131415"/>
<path d="M74.6409 66.648H72.2597V69.0256H74.6409V66.648Z" fill="#131415"/>
<path d="M74.6409 64.2704H72.2597V66.648H74.6409V64.2704Z" fill="#131415"/>
<path d="M74.6409 61.8904H72.2597V64.2704H74.6409V61.8904Z" fill="#131415"/>
<path d="M74.6409 59.5128H72.2597V61.8904H74.6409V59.5128Z" fill="#131415"/>
<path d="M74.6409 47.6224H72.2597V50H74.6409L74.6409 47.6224Z" fill="#131415"/>
<path d="M74.6409 45.2448H72.2597V47.6224H74.6409V45.2448Z" fill="#131415"/>
<path d="M74.6409 42.8672H72.2597V45.2448H74.6409V42.8672Z" fill="white"/>
<path d="M74.6409 40.4896H72.2597V42.8672H74.6409V40.4896Z" fill="white"/>
<path d="M74.6409 38.1096H72.2597V40.4896H74.6409V38.1096Z" fill="white"/>
<path d="M74.6409 35.732H72.2597V38.1096H74.6409V35.732Z" fill="white"/>
<path d="M74.6409 33.3544H72.2597V35.732H74.6409V33.3544Z" fill="white"/>
<path d="M74.6409 30.9769H72.2597V33.3544H74.6409V30.9769Z" fill="white"/>
<path d="M74.6409 28.5993H72.2597V30.9769H74.6409V28.5993Z" fill="white"/>
<path d="M74.6409 26.2217H72.2597V28.5993H74.6409V26.2217Z" fill="white"/>
<path d="M74.6409 23.8417H72.2597V26.2217H74.6409V23.8417Z" fill="white"/>
<path d="M74.6409 21.4641H72.2597V23.8417H74.6409V21.4641Z" fill="#131415"/>
<path d="M74.6409 19.0865H72.2597V21.4641H74.6409V19.0865Z" fill="#131415" fill-opacity="0.6"/>
<path d="M74.6409 16.7089H72.2597V19.0865H74.6409V16.7089Z" fill="#131415" fill-opacity="0.6"/>
<path d="M74.6409 14.3313H72.2597V16.7089H74.6409V14.3313Z" fill="#131415" fill-opacity="0.6"/>
<path d="M74.6409 11.9513H72.2597V14.3313H74.6409V11.9513Z" fill="#131415" fill-opacity="0.6"/>
<path d="M74.6409 9.57369H72.2597V11.9513H74.6409V9.57369Z" fill="#131415"/>
<path d="M74.6409 7.1961H72.2597V9.57369H74.6409V7.1961Z" fill="white"/>
<path d="M74.6409 4.81851H72.2597V7.1961H74.6409V4.81851Z" fill="white"/>
<path d="M74.6409 2.44092H72.2597V4.81851H74.6409V2.44092Z" fill="white"/>
<path d="M74.6409 0.0608978H72.2597V2.44092H74.6409V0.0608978Z" fill="#131415"/>
<path d="M72.2597 90.4287H69.8785V92.8063H72.2597V90.4287Z" fill="#131415"/>
<path d="M72.2597 88.0487H69.8785V90.4287H72.2597V88.0487Z" fill="#131415"/>
<path d="M72.2597 85.6711H69.8785V88.0487H72.2597V85.6711Z" fill="#131415"/>
<path d="M72.2597 83.2935H69.8785V85.6711H72.2597V83.2935Z" fill="#131415"/>
<path d="M72.2597 80.916H69.8785V83.2935H72.2597V80.916Z" fill="#131415"/>
<path d="M72.2597 78.5384H69.8785V80.916H72.2597V78.5384Z" fill="#131415"/>
<path d="M72.2597 76.1608H69.8785V78.5384H72.2597V76.1608Z" fill="white"/>
<path d="M72.2597 73.7808H69.8785V76.1608H72.2597V73.7808Z" fill="white"/>
<path d="M72.2597 71.4032H69.8785V73.7808H72.2597V71.4032Z" fill="#131415"/>
<path d="M72.2597 69.0256H69.8785V71.4032H72.2597V69.0256Z" fill="#131415"/>
<path d="M72.2597 66.648H69.8785V69.0256H72.2597V66.648Z" fill="#131415"/>
<path d="M72.2597 64.2704H69.8785V66.648H72.2597V64.2704Z" fill="#131415"/>
<path d="M72.2597 61.8904H69.8785V64.2704H72.2597V61.8904Z" fill="#131415"/>
<path d="M72.2597 59.5128H69.8785V61.8904H72.2597V59.5128Z" fill="#131415"/>
<path d="M72.2597 57.1352H69.8785V59.5128H72.2597V57.1352Z" fill="#131415"/>
<path d="M72.2597 50H69.8785V52.38H72.2597V50Z" fill="#131415"/>
<path d="M72.2597 47.6224H69.8785V50H72.2597V47.6224Z" fill="#131415"/>
<path d="M72.2597 45.2448H69.8785V47.6224H72.2597V45.2448Z" fill="white"/>
<path d="M72.2597 42.8672H69.8785V45.2448H72.2597V42.8672Z" fill="white"/>
<path d="M72.2597 40.4896H69.8785V42.8672H72.2597V40.4896Z" fill="white"/>
<path d="M72.2597 38.1096H69.8785V40.4896H72.2597V38.1096Z" fill="white"/>
<path d="M72.2597 35.732H69.8785V38.1096H72.2597V35.732Z" fill="#131415"/>
<path d="M72.2597 33.3544H69.8785V35.732H72.2597V33.3544Z" fill="#131415"/>
<path d="M72.2597 30.9769H69.8785V33.3544H72.2597V30.9769Z" fill="white"/>
<path d="M72.2597 28.5993H69.8785V30.9769H72.2597V28.5993Z" fill="white"/>
<path d="M72.2597 26.2217H69.8785V28.5993H72.2597V26.2217Z" fill="white"/>
<path d="M72.2597 23.8417H69.8785V26.2217H72.2597V23.8417Z" fill="white"/>
<path d="M72.2597 21.4641H69.8785V23.8417H72.2597V21.4641Z" fill="white"/>
<path d="M72.2597 19.0865H69.8785V21.4641H72.2597V19.0865Z" fill="#131415"/>
<path d="M72.2597 16.7089H69.8785V19.0865H72.2597V16.7089Z" fill="#131415" fill-opacity="0.6"/>
<path d="M72.2597 14.3313H69.8785V16.7089H72.2597V14.3313Z" fill="#131415" fill-opacity="0.6"/>
<path d="M72.2597 11.9513H69.8785V14.3313H72.2597V11.9513Z" fill="#131415"/>
<path d="M72.2597 9.57369H69.8785V11.9513H72.2597V9.57369Z" fill="white"/>
<path d="M72.2597 7.1961H69.8785V9.57369H72.2597V7.1961Z" fill="white"/>
<path d="M72.2597 4.81851H69.8785V7.1961H72.2597V4.81851Z" fill="white"/>
<path d="M72.2597 2.44092H69.8785V4.81851H72.2597V2.44092Z" fill="#131415"/>
<path d="M72.2597 0.0608978H69.8785V2.44092H72.2597V0.0608978Z" fill="#131415"/>
<path d="M69.8785 92.8063H67.4973V95.1839H69.8785L69.8785 92.8063Z" fill="#131415"/>
<path d="M69.8785 90.4287H67.4973V92.8063H69.8785V90.4287Z" fill="#131415"/>
<path d="M69.8785 88.0487H67.4973V90.4287H69.8785V88.0487Z" fill="white"/>
<path d="M69.8785 85.6711H67.4973V88.0487H69.8785V85.6711Z" fill="white"/>
<path d="M69.8785 83.2935H67.4973V85.6711H69.8785V83.2935Z" fill="white"/>
<path d="M69.8785 80.916H67.4973V83.2935H69.8785V80.916Z" fill="white"/>
<path d="M69.8785 78.5384H67.4973V80.916H69.8785V78.5384Z" fill="white"/>
<path d="M69.8785 76.1608H67.4973V78.5384H69.8785V76.1608Z" fill="white"/>
<path d="M69.8785 73.7808H67.4973V76.1608H69.8785V73.7808Z" fill="white"/>
<path d="M69.8785 71.4032H67.4973V73.7808H69.8785V71.4032Z" fill="white"/>
<path d="M69.8785 69.0256H67.4973V71.4032H69.8785V69.0256Z" fill="#131415"/>
<path d="M69.8785 66.648H67.4973V69.0256H69.8785V66.648Z" fill="#131415"/>
<path d="M69.8785 64.2704H67.4973V66.648H69.8785V64.2704Z" fill="#131415"/>
<path d="M69.8785 61.8904H67.4973V64.2704H69.8785V61.8904Z" fill="#131415"/>
<path d="M69.8785 59.5128H67.4973V61.8904H69.8785V59.5128Z" fill="white"/>
<path d="M69.8785 57.1352H67.4973V59.5128H69.8785V57.1352Z" fill="white"/>
<path d="M69.8785 54.7576H67.4973V57.1352H69.8785L69.8785 54.7576Z" fill="#131415"/>
<path d="M69.8785 52.38L67.4973 52.38V54.7576H69.8785L69.8785 52.38Z" fill="#131415"/>
<path d="M69.8785 50H67.4973V52.38L69.8785 52.38V50Z" fill="#131415"/>
<path d="M69.8785 47.6224H67.4973V50H69.8785V47.6224Z" fill="white"/>
<path d="M69.8785 45.2448H67.4973V47.6224H69.8785V45.2448Z" fill="white"/>
<path d="M69.8785 42.8672H67.4973V45.2448H69.8785V42.8672Z" fill="white"/>
<path d="M69.8785 40.4896H67.4973V42.8672H69.8785V40.4896Z" fill="white"/>
<path d="M69.8785 38.1096H67.4973V40.4896H69.8785V38.1096Z" fill="#131415"/>
<path d="M69.8785 35.732H67.4973V38.1096H69.8785V35.732Z" fill="#131415"/>
<path d="M69.8785 33.3544H67.4973V35.732H69.8785V33.3544Z" fill="#131415"/>
<path d="M69.8785 30.9769H67.4973V33.3544H69.8785V30.9769Z" fill="#131415"/>
<path d="M69.8785 28.5993H67.4973V30.9769H69.8785V28.5993Z" fill="white"/>
<path d="M69.8785 26.2217H67.4973V28.5993H69.8785V26.2217Z" fill="white"/>
<path d="M69.8785 23.8417H67.4973V26.2217H69.8785V23.8417Z" fill="white"/>
<path d="M69.8785 21.4641H67.4973V23.8417H69.8785V21.4641Z" fill="white"/>
<path d="M69.8785 19.0865H67.4973V21.4641H69.8785V19.0865Z" fill="white"/>
<path d="M69.8785 16.7089H67.4973V19.0865H69.8785V16.7089Z" fill="#131415"/>
<path d="M69.8785 14.3313H67.4973V16.7089H69.8785V14.3313Z" fill="#131415"/>
<path d="M69.8785 11.9513H67.4973V14.3313H69.8785V11.9513Z" fill="white"/>
<path d="M69.8785 9.57369H67.4973V11.9513H69.8785V9.57369Z" fill="white"/>
<path d="M69.8785 7.1961H67.4973V9.57369H69.8785V7.1961Z" fill="white"/>
<path d="M69.8785 4.81851H67.4973V7.1961H69.8785V4.81851Z" fill="#131415"/>
<path d="M69.8785 2.44092H67.4973V4.81851H69.8785V2.44092Z" fill="#131415"/>
<path d="M67.4973 95.1839L65.1161 95.1839V97.5615H67.4973V95.1839Z" fill="#131415"/>
<path d="M67.4973 92.8063H65.1161V95.1839L67.4973 95.1839V92.8063Z" fill="#131415"/>
<path d="M67.4973 90.4287H65.1161V92.8063H67.4973V90.4287Z" fill="white"/>
<path d="M67.4973 88.0487H65.1161V90.4287H67.4973V88.0487Z" fill="white"/>
<path d="M67.4973 85.6711H65.1161V88.0487H67.4973V85.6711Z" fill="white"/>
<path d="M67.4973 83.2935H65.1161V85.6711H67.4973V83.2935Z" fill="white"/>
<path d="M67.4973 80.916H65.1161V83.2935H67.4973V80.916Z" fill="white"/>
<path d="M67.4973 78.5384H65.1161V80.916H67.4973V78.5384Z" fill="white"/>
<path d="M67.4973 76.1608H65.1161V78.5384H67.4973V76.1608Z" fill="white"/>
<path d="M67.4973 73.7808H65.1161V76.1608H67.4973V73.7808Z" fill="white"/>
<path d="M67.4973 71.4032H65.1161V73.7808H67.4973V71.4032Z" fill="white"/>
<path d="M67.4973 69.0256H65.1161V71.4032H67.4973V69.0256Z" fill="white"/>
<path d="M67.4973 66.648H65.1161V69.0256H67.4973V66.648Z" fill="#131415"/>
<path d="M67.4973 64.2704H65.1161V66.648H67.4973V64.2704Z" fill="#131415"/>
<path d="M67.4973 61.8904H65.1161V64.2704H67.4973V61.8904Z" fill="white"/>
<path d="M67.4973 59.5128H65.1161V61.8904H67.4973V59.5128Z" fill="white"/>
<path d="M67.4973 57.1352H65.1161V59.5128H67.4973V57.1352Z" fill="white"/>
<path d="M67.4973 54.7576H65.1161V57.1352H67.4973V54.7576Z" fill="white"/>
<path d="M67.4973 52.38H65.1161V54.7576H67.4973V52.38Z" fill="#131415"/>
<path d="M67.4973 50H65.1161V52.38H67.4973V50Z" fill="white"/>
<path d="M67.4973 47.6224H65.1161V50H67.4973V47.6224Z" fill="white"/>
<path d="M67.4973 45.2448H65.1161V47.6224H67.4973V45.2448Z" fill="white"/>
<path d="M67.4973 42.8672H65.1161V45.2448H67.4973V42.8672Z" fill="#131415"/>
<path d="M67.4973 40.4896H65.1161V42.8672H67.4973V40.4896Z" fill="white"/>
<path d="M67.4973 38.1096H65.1161V40.4896H67.4973V38.1096Z" fill="#131415"/>
<path d="M67.4973 35.732H65.1161V38.1096H67.4973V35.732Z" fill="#131415"/>
<path d="M67.4973 33.3544H65.1161V35.732H67.4973V33.3544Z" fill="#131415"/>
<path d="M67.4973 30.9769H65.1161V33.3544H67.4973V30.9769Z" fill="#131415"/>
<path d="M67.4973 28.5993H65.1161V30.9769H67.4973V28.5993Z" fill="white"/>
<path d="M67.4973 26.2217H65.1161V28.5993H67.4973V26.2217Z" fill="white"/>
<path d="M67.4973 23.8417H65.1161V26.2217H67.4973V23.8417Z" fill="white"/>
<path d="M67.4973 21.4641H65.1161V23.8417H67.4973V21.4641Z" fill="white"/>
<path d="M67.4973 19.0865H65.1161V21.4641H67.4973V19.0865Z" fill="white"/>
<path d="M67.4973 16.7089H65.1161V19.0865H67.4973V16.7089Z" fill="white"/>
<path d="M67.4973 14.3313H65.1161V16.7089H67.4973V14.3313Z" fill="white"/>
<path d="M67.4973 11.9513H65.1161V14.3313H67.4973V11.9513Z" fill="white"/>
<path d="M67.4973 9.57369H65.1161V11.9513H67.4973V9.57369Z" fill="white"/>
<path d="M67.4973 7.1961H65.1161V9.57369H67.4973V7.1961Z" fill="#131415"/>
<path d="M67.4973 4.81851H65.1161V7.1961H67.4973V4.81851Z" fill="#131415"/>
<path d="M65.1161 95.1839H62.7348V97.5615H65.1161V95.1839Z" fill="#131415"/>
<path d="M65.1161 92.8063H62.7348V95.1839H65.1161V92.8063Z" fill="#131415"/>
<path d="M65.1161 90.4287H62.7348V92.8063H65.1161V90.4287Z" fill="#131415"/>
<path d="M65.1161 88.0487H62.7348V90.4287H65.1161V88.0487Z" fill="#131415"/>
<path d="M65.1161 85.6711H62.7348V88.0487H65.1161V85.6711Z" fill="#131415"/>
<path d="M65.1161 83.2935H62.7348V85.6711H65.1161V83.2935Z" fill="#131415"/>
<path d="M65.1161 80.916H62.7348V83.2935H65.1161V80.916Z" fill="#131415"/>
<path d="M65.1161 78.5384H62.7348V80.916H65.1161V78.5384Z" fill="#131415"/>
<path d="M65.1161 76.1608H62.7348V78.5384H65.1161V76.1608Z" fill="white"/>
<path d="M65.1161 73.7808H62.7348V76.1608H65.1161V73.7808Z" fill="white"/>
<path d="M65.1161 71.4032H62.7348V73.7808H65.1161V71.4032Z" fill="white"/>
<path d="M65.1161 69.0256H62.7348V71.4032H65.1161V69.0256Z" fill="white"/>
<path d="M65.1161 66.648H62.7348V69.0256H65.1161V66.648Z" fill="white"/>
<path d="M65.1161 64.2704H62.7348V66.648H65.1161V64.2704Z" fill="white"/>
<path d="M65.1161 61.8904H62.7348V64.2704H65.1161V61.8904Z" fill="white"/>
<path d="M65.1161 59.5128H62.7348V61.8904H65.1161V59.5128Z" fill="white"/>
<path d="M65.1161 57.1352H62.7348V59.5128H65.1161V57.1352Z" fill="white"/>
<path d="M65.1161 54.7576H62.7348V57.1352H65.1161V54.7576Z" fill="white"/>
<path d="M65.1161 52.38H62.7348V54.7576H65.1161V52.38Z" fill="#131415"/>
<path d="M65.1161 50H62.7348V52.38H65.1161V50Z" fill="white"/>
<path d="M65.1161 47.6224H62.7348V50H65.1161V47.6224Z" fill="white"/>
<path d="M65.1161 45.2448H62.7348V47.6224H65.1161V45.2448Z" fill="#131415"/>
<path d="M65.1161 42.8672H62.7348V45.2448H65.1161V42.8672Z" fill="white"/>
<path d="M65.1161 40.4896H62.7348V42.8672H65.1161V40.4896Z" fill="white"/>
<path d="M65.1161 38.1096H62.7348V40.4896H65.1161V38.1096Z" fill="white"/>
<path d="M65.1161 35.732H62.7348V38.1096H65.1161V35.732Z" fill="#131415"/>
<path d="M65.1161 33.3544H62.7348V35.732H65.1161V33.3544Z" fill="#131415"/>
<path d="M65.1161 30.9769H62.7348V33.3544H65.1161V30.9769Z" fill="white"/>
<path d="M65.1161 28.5993H62.7348V30.9769H65.1161V28.5993Z" fill="white"/>
<path d="M65.1161 26.2217H62.7348V28.5993H65.1161V26.2217Z" fill="white"/>
<path d="M65.1161 23.8417H62.7348V26.2217H65.1161V23.8417Z" fill="white"/>
<path d="M65.1161 21.4641H62.7348V23.8417H65.1161V21.4641Z" fill="white"/>
<path d="M65.1161 19.0865H62.7348V21.4641H65.1161V19.0865Z" fill="white"/>
<path d="M65.1161 16.7089H62.7348V19.0865H65.1161V16.7089Z" fill="white"/>
<path d="M65.1161 14.3313H62.7348V16.7089H65.1161V14.3313Z" fill="white"/>
<path d="M65.1161 11.9513H62.7348V14.3313H65.1161V11.9513Z" fill="white"/>
<path d="M65.1161 9.57369H62.7348V11.9513H65.1161V9.57369Z" fill="#131415"/>
<path d="M65.1161 7.1961H62.7348V9.57369H65.1161V7.1961Z" fill="#131415"/>
<path d="M62.7348 95.1839H60.3536V97.5615H62.7348V95.1839Z" fill="#131415"/>
<path d="M62.7348 92.8063H60.3536V95.1839H62.7348V92.8063Z" fill="#131415"/>
<path d="M62.7348 90.4287H60.3536V92.8063H62.7348V90.4287Z" fill="#131415"/>
<path d="M62.7348 88.0487H60.3536V90.4287H62.7348V88.0487Z" fill="#131415"/>
<path d="M62.7348 85.6711H60.3536V88.0487H62.7348V85.6711Z" fill="#131415"/>
<path d="M62.7348 83.2935H60.3536V85.6711H62.7348V83.2935Z" fill="#131415"/>
<path d="M62.7348 80.916H60.3536V83.2935H62.7348V80.916Z" fill="#131415"/>
<path d="M62.7348 78.5384H60.3536V80.916H62.7348V78.5384Z" fill="#131415"/>
<path d="M62.7348 76.1608H60.3536V78.5384H62.7348V76.1608Z" fill="white"/>
<path d="M62.7348 73.7808H60.3536V76.1608H62.7348V73.7808Z" fill="white"/>
<path d="M62.7348 71.4032H60.3536V73.7808H62.7348V71.4032Z" fill="white"/>
<path d="M62.7348 69.0256H60.3536V71.4032H62.7348V69.0256Z" fill="white"/>
<path d="M62.7348 66.648H60.3536V69.0256H62.7348V66.648Z" fill="white"/>
<path d="M62.7348 64.2704H60.3536V66.648H62.7348V64.2704Z" fill="white"/>
<path d="M62.7348 61.8904H60.3536V64.2704H62.7348V61.8904Z" fill="white"/>
<path d="M62.7348 59.5128H60.3536V61.8904H62.7348V59.5128Z" fill="white"/>
<path d="M62.7348 57.1352H60.3536V59.5128H62.7348V57.1352Z" fill="white"/>
<path d="M62.7348 54.7576H60.3536V57.1352H62.7348V54.7576Z" fill="#131415"/>
<path d="M62.7348 52.38H60.3536V54.7576H62.7348V52.38Z" fill="#131415"/>
<path d="M62.7348 50H60.3536V52.38H62.7348V50Z" fill="white"/>
<path d="M62.7348 47.6224H60.3536V50H62.7348V47.6224Z" fill="white"/>
<path d="M62.7348 45.2448H60.3536V47.6224H62.7348V45.2448Z" fill="#131415"/>
<path d="M62.7348 42.8672H60.3536V45.2448H62.7348V42.8672Z" fill="white"/>
<path d="M62.7348 40.4896H60.3536V42.8672H62.7348V40.4896Z" fill="#131415"/>
<path d="M62.7348 38.1096H60.3536V40.4896H62.7348V38.1096Z" fill="white"/>
<path d="M62.7348 35.732H60.3536V38.1096H62.7348V35.732Z" fill="white"/>
<path d="M62.7348 33.3544H60.3536V35.732H62.7348V33.3544Z" fill="white"/>
<path d="M62.7348 30.9769H60.3536V33.3544H62.7348V30.9769Z" fill="white"/>
<path d="M62.7348 28.5993H60.3536V30.9769H62.7348V28.5993Z" fill="white"/>
<path d="M62.7348 26.2217H60.3536V28.5993H62.7348V26.2217Z" fill="white"/>
<path d="M62.7348 23.8417H60.3536V26.2217H62.7348V23.8417Z" fill="white"/>
<path d="M62.7348 21.4641H60.3536V23.8417H62.7348V21.4641Z" fill="white"/>
<path d="M62.7348 19.0865H60.3536V21.4641H62.7348V19.0865Z" fill="white"/>
<path d="M62.7348 16.7089H60.3536V19.0865H62.7348V16.7089Z" fill="white"/>
<path d="M62.7348 14.3313H60.3536V16.7089H62.7348V14.3313Z" fill="white"/>
<path d="M62.7348 11.9513H60.3536V14.3313H62.7348V11.9513Z" fill="white"/>
<path d="M62.7348 9.57369H60.3536V11.9513H62.7348V9.57369Z" fill="#131415"/>
<path d="M60.3536 92.8063H57.9724V95.1839L60.3536 95.1839V92.8063Z" fill="#131415"/>
<path d="M60.3536 90.4287H57.9724V92.8063H60.3536V90.4287Z" fill="#131415"/>
<path d="M60.3536 88.0487H57.9724V90.4287H60.3536V88.0487Z" fill="#131415"/>
<path d="M60.3536 85.6711H57.9724V88.0487H60.3536V85.6711Z" fill="#131415"/>
<path d="M60.3536 83.2935H57.9724V85.6711H60.3536V83.2935Z" fill="#131415"/>
<path d="M60.3536 80.916H57.9724V83.2935H60.3536V80.916Z" fill="#131415"/>
<path d="M60.3536 78.5384H57.9724V80.916H60.3536V78.5384Z" fill="#131415"/>
<path d="M60.3536 76.1608H57.9724V78.5384H60.3536V76.1608Z" fill="white"/>
<path d="M60.3536 73.7808H57.9724V76.1608H60.3536V73.7808Z" fill="white"/>
<path d="M60.3536 71.4032H57.9724V73.7808H60.3536V71.4032Z" fill="white"/>
<path d="M60.3536 69.0256H57.9724V71.4032H60.3536V69.0256Z" fill="white"/>
<path d="M60.3536 66.648H57.9724V69.0256H60.3536V66.648Z" fill="white"/>
<path d="M60.3536 64.2704H57.9724V66.648H60.3536V64.2704Z" fill="white"/>
<path d="M60.3536 61.8904H57.9724V64.2704H60.3536V61.8904Z" fill="white"/>
<path d="M60.3536 59.5128H57.9724V61.8904H60.3536V59.5128Z" fill="white"/>
<path d="M60.3536 57.1352H57.9724V59.5128H60.3536V57.1352Z" fill="white"/>
<path d="M60.3536 54.7576H57.9724V57.1352H60.3536V54.7576Z" fill="#131415"/>
<path d="M60.3536 52.38H57.9724V54.7576H60.3536V52.38Z" fill="white"/>
<path d="M60.3536 50H57.9724V52.38H60.3536V50Z" fill="white"/>
<path d="M60.3536 47.6224H57.9724V50H60.3536V47.6224Z" fill="white"/>
<path d="M60.3536 45.2448H57.9724V47.6224H60.3536V45.2448Z" fill="white"/>
<path d="M60.3536 42.8672H57.9724V45.2448H60.3536V42.8672Z" fill="#131415"/>
<path d="M60.3536 40.4896H57.9724V42.8672H60.3536V40.4896Z" fill="#131415"/>
<path d="M60.3536 38.1096H57.9724V40.4896H60.3536V38.1096Z" fill="white"/>
<path d="M60.3536 35.732H57.9724V38.1096H60.3536V35.732Z" fill="white"/>
<path d="M60.3536 33.3544H57.9724V35.732H60.3536V33.3544Z" fill="white"/>
<path d="M60.3536 30.9769H57.9724V33.3544H60.3536V30.9769Z" fill="white"/>
<path d="M60.3536 28.5993H57.9724V30.9769H60.3536V28.5993Z" fill="white"/>
<path d="M60.3536 26.2217H57.9724V28.5993H60.3536V26.2217Z" fill="white"/>
<path d="M60.3536 23.8417H57.9724V26.2217H60.3536V23.8417Z" fill="white"/>
<path d="M60.3536 21.4641H57.9724V23.8417H60.3536V21.4641Z" fill="white"/>
<path d="M60.3536 19.0865H57.9724V21.4641H60.3536V19.0865Z" fill="white"/>
<path d="M60.3536 16.7089H57.9724V19.0865H60.3536V16.7089Z" fill="white"/>
<path d="M60.3536 14.3313H57.9724V16.7089H60.3536V14.3313Z" fill="white"/>
<path d="M60.3536 11.9513H57.9724V14.3313H60.3536V11.9513Z" fill="white"/>
<path d="M60.3536 9.57369H57.9724V11.9513H60.3536V9.57369Z" fill="#131415"/>
<path d="M57.9724 95.1839L55.5912 95.1839V97.5615H57.9724L57.9724 95.1839Z" fill="#131415"/>
<path d="M57.9724 92.8063H55.5912V95.1839L57.9724 95.1839V92.8063Z" fill="#131415"/>
<path d="M57.9724 90.4287H55.5912V92.8063H57.9724V90.4287Z" fill="white"/>
<path d="M57.9724 88.0487H55.5912V90.4287H57.9724V88.0487Z" fill="white"/>
<path d="M57.9724 85.6711H55.5912V88.0487H57.9724V85.6711Z" fill="white"/>
<path d="M57.9724 83.2935H55.5912V85.6711H57.9724V83.2935Z" fill="white"/>
<path d="M57.9724 80.916H55.5912V83.2935H57.9724V80.916Z" fill="white"/>
<path d="M57.9724 78.5384H55.5912V80.916H57.9724V78.5384Z" fill="white"/>
<path d="M57.9724 76.1608H55.5912V78.5384H57.9724V76.1608Z" fill="white"/>
<path d="M57.9724 73.7808H55.5912V76.1608H57.9724V73.7808Z" fill="white"/>
<path d="M57.9724 71.4032H55.5912V73.7808H57.9724V71.4032Z" fill="white"/>
<path d="M57.9724 69.0256H55.5912V71.4032H57.9724V69.0256Z" fill="white"/>
<path d="M57.9724 66.648H55.5912V69.0256H57.9724V66.648Z" fill="white"/>
<path d="M57.9724 64.2704H55.5912V66.648H57.9724V64.2704Z" fill="white"/>
<path d="M57.9724 61.8904H55.5912V64.2704H57.9724V61.8904Z" fill="white"/>
<path d="M57.9724 59.5128H55.5912V61.8904H57.9724V59.5128Z" fill="white"/>
<path d="M57.9724 57.1352H55.5912V59.5128H57.9724V57.1352Z" fill="white"/>
<path d="M57.9724 54.7576H55.5912V57.1352H57.9724V54.7576Z" fill="#131415"/>
<path d="M57.9724 52.38H55.5912V54.7576H57.9724V52.38Z" fill="white"/>
<path d="M57.9724 50H55.5912V52.38H57.9724V50Z" fill="white"/>
<path d="M57.9724 47.6224H55.5912V50H57.9724V47.6224Z" fill="white"/>
<path d="M57.9724 45.2448H55.5912V47.6224H57.9724V45.2448Z" fill="#131415"/>
<path d="M57.9724 42.8672H55.5912V45.2448H57.9724V42.8672Z" fill="white"/>
<path d="M57.9724 40.4896H55.5912V42.8672H57.9724V40.4896Z" fill="#131415"/>
<path d="M57.9724 38.1096H55.5912V40.4896H57.9724V38.1096Z" fill="white"/>
<path d="M57.9724 35.732H55.5912V38.1096H57.9724V35.732Z" fill="white"/>
<path d="M57.9724 33.3544H55.5912V35.732H57.9724V33.3544Z" fill="white"/>
<path d="M57.9724 30.9769H55.5912V33.3544H57.9724V30.9769Z" fill="white"/>
<path d="M57.9724 28.5993H55.5912V30.9769H57.9724V28.5993Z" fill="white"/>
<path d="M57.9724 26.2217H55.5912V28.5993H57.9724V26.2217Z" fill="white"/>
<path d="M57.9724 23.8417H55.5912V26.2217H57.9724V23.8417Z" fill="white"/>
<path d="M57.9724 21.4641H55.5912V23.8417H57.9724V21.4641Z" fill="white"/>
<path d="M57.9724 19.0865H55.5912V21.4641H57.9724V19.0865Z" fill="#131415"/>
<path d="M57.9724 16.7089H55.5912V19.0865H57.9724V16.7089Z" fill="#131415"/>
<path d="M57.9724 14.3313H55.5912V16.7089H57.9724V14.3313Z" fill="#131415"/>
<path d="M57.9724 11.9513H55.5912V14.3313H57.9724V11.9513Z" fill="#131415"/>
<path d="M57.9724 9.57369H55.5912V11.9513H57.9724V9.57369Z" fill="#131415"/>
<path d="M57.9724 7.1961H55.5912V9.57369H57.9724L57.9724 7.1961Z" fill="#131415"/>
<path d="M55.5912 95.1839H53.21V97.5615H55.5912V95.1839Z" fill="#131415"/>
<path d="M55.5912 92.8063H53.21V95.1839H55.5912V92.8063Z" fill="#131415"/>
<path d="M55.5912 90.4287H53.21V92.8063H55.5912V90.4287Z" fill="white"/>
<path d="M55.5912 88.0487H53.21V90.4287H55.5912V88.0487Z" fill="white"/>
<path d="M55.5912 85.6711H53.21V88.0487H55.5912V85.6711Z" fill="white"/>
<path d="M55.5912 83.2935H53.21V85.6711H55.5912V83.2935Z" fill="white"/>
<path d="M55.5912 80.916H53.21V83.2935H55.5912V80.916Z" fill="white"/>
<path d="M55.5912 78.5384H53.21V80.916H55.5912V78.5384Z" fill="white"/>
<path d="M55.5912 76.1608H53.21V78.5384H55.5912V76.1608Z" fill="white"/>
<path d="M55.5912 73.7808H53.21V76.1608H55.5912V73.7808Z" fill="white"/>
<path d="M55.5912 71.4032H53.21V73.7808H55.5912V71.4032Z" fill="white"/>
<path d="M55.5912 69.0256H53.21V71.4032H55.5912V69.0256Z" fill="white"/>
<path d="M55.5912 66.648H53.21V69.0256H55.5912V66.648Z" fill="#131415"/>
<path d="M55.5912 64.2704H53.21V66.648H55.5912V64.2704Z" fill="white"/>
<path d="M55.5912 61.8904H53.21V64.2704H55.5912V61.8904Z" fill="white"/>
<path d="M55.5912 59.5128H53.21V61.8904H55.5912V59.5128Z" fill="white"/>
<path d="M55.5912 57.1352H53.21V59.5128H55.5912V57.1352Z" fill="white"/>
<path d="M55.5912 54.7576H53.21V57.1352H55.5912V54.7576Z" fill="#131415"/>
<path d="M55.5912 52.38H53.21V54.7576H55.5912V52.38Z" fill="white"/>
<path d="M55.5912 50H53.21V52.38H55.5912V50Z" fill="white"/>
<path d="M55.5912 47.6224H53.21V50H55.5912V47.6224Z" fill="white"/>
<path d="M55.5912 45.2448H53.21V47.6224H55.5912V45.2448Z" fill="#131415"/>
<path d="M55.5912 42.8672H53.21V45.2448H55.5912V42.8672Z" fill="white"/>
<path d="M55.5912 40.4896H53.21V42.8672H55.5912V40.4896Z" fill="white"/>
<path d="M55.5912 38.1096H53.21V40.4896H55.5912V38.1096Z" fill="white"/>
<path d="M55.5912 35.732H53.21V38.1096H55.5912V35.732Z" fill="white"/>
<path d="M55.5912 33.3544H53.21V35.732H55.5912V33.3544Z" fill="white"/>
<path d="M55.5912 30.9769H53.21V33.3544H55.5912V30.9769Z" fill="white"/>
<path d="M55.5912 28.5993H53.21V30.9769H55.5912V28.5993Z" fill="white"/>
<path d="M55.5912 26.2217H53.21V28.5993H55.5912V26.2217Z" fill="white"/>
<path d="M55.5912 23.8417H53.21V26.2217H55.5912V23.8417Z" fill="white"/>
<path d="M55.5912 21.4641H53.21V23.8417H55.5912V21.4641Z" fill="white"/>
<path d="M55.5912 19.0865H53.21V21.4641H55.5912V19.0865Z" fill="white"/>
<path d="M55.5912 16.7089H53.21V19.0865H55.5912V16.7089Z" fill="white"/>
<path d="M55.5912 14.3313H53.21V16.7089H55.5912V14.3313Z" fill="white"/>
<path d="M55.5912 11.9513H53.21V14.3313H55.5912V11.9513Z" fill="white"/>
<path d="M55.5912 9.57369H53.21V11.9513H55.5912V9.57369Z" fill="white"/>
<path d="M55.5912 7.1961H53.21V9.57369H55.5912V7.1961Z" fill="#131415"/>
<path d="M53.21 95.1839H50.8288V97.5615H53.21V95.1839Z" fill="#131415"/>
<path d="M53.21 92.8063H50.8288V95.1839H53.21V92.8063Z" fill="#131415"/>
<path d="M53.21 90.4287H50.8288V92.8063H53.21V90.4287Z" fill="#131415"/>
<path d="M53.21 88.0487H50.8288V90.4287H53.21V88.0487Z" fill="#131415"/>
<path d="M53.21 85.6711H50.8288V88.0487H53.21V85.6711Z" fill="white"/>
<path d="M53.21 83.2935H50.8288V85.6711H53.21V83.2935Z" fill="white"/>
<path d="M53.21 80.916H50.8288V83.2935H53.21V80.916Z" fill="white"/>
<path d="M53.21 78.5384H50.8288V80.916H53.21V78.5384Z" fill="white"/>
<path d="M53.21 76.1608H50.8288V78.5384H53.21V76.1608Z" fill="white"/>
<path d="M53.21 73.7808H50.8288V76.1608H53.21V73.7808Z" fill="white"/>
<path d="M53.21 71.4032H50.8288V73.7808H53.21V71.4032Z" fill="white"/>
<path d="M53.21 69.0256H50.8288V71.4032H53.21V69.0256Z" fill="#131415"/>
<path d="M53.21 66.648H50.8288V69.0256H53.21V66.648Z" fill="#131415"/>
<path d="M53.21 64.2704H50.8288V66.648H53.21V64.2704Z" fill="#131415"/>
<path d="M53.21 61.8904H50.8288V64.2704H53.21V61.8904Z" fill="white"/>
<path d="M53.21 59.5128H50.8288V61.8904H53.21V59.5128Z" fill="white"/>
<path d="M53.21 57.1352H50.8288V59.5128H53.21V57.1352Z" fill="white"/>
<path d="M53.21 54.7576H50.8288V57.1352H53.21V54.7576Z" fill="#131415"/>
<path d="M53.21 52.38H50.8288V54.7576H53.21V52.38Z" fill="white"/>
<path d="M53.21 50H50.8288V52.38H53.21V50Z" fill="white"/>
<path d="M53.21 47.6224H50.8288V50H53.21V47.6224Z" fill="white"/>
<path d="M53.21 45.2448H50.8288V47.6224H53.21V45.2448Z" fill="white"/>
<path d="M53.21 42.8672H50.8288V45.2448H53.21V42.8672Z" fill="#131415"/>
<path d="M53.21 40.4896H50.8288V42.8672H53.21V40.4896Z" fill="white"/>
<path d="M53.21 38.1096H50.8288V40.4896H53.21V38.1096Z" fill="white"/>
<path d="M53.21 35.732H50.8288V38.1096H53.21V35.732Z" fill="white"/>
<path d="M53.21 33.3544H50.8288V35.732H53.21V33.3544Z" fill="white"/>
<path d="M53.21 30.9769H50.8288V33.3544H53.21V30.9769Z" fill="white"/>
<path d="M53.21 28.5993H50.8288V30.9769H53.21V28.5993Z" fill="white"/>
<path d="M53.21 26.2217H50.8288V28.5993H53.21V26.2217Z" fill="white"/>
<path d="M53.21 23.8417H50.8288V26.2217H53.21V23.8417Z" fill="white"/>
<path d="M53.21 21.4641H50.8288V23.8417H53.21V21.4641Z" fill="white"/>
<path d="M53.21 19.0865H50.8288V21.4641H53.21V19.0865Z" fill="#131415"/>
<path d="M53.21 16.7089H50.8288V19.0865H53.21V16.7089Z" fill="#131415"/>
<path d="M53.21 14.3313H50.8288V16.7089H53.21V14.3313Z" fill="#131415"/>
<path d="M53.21 11.9513H50.8288V14.3313H53.21V11.9513Z" fill="#131415"/>
<path d="M53.21 9.57369H50.8288V11.9513H53.21V9.57369Z" fill="#131415"/>
<path d="M53.21 7.1961H50.8288V9.57369H53.21V7.1961Z" fill="#131415"/>
<path d="M50.8288 92.8063H48.4476V95.1839L50.8288 95.1839V92.8063Z" fill="#131415"/>
<path d="M50.8288 90.4287H48.4476V92.8063H50.8288V90.4287Z" fill="white"/>
<path d="M50.8288 88.0487H48.4476V90.4287H50.8288V88.0487Z" fill="#131415"/>
<path d="M50.8288 85.6711H48.4476V88.0487H50.8288V85.6711Z" fill="#131415"/>
<path d="M50.8288 83.2935H48.4476V85.6711H50.8288V83.2935Z" fill="#131415"/>
<path d="M50.8288 80.916H48.4476V83.2935H50.8288V80.916Z" fill="#131415"/>
<path d="M50.8288 78.5384H48.4476V80.916H50.8288V78.5384Z" fill="#131415"/>
<path d="M50.8288 76.1608H48.4476V78.5384H50.8288V76.1608Z" fill="white"/>
<path d="M50.8288 73.7808H48.4476V76.1608H50.8288V73.7808Z" fill="white"/>
<path d="M50.8288 71.4032H48.4476V73.7808H50.8288V71.4032Z" fill="white"/>
<path d="M50.8288 69.0256H48.4476V71.4032H50.8288V69.0256Z" fill="#131415"/>
<path d="M50.8288 66.648H48.4476V69.0256H50.8288V66.648Z" fill="#131415"/>
<path d="M50.8288 64.2704H48.4476V66.648H50.8288V64.2704Z" fill="#131415"/>
<path d="M50.8288 61.8904H48.4476V64.2704H50.8288V61.8904Z" fill="white"/>
<path d="M50.8288 59.5128H48.4476V61.8904H50.8288V59.5128Z" fill="white"/>
<path d="M50.8288 57.1352H48.4476V59.5128H50.8288V57.1352Z" fill="white"/>
<path d="M50.8288 54.7576H48.4476V57.1352H50.8288V54.7576Z" fill="#131415"/>
<path d="M50.8288 52.38H48.4476V54.7576H50.8288V52.38Z" fill="white"/>
<path d="M50.8288 50H48.4476V52.38H50.8288V50Z" fill="white"/>
<path d="M50.8288 47.6224H48.4476V50H50.8288V47.6224Z" fill="white"/>
<path d="M50.8288 45.2448H48.4476V47.6224H50.8288V45.2448Z" fill="white"/>
<path d="M50.8288 42.8672H48.4476V45.2448H50.8288V42.8672Z" fill="white"/>
<path d="M50.8288 40.4896H48.4476V42.8672H50.8288V40.4896Z" fill="white"/>
<path d="M50.8288 38.1096H48.4476V40.4896H50.8288V38.1096Z" fill="white"/>
<path d="M50.8288 35.732H48.4476V38.1096H50.8288V35.732Z" fill="white"/>
<path d="M50.8288 33.3544H48.4476V35.732H50.8288V33.3544Z" fill="white"/>
<path d="M50.8288 30.9769H48.4476V33.3544H50.8288V30.9769Z" fill="white"/>
<path d="M50.8288 28.5993H48.4476V30.9769H50.8288V28.5993Z" fill="white"/>
<path d="M50.8288 26.2217H48.4476V28.5993H50.8288V26.2217Z" fill="white"/>
<path d="M50.8288 23.8417H48.4476V26.2217H50.8288V23.8417Z" fill="white"/>
<path d="M50.8288 21.4641H48.4476V23.8417H50.8288V21.4641Z" fill="white"/>
<path d="M50.8288 19.0865H48.4476V21.4641H50.8288V19.0865Z" fill="white"/>
<path d="M50.8288 16.7089H48.4476V19.0865H50.8288V16.7089Z" fill="white"/>
<path d="M50.8288 14.3313H48.4476V16.7089H50.8288V14.3313Z" fill="white"/>
<path d="M50.8288 11.9513H48.4476V14.3313H50.8288V11.9513Z" fill="white"/>
<path d="M50.8288 9.57369H48.4476V11.9513H50.8288V9.57369Z" fill="white"/>
<path d="M50.8288 7.1961H48.4476V9.57369H50.8288V7.1961Z" fill="#131415"/>
<path d="M48.4476 92.8063H46.0664V95.1839H48.4476V92.8063Z" fill="#131415"/>
<path d="M48.4476 90.4287H46.0664V92.8063H48.4476V90.4287Z" fill="white"/>
<path d="M48.4476 88.0487H46.0664V90.4287H48.4476V88.0487Z" fill="white"/>
<path d="M48.4476 85.6711H46.0664V88.0487H48.4476V85.6711Z" fill="white"/>
<path d="M48.4476 83.2935H46.0664V85.6711H48.4476V83.2935Z" fill="white"/>
<path d="M48.4476 80.916H46.0664V83.2935H48.4476V80.916Z" fill="white"/>
<path d="M48.4476 78.5384H46.0664V80.916H48.4476V78.5384Z" fill="#131415"/>
<path d="M48.4476 76.1608H46.0664V78.5384H48.4476V76.1608Z" fill="white"/>
<path d="M48.4476 73.7808H46.0664V76.1608H48.4476V73.7808Z" fill="white"/>
<path d="M48.4476 71.4032H46.0664V73.7808H48.4476V71.4032Z" fill="white"/>
<path d="M48.4476 69.0256H46.0664V71.4032H48.4476V69.0256Z" fill="white"/>
<path d="M48.4476 66.648H46.0664V69.0256H48.4476V66.648Z" fill="#131415"/>
<path d="M48.4476 64.2704H46.0664V66.648H48.4476V64.2704Z" fill="white"/>
<path d="M48.4476 61.8904H46.0664V64.2704H48.4476V61.8904Z" fill="white"/>
<path d="M48.4476 59.5128H46.0664V61.8904H48.4476V59.5128Z" fill="white"/>
<path d="M48.4476 57.1352H46.0664V59.5128H48.4476V57.1352Z" fill="white"/>
<path d="M48.4476 54.7576H46.0664V57.1352H48.4476V54.7576Z" fill="#131415"/>
<path d="M48.4476 52.38H46.0664V54.7576H48.4476V52.38Z" fill="white"/>
<path d="M48.4476 50H46.0664V52.38H48.4476V50Z" fill="white"/>
<path d="M48.4476 47.6224H46.0664V50H48.4476V47.6224Z" fill="white"/>
<path d="M48.4476 45.2448H46.0664V47.6224H48.4476V45.2448Z" fill="white"/>
<path d="M48.4476 42.8672H46.0664V45.2448H48.4476V42.8672Z" fill="white"/>
<path d="M48.4476 40.4896H46.0664V42.8672H48.4476V40.4896Z" fill="white"/>
<path d="M48.4476 38.1096H46.0664V40.4896H48.4476V38.1096Z" fill="white"/>
<path d="M48.4476 35.732H46.0664V38.1096H48.4476V35.732Z" fill="#131415"/>
<path d="M48.4476 33.3544H46.0664V35.732H48.4476V33.3544Z" fill="#131415"/>
<path d="M48.4476 30.9769H46.0664V33.3544H48.4476V30.9769Z" fill="white"/>
<path d="M48.4476 28.5993H46.0664V30.9769H48.4476V28.5993Z" fill="white"/>
<path d="M48.4476 26.2217H46.0664V28.5993H48.4476V26.2217Z" fill="white"/>
<path d="M48.4476 23.8417H46.0664V26.2217H48.4476V23.8417Z" fill="white"/>
<path d="M48.4476 21.4641H46.0664V23.8417H48.4476V21.4641Z" fill="white"/>
<path d="M48.4476 19.0865H46.0664V21.4641H48.4476V19.0865Z" fill="#131415"/>
<path d="M48.4476 16.7089H46.0664V19.0865H48.4476V16.7089Z" fill="#131415"/>
<path d="M48.4476 14.3313H46.0664V16.7089H48.4476V14.3313Z" fill="#131415"/>
<path d="M48.4476 11.9513H46.0664V14.3313H48.4476V11.9513Z" fill="#131415"/>
<path d="M48.4476 9.57369H46.0664V11.9513H48.4476V9.57369Z" fill="#131415"/>
<path d="M48.4476 7.1961H46.0664V9.57369H48.4476V7.1961Z" fill="#131415"/>
<path d="M46.0664 92.8063H43.6852V95.1839H46.0664V92.8063Z" fill="#131415"/>
<path d="M46.0664 90.4287H43.6852V92.8063H46.0664V90.4287Z" fill="white"/>
<path d="M46.0664 88.0487H43.6852V90.4287H46.0664V88.0487Z" fill="white"/>
<path d="M46.0664 85.6711H43.6852V88.0487H46.0664V85.6711Z" fill="white"/>
<path d="M46.0664 83.2935H43.6852V85.6711H46.0664V83.2935Z" fill="white"/>
<path d="M46.0664 80.916H43.6852V83.2935H46.0664V80.916Z" fill="white"/>
<path d="M46.0664 78.5384H43.6852V80.916H46.0664V78.5384Z" fill="white"/>
<path d="M46.0664 76.1608H43.6852V78.5384H46.0664V76.1608Z" fill="white"/>
<path d="M46.0664 73.7808H43.6852V76.1608H46.0664V73.7808Z" fill="white"/>
<path d="M46.0664 71.4032H43.6852V73.7808H46.0664V71.4032Z" fill="white"/>
<path d="M46.0664 69.0256H43.6852V71.4032H46.0664V69.0256Z" fill="white"/>
<path d="M46.0664 66.648H43.6852V69.0256H46.0664V66.648Z" fill="white"/>
<path d="M46.0664 64.2704H43.6852V66.648H46.0664V64.2704Z" fill="white"/>
<path d="M46.0664 61.8904H43.6852V64.2704H46.0664V61.8904Z" fill="white"/>
<path d="M46.0664 59.5128H43.6852V61.8904H46.0664V59.5128Z" fill="white"/>
<path d="M46.0664 57.1352H43.6852V59.5128H46.0664V57.1352Z" fill="white"/>
<path d="M46.0664 54.7576H43.6852V57.1352H46.0664V54.7576Z" fill="#131415"/>
<path d="M46.0664 52.38H43.6852V54.7576H46.0664V52.38Z" fill="white"/>
<path d="M46.0664 50H43.6852V52.38H46.0664V50Z" fill="white"/>
<path d="M46.0664 47.6224H43.6852V50H46.0664V47.6224Z" fill="white"/>
<path d="M46.0664 45.2448H43.6852V47.6224H46.0664V45.2448Z" fill="white"/>
<path d="M46.0664 42.8672H43.6852V45.2448H46.0664V42.8672Z" fill="white"/>
<path d="M46.0664 40.4896H43.6852V42.8672H46.0664V40.4896Z" fill="white"/>
<path d="M46.0664 38.1096H43.6852V40.4896H46.0664V38.1096Z" fill="#131415"/>
<path d="M46.0664 35.732H43.6852V38.1096H46.0664V35.732Z" fill="#131415"/>
<path d="M46.0664 33.3544H43.6852V35.732H46.0664V33.3544Z" fill="#131415"/>
<path d="M46.0664 30.9769H43.6852V33.3544H46.0664V30.9769Z" fill="#131415"/>
<path d="M46.0664 28.5993H43.6852V30.9769H46.0664V28.5993Z" fill="white"/>
<path d="M46.0664 26.2217H43.6852V28.5993H46.0664V26.2217Z" fill="white"/>
<path d="M46.0664 23.8417H43.6852V26.2217H46.0664V23.8417Z" fill="white"/>
<path d="M46.0664 21.4641H43.6852V23.8417H46.0664V21.4641Z" fill="white"/>
<path d="M46.0664 19.0865H43.6852V21.4641H46.0664V19.0865Z" fill="white"/>
<path d="M46.0664 16.7089H43.6852V19.0865H46.0664V16.7089Z" fill="white"/>
<path d="M46.0664 14.3313H43.6852V16.7089H46.0664V14.3313Z" fill="white"/>
<path d="M46.0664 11.9513H43.6852V14.3313H46.0664V11.9513Z" fill="white"/>
<path d="M46.0664 9.57369H43.6852V11.9513H46.0664V9.57369Z" fill="#131415"/>
<path d="M43.6852 92.8063H41.304V95.1839H43.6852V92.8063Z" fill="#131415"/>
<path d="M43.6852 90.4287H41.304V92.8063H43.6852V90.4287Z" fill="white"/>
<path d="M43.6852 88.0487H41.304V90.4287H43.6852V88.0487Z" fill="white"/>
<path d="M43.6852 85.6711H41.304V88.0487H43.6852V85.6711Z" fill="white"/>
<path d="M43.6852 83.2935H41.304V85.6711H43.6852V83.2935Z" fill="white"/>
<path d="M43.6852 80.916H41.304V83.2935H43.6852V80.916Z" fill="white"/>
<path d="M43.6852 78.5384H41.304V80.916H43.6852V78.5384Z" fill="white"/>
<path d="M43.6852 76.1608H41.304V78.5384H43.6852V76.1608Z" fill="white"/>
<path d="M43.6852 73.7808H41.304V76.1608H43.6852V73.7808Z" fill="white"/>
<path d="M43.6852 71.4032H41.304V73.7808H43.6852V71.4032Z" fill="white"/>
<path d="M43.6852 69.0256H41.304V71.4032H43.6852V69.0256Z" fill="white"/>
<path d="M43.6852 66.648H41.304V69.0256H43.6852V66.648Z" fill="white"/>
<path d="M43.6852 64.2704H41.304V66.648H43.6852V64.2704Z" fill="white"/>
<path d="M43.6852 61.8904H41.304V64.2704H43.6852V61.8904Z" fill="white"/>
<path d="M43.6852 59.5128H41.304V61.8904H43.6852V59.5128Z" fill="white"/>
<path d="M43.6852 57.1352H41.304V59.5128H43.6852V57.1352Z" fill="white"/>
<path d="M43.6852 54.7576H41.304V57.1352H43.6852V54.7576Z" fill="#131415"/>
<path d="M43.6852 52.38H41.304V54.7576H43.6852V52.38Z" fill="#131415"/>
<path d="M43.6852 50H41.304V52.38H43.6852V50Z" fill="white"/>
<path d="M43.6852 47.6224H41.304V50H43.6852V47.6224Z" fill="white"/>
<path d="M43.6852 45.2448H41.304V47.6224H43.6852V45.2448Z" fill="white"/>
<path d="M43.6852 42.8672H41.304V45.2448H43.6852V42.8672Z" fill="white"/>
<path d="M43.6852 40.4896H41.304V42.8672H43.6852V40.4896Z" fill="white"/>
<path d="M43.6852 38.1096H41.304V40.4896H43.6852V38.1096Z" fill="#131415"/>
<path d="M43.6852 35.732H41.304V38.1096H43.6852V35.732Z" fill="#131415"/>
<path d="M43.6852 33.3544H41.304V35.732H43.6852V33.3544Z" fill="#131415"/>
<path d="M43.6852 30.9769H41.304V33.3544H43.6852V30.9769Z" fill="#131415"/>
<path d="M43.6852 28.5993H41.304V30.9769H43.6852V28.5993Z" fill="white"/>
<path d="M43.6852 26.2217H41.304V28.5993H43.6852V26.2217Z" fill="white"/>
<path d="M43.6852 23.8417H41.304V26.2217H43.6852V23.8417Z" fill="white"/>
<path d="M43.6852 21.4641H41.304V23.8417H43.6852V21.4641Z" fill="white"/>
<path d="M43.6852 19.0865H41.304V21.4641H43.6852V19.0865Z" fill="white"/>
<path d="M43.6852 16.7089H41.304V19.0865H43.6852V16.7089Z" fill="white"/>
<path d="M43.6852 14.3313H41.304V16.7089H43.6852V14.3313Z" fill="white"/>
<path d="M43.6852 11.9513H41.304V14.3313H43.6852V11.9513Z" fill="white"/>
<path d="M43.6852 9.57369H41.304V11.9513H43.6852V9.57369Z" fill="#131415"/>
<path d="M41.304 92.8063H38.9228V95.1839H41.304V92.8063Z" fill="#131415"/>
<path d="M41.304 90.4287H38.9228V92.8063H41.304V90.4287Z" fill="white"/>
<path d="M41.304 88.0487H38.9228V90.4287H41.304V88.0487Z" fill="white"/>
<path d="M41.304 85.6711H38.9228V88.0487H41.304V85.6711Z" fill="white"/>
<path d="M41.304 83.2935H38.9228V85.6711H41.304V83.2935Z" fill="white"/>
<path d="M41.304 80.916H38.9228V83.2935H41.304V80.916Z" fill="white"/>
<path d="M41.304 78.5384H38.9228V80.916H41.304V78.5384Z" fill="white"/>
<path d="M41.304 76.1608H38.9228V78.5384H41.304V76.1608Z" fill="white"/>
<path d="M41.304 73.7808H38.9228V76.1608H41.304V73.7808Z" fill="white"/>
<path d="M41.304 71.4032H38.9228V73.7808H41.304V71.4032Z" fill="white"/>
<path d="M41.304 69.0256H38.9228V71.4032H41.304V69.0256Z" fill="white"/>
<path d="M41.304 66.648H38.9228V69.0256H41.304V66.648Z" fill="white"/>
<path d="M41.304 64.2704H38.9228V66.648H41.304V64.2704Z" fill="white"/>
<path d="M41.304 61.8904H38.9228V64.2704H41.304V61.8904Z" fill="white"/>
<path d="M41.304 59.5128H38.9228V61.8904H41.304V59.5128Z" fill="white"/>
<path d="M41.304 57.1352H38.9228V59.5128H41.304V57.1352Z" fill="white"/>
<path d="M41.304 54.7576H38.9228V57.1352H41.304V54.7576Z" fill="white"/>
<path d="M41.304 52.38H38.9228V54.7576H41.304V52.38Z" fill="#131415"/>
<path d="M41.304 50H38.9228V52.38H41.304V50Z" fill="white"/>
<path d="M41.304 47.6224H38.9228V50H41.304V47.6224Z" fill="white"/>
<path d="M41.304 45.2448H38.9228V47.6224H41.304V45.2448Z" fill="white"/>
<path d="M41.304 42.8672H38.9228V45.2448H41.304V42.8672Z" fill="white"/>
<path d="M41.304 40.4896H38.9228V42.8672H41.304V40.4896Z" fill="white"/>
<path d="M41.304 38.1096H38.9228V40.4896H41.304V38.1096Z" fill="white"/>
<path d="M41.304 35.732H38.9228V38.1096H41.304V35.732Z" fill="#131415"/>
<path d="M41.304 33.3544H38.9228V35.732H41.304V33.3544Z" fill="#131415"/>
<path d="M41.304 30.9769H38.9228V33.3544H41.304V30.9769Z" fill="white"/>
<path d="M41.304 28.5993H38.9228V30.9769H41.304V28.5993Z" fill="white"/>
<path d="M41.304 26.2217H38.9228V28.5993H41.304V26.2217Z" fill="white"/>
<path d="M41.304 23.8417H38.9228V26.2217H41.304V23.8417Z" fill="white"/>
<path d="M41.304 21.4641H38.9228V23.8417H41.304V21.4641Z" fill="white"/>
<path d="M41.304 19.0865H38.9228V21.4641H41.304V19.0865Z" fill="white"/>
<path d="M41.304 16.7089H38.9228V19.0865H41.304V16.7089Z" fill="white"/>
<path d="M41.304 14.3313H38.9228V16.7089H41.304V14.3313Z" fill="white"/>
<path d="M41.304 11.9513H38.9228V14.3313H41.304V11.9513Z" fill="white"/>
<path d="M41.304 9.57369H38.9228V11.9513H41.304V9.57369Z" fill="#131415"/>
<path d="M41.304 7.1961H38.9228V9.57369H41.304V7.1961Z" fill="#131415"/>
<path d="M38.9228 92.8063H36.5416V95.1839H38.9228V92.8063Z" fill="#131415"/>
<path d="M38.9228 90.4287H36.5416V92.8063H38.9228V90.4287Z" fill="white"/>
<path d="M38.9228 88.0487H36.5416V90.4287H38.9228V88.0487Z" fill="white"/>
<path d="M38.9228 85.6711H36.5416V88.0487H38.9228V85.6711Z" fill="white"/>
<path d="M38.9228 83.2935H36.5416V85.6711H38.9228V83.2935Z" fill="white"/>
<path d="M38.9228 80.916H36.5416V83.2935H38.9228V80.916Z" fill="white"/>
<path d="M38.9228 78.5384H36.5416V80.916H38.9228V78.5384Z" fill="white"/>
<path d="M38.9228 76.1608H36.5416V78.5384H38.9228V76.1608Z" fill="white"/>
<path d="M38.9228 73.7808H36.5416V76.1608H38.9228V73.7808Z" fill="white"/>
<path d="M38.9228 71.4032H36.5416V73.7808H38.9228V71.4032Z" fill="white"/>
<path d="M38.9228 69.0256H36.5416V71.4032H38.9228V69.0256Z" fill="white"/>
<path d="M38.9228 66.648H36.5416V69.0256H38.9228V66.648Z" fill="white"/>
<path d="M38.9228 64.2704H36.5416V66.648H38.9228V64.2704Z" fill="white"/>
<path d="M38.9228 61.8904H36.5416V64.2704H38.9228V61.8904Z" fill="white"/>
<path d="M38.9228 59.5128H36.5416V61.8904H38.9228V59.5128Z" fill="white"/>
<path d="M38.9228 57.1352H36.5416V59.5128H38.9228V57.1352Z" fill="white"/>
<path d="M38.9228 54.7576H36.5416V57.1352H38.9228V54.7576Z" fill="white"/>
<path d="M38.9228 52.38H36.5416V54.7576H38.9228V52.38Z" fill="#131415"/>
<path d="M38.9228 50H36.5416V52.38H38.9228V50Z" fill="white"/>
<path d="M38.9228 47.6224H36.5416V50H38.9228V47.6224Z" fill="white"/>
<path d="M38.9228 45.2448H36.5416V47.6224H38.9228V45.2448Z" fill="white"/>
<path d="M38.9228 42.8672H36.5416V45.2448H38.9228V42.8672Z" fill="white"/>
<path d="M38.9228 40.4896H36.5416V42.8672H38.9228V40.4896Z" fill="white"/>
<path d="M38.9228 38.1096H36.5416V40.4896H38.9228V38.1096Z" fill="white"/>
<path d="M38.9228 35.732H36.5416V38.1096H38.9228V35.732Z" fill="white"/>
<path d="M38.9228 33.3544H36.5416V35.732H38.9228V33.3544Z" fill="white"/>
<path d="M38.9228 30.9769H36.5416V33.3544H38.9228V30.9769Z" fill="white"/>
<path d="M38.9228 28.5993H36.5416V30.9769H38.9228V28.5993Z" fill="white"/>
<path d="M38.9228 26.2217H36.5416V28.5993H38.9228V26.2217Z" fill="white"/>
<path d="M38.9228 23.8417H36.5416V26.2217H38.9228V23.8417Z" fill="white"/>
<path d="M38.9228 21.4641H36.5416V23.8417H38.9228V21.4641Z" fill="white"/>
<path d="M38.9228 19.0865H36.5416V21.4641H38.9228V19.0865Z" fill="white"/>
<path d="M38.9228 16.7089H36.5416V19.0865H38.9228V16.7089Z" fill="white"/>
<path d="M38.9228 14.3313H36.5416V16.7089H38.9228V14.3313Z" fill="white"/>
<path d="M38.9228 11.9513H36.5416V14.3313H38.9228V11.9513Z" fill="white"/>
<path d="M38.9228 9.57369H36.5416V11.9513H38.9228V9.57369Z" fill="white"/>
<path d="M38.9228 7.1961H36.5416V9.57369H38.9228V7.1961Z" fill="#131415"/>
<path d="M36.5416 92.8063H34.1604V95.1839H36.5416V92.8063Z" fill="#131415"/>
<path d="M36.5416 90.4287H34.1604V92.8063H36.5416V90.4287Z" fill="white"/>
<path d="M36.5416 88.0487H34.1604V90.4287H36.5416V88.0487Z" fill="white"/>
<path d="M36.5416 85.6711H34.1604V88.0487H36.5416V85.6711Z" fill="white"/>
<path d="M36.5416 83.2935H34.1604V85.6711H36.5416V83.2935Z" fill="white"/>
<path d="M36.5416 80.916H34.1604V83.2935H36.5416V80.916Z" fill="white"/>
<path d="M36.5416 78.5384H34.1604V80.916H36.5416V78.5384Z" fill="white"/>
<path d="M36.5416 76.1608H34.1604V78.5384H36.5416V76.1608Z" fill="white"/>
<path d="M36.5416 73.7808H34.1604V76.1608H36.5416V73.7808Z" fill="white"/>
<path d="M36.5416 71.4032H34.1604V73.7808H36.5416V71.4032Z" fill="white"/>
<path d="M36.5416 69.0256H34.1604V71.4032H36.5416V69.0256Z" fill="white"/>
<path d="M36.5416 66.648H34.1604V69.0256H36.5416V66.648Z" fill="white"/>
<path d="M36.5416 64.2704H34.1604V66.648H36.5416V64.2704Z" fill="white"/>
<path d="M36.5416 61.8904H34.1604V64.2704H36.5416V61.8904Z" fill="white"/>
<path d="M36.5416 59.5128H34.1604V61.8904H36.5416V59.5128Z" fill="white"/>
<path d="M36.5416 57.1352H34.1604V59.5128H36.5416V57.1352Z" fill="white"/>
<path d="M36.5416 54.7576H34.1604V57.1352H36.5416V54.7576Z" fill="white"/>
<path d="M36.5416 52.38H34.1604V54.7576H36.5416V52.38Z" fill="#131415"/>
<path d="M36.5416 50H34.1604V52.38H36.5416V50Z" fill="#131415"/>
<path d="M36.5416 47.6224H34.1604V50H36.5416V47.6224Z" fill="white"/>
<path d="M36.5416 45.2448H34.1604V47.6224H36.5416V45.2448Z" fill="white"/>
<path d="M36.5416 42.8672H34.1604V45.2448H36.5416V42.8672Z" fill="white"/>
<path d="M36.5416 40.4896H34.1604V42.8672H36.5416V40.4896Z" fill="white"/>
<path d="M36.5416 38.1096H34.1604V40.4896H36.5416V38.1096Z" fill="white"/>
<path d="M36.5416 35.732H34.1604V38.1096H36.5416V35.732Z" fill="white"/>
<path d="M36.5416 33.3544H34.1604V35.732H36.5416V33.3544Z" fill="white"/>
<path d="M36.5416 30.9769H34.1604V33.3544H36.5416V30.9769Z" fill="white"/>
<path d="M36.5416 28.5993H34.1604V30.9769H36.5416V28.5993Z" fill="white"/>
<path d="M36.5416 26.2217H34.1604V28.5993H36.5416V26.2217Z" fill="white"/>
<path d="M36.5416 23.8417H34.1604V26.2217H36.5416V23.8417Z" fill="white"/>
<path d="M36.5416 21.4641H34.1604V23.8417H36.5416V21.4641Z" fill="white"/>
<path d="M36.5416 19.0865H34.1604V21.4641H36.5416V19.0865Z" fill="white"/>
<path d="M36.5416 16.7089H34.1604V19.0865H36.5416V16.7089Z" fill="white"/>
<path d="M36.5416 14.3313H34.1604V16.7089H36.5416V14.3313Z" fill="white"/>
<path d="M36.5416 11.9513H34.1604V14.3313H36.5416V11.9513Z" fill="white"/>
<path d="M36.5416 9.57369H34.1604V11.9513H36.5416V9.57369Z" fill="white"/>
<path d="M36.5416 7.1961H34.1604V9.57369H36.5416V7.1961Z" fill="#131415"/>
<path d="M36.5416 4.81851H34.1604V7.1961H36.5416V4.81851Z" fill="#131415"/>
<path d="M34.1604 92.8063H31.7792V95.1839H34.1604V92.8063Z" fill="#131415"/>
<path d="M34.1604 90.4287H31.7792V92.8063H34.1604V90.4287Z" fill="white"/>
<path d="M34.1604 88.0487H31.7792V90.4287H34.1604V88.0487Z" fill="white"/>
<path d="M34.1604 85.6711H31.7792V88.0487H34.1604V85.6711Z" fill="white"/>
<path d="M34.1604 83.2935H31.7792V85.6711H34.1604V83.2935Z" fill="white"/>
<path d="M34.1604 80.916H31.7792V83.2935H34.1604V80.916Z" fill="white"/>
<path d="M34.1604 78.5384H31.7792V80.916H34.1604V78.5384Z" fill="white"/>
<path d="M34.1604 76.1608H31.7792V78.5384H34.1604V76.1608Z" fill="white"/>
<path d="M34.1604 73.7808H31.7792V76.1608H34.1604V73.7808Z" fill="white"/>
<path d="M34.1604 71.4032H31.7792V73.7808H34.1604V71.4032Z" fill="white"/>
<path d="M34.1604 69.0256H31.7792V71.4032H34.1604V69.0256Z" fill="white"/>
<path d="M34.1604 66.648H31.7792V69.0256H34.1604V66.648Z" fill="#131415"/>
<path d="M34.1604 64.2704H31.7792V66.648H34.1604V64.2704Z" fill="#131415"/>
<path d="M34.1604 61.8904H31.7792V64.2704H34.1604V61.8904Z" fill="white"/>
<path d="M34.1604 59.5128H31.7792V61.8904H34.1604V59.5128Z" fill="white"/>
<path d="M34.1604 57.1352H31.7792V59.5128H34.1604V57.1352Z" fill="white"/>
<path d="M34.1604 54.7576H31.7792V57.1352H34.1604V54.7576Z" fill="white"/>
<path d="M34.1604 52.38H31.7792V54.7576H34.1604V52.38Z" fill="white"/>
<path d="M34.1604 50H31.7792V52.38H34.1604V50Z" fill="#131415"/>
<path d="M34.1604 47.6224H31.7792V50H34.1604V47.6224Z" fill="#131415"/>
<path d="M34.1604 45.2448H31.7792V47.6224H34.1604V45.2448Z" fill="white"/>
<path d="M34.1604 42.8672H31.7792V45.2448H34.1604V42.8672Z" fill="white"/>
<path d="M34.1604 40.4896H31.7792V42.8672H34.1604V40.4896Z" fill="white"/>
<path d="M34.1604 38.1096H31.7792V40.4896H34.1604V38.1096Z" fill="white"/>
<path d="M34.1604 35.732H31.7792V38.1096H34.1604V35.732Z" fill="white"/>
<path d="M34.1604 33.3544H31.7792V35.732H34.1604V33.3544Z" fill="white"/>
<path d="M34.1604 30.9769H31.7792V33.3544H34.1604V30.9769Z" fill="white"/>
<path d="M34.1604 28.5993H31.7792V30.9769H34.1604V28.5993Z" fill="white"/>
<path d="M34.1604 26.2217H31.7792V28.5993H34.1604V26.2217Z" fill="white"/>
<path d="M34.1604 23.8417H31.7792V26.2217H34.1604V23.8417Z" fill="white"/>
<path d="M34.1604 21.4641H31.7792V23.8417H34.1604V21.4641Z" fill="white"/>
<path d="M34.1604 19.0865H31.7792V21.4641H34.1604V19.0865Z" fill="white"/>
<path d="M34.1604 16.7089H31.7792V19.0865H34.1604V16.7089Z" fill="#131415"/>
<path d="M34.1604 14.3313H31.7792V16.7089H34.1604V14.3313Z" fill="#131415"/>
<path d="M34.1604 11.9513H31.7792V14.3313H34.1604V11.9513Z" fill="white"/>
<path d="M34.1604 9.57369H31.7792V11.9513H34.1604V9.57369Z" fill="white"/>
<path d="M34.1604 7.1961H31.7792V9.57369H34.1604V7.1961Z" fill="white"/>
<path d="M34.1604 4.81851H31.7792V7.1961H34.1604V4.81851Z" fill="#131415"/>
<path d="M34.1604 2.44092H31.7792V4.81851H34.1604V2.44092Z" fill="#131415"/>
<path d="M31.7792 92.8063H29.398V95.1839H31.7792V92.8063Z" fill="#131415"/>
<path d="M31.7792 90.4287H29.398V92.8063H31.7792V90.4287Z" fill="#131415"/>
<path d="M31.7792 88.0487H29.398V90.4287H31.7792V88.0487Z" fill="white"/>
<path d="M31.7792 85.6711H29.398V88.0487H31.7792V85.6711Z" fill="white"/>
<path d="M31.7792 83.2935H29.398V85.6711H31.7792V83.2935Z" fill="white"/>
<path d="M31.7792 80.916H29.398V83.2935H31.7792V80.916Z" fill="white"/>
<path d="M31.7792 78.5384H29.398V80.916H31.7792V78.5384Z" fill="white"/>
<path d="M31.7792 76.1608H29.398V78.5384H31.7792V76.1608Z" fill="white"/>
<path d="M31.7792 73.7808H29.398V76.1608H31.7792V73.7808Z" fill="white"/>
<path d="M31.7792 71.4032H29.398V73.7808H31.7792V71.4032Z" fill="white"/>
<path d="M31.7792 69.0256H29.398V71.4032H31.7792V69.0256Z" fill="#131415"/>
<path d="M31.7792 66.648H29.398V69.0256H31.7792V66.648Z" fill="#131415"/>
<path d="M31.7792 64.2704H29.398V66.648H31.7792V64.2704Z" fill="#131415"/>
<path d="M31.7792 61.8904H29.398V64.2704H31.7792V61.8904Z" fill="#131415"/>
<path d="M31.7792 59.5128H29.398V61.8904H31.7792V59.5128Z" fill="white"/>
<path d="M31.7792 57.1352H29.398V59.5128H31.7792V57.1352Z" fill="white"/>
<path d="M31.7792 54.7576H29.398V57.1352H31.7792V54.7576Z" fill="white"/>
<path d="M31.7792 52.38H29.398V54.7576H31.7792V52.38Z" fill="white"/>
<path d="M31.7792 50H29.398V52.38H31.7792V50Z" fill="#131415"/>
<path d="M31.7792 47.6224H29.398V50H31.7792V47.6224Z" fill="#131415"/>
<path d="M31.7792 45.2448H29.398V47.6224H31.7792V45.2448Z" fill="white"/>
<path d="M31.7792 42.8672H29.398V45.2448H31.7792V42.8672Z" fill="#131415"/>
<path d="M31.7792 40.4896H29.398V42.8672H31.7792V40.4896Z" fill="white"/>
<path d="M31.7792 38.1096H29.398V40.4896H31.7792V38.1096Z" fill="#131415"/>
<path d="M31.7792 35.732H29.398V38.1096H31.7792V35.732Z" fill="white"/>
<path d="M31.7792 33.3544H29.398V35.732H31.7792V33.3544Z" fill="white"/>
<path d="M31.7792 30.9769H29.398V33.3544H31.7792V30.9769Z" fill="white"/>
<path d="M31.7792 28.5993H29.398V30.9769H31.7792V28.5993Z" fill="white"/>
<path d="M31.7792 26.2217H29.398V28.5993H31.7792V26.2217Z" fill="white"/>
<path d="M31.7792 23.8417H29.398V26.2217H31.7792V23.8417Z" fill="white"/>
<path d="M31.7792 21.4641H29.398V23.8417H31.7792V21.4641Z" fill="white"/>
<path d="M31.7792 19.0865H29.398V21.4641H31.7792V19.0865Z" fill="#131415"/>
<path d="M31.7792 16.7089H29.398V19.0865H31.7792V16.7089Z" fill="#131415" fill-opacity="0.6"/>
<path d="M31.7792 14.3313H29.398V16.7089H31.7792V14.3313Z" fill="#131415" fill-opacity="0.6"/>
<path d="M31.7792 11.9513H29.398V14.3313H31.7792V11.9513Z" fill="#131415"/>
<path d="M31.7792 9.57369H29.398V11.9513H31.7792V9.57369Z" fill="white"/>
<path d="M31.7792 7.1961H29.398V9.57369H31.7792V7.1961Z" fill="white"/>
<path d="M31.7792 4.81851H29.398V7.1961H31.7792V4.81851Z" fill="white"/>
<path d="M31.7792 2.44092H29.398V4.81851H31.7792V2.44092Z" fill="#131415"/>
<path d="M31.7792 0.0608978H29.398V2.44092H31.7792V0.0608978Z" fill="#131415"/>
<path d="M29.398 90.4287H27.0168V92.8063H29.398V90.4287Z" fill="#131415"/>
<path d="M29.398 88.0487H27.0168V90.4287H29.398V88.0487Z" fill="white"/>
<path d="M29.398 85.6711H27.0168V88.0487H29.398V85.6711Z" fill="white"/>
<path d="M29.398 83.2935H27.0168V85.6711H29.398V83.2935Z" fill="white"/>
<path d="M29.398 80.916H27.0168V83.2935H29.398V80.916Z" fill="white"/>
<path d="M29.398 78.5384H27.0168V80.916H29.398V78.5384Z" fill="white"/>
<path d="M29.398 76.1608H27.0168V78.5384H29.398V76.1608Z" fill="white"/>
<path d="M29.398 73.7808H27.0168V76.1608H29.398V73.7808Z" fill="white"/>
<path d="M29.398 71.4032H27.0168V73.7808H29.398V71.4032Z" fill="#131415"/>
<path d="M29.398 69.0256H27.0168V71.4032H29.398V69.0256Z" fill="#131415"/>
<path d="M29.398 66.648H27.0168V69.0256H29.398V66.648Z" fill="#131415"/>
<path d="M29.398 64.2704H27.0168V66.648H29.398V64.2704Z" fill="#131415"/>
<path d="M29.398 61.8904H27.0168V64.2704H29.398V61.8904Z" fill="#131415"/>
<path d="M29.398 59.5128H27.0168V61.8904H29.398V59.5128Z" fill="#131415"/>
<path d="M29.398 57.1352H27.0168V59.5128H29.398V57.1352Z" fill="white"/>
<path d="M29.398 54.7576H27.0168V57.1352H29.398V54.7576Z" fill="#131415"/>
<path d="M29.398 52.38H27.0168V54.7576H29.398V52.38Z" fill="#131415"/>
<path d="M29.398 47.6224H27.0168V50H29.398V47.6224Z" fill="#131415"/>
<path d="M29.398 45.2448H27.0168V47.6224H29.398V45.2448Z" fill="#131415"/>
<path d="M29.398 42.8672H27.0168V45.2448H29.398V42.8672Z" fill="#131415"/>
<path d="M29.398 40.4896H27.0168V42.8672H29.398V40.4896Z" fill="white"/>
<path d="M29.398 38.1096H27.0168V40.4896H29.398V38.1096Z" fill="#131415"/>
<path d="M29.398 35.732H27.0168V38.1096H29.398V35.732Z" fill="white"/>
<path d="M29.398 33.3544H27.0168V35.732H29.398V33.3544Z" fill="white"/>
<path d="M29.398 30.9769H27.0168V33.3544H29.398V30.9769Z" fill="white"/>
<path d="M29.398 28.5993H27.0168V30.9769H29.398V28.5993Z" fill="white"/>
<path d="M29.398 26.2217H27.0168V28.5993H29.398V26.2217Z" fill="white"/>
<path d="M29.398 23.8417H27.0168V26.2217H29.398V23.8417Z" fill="white"/>
<path d="M29.398 21.4641H27.0168V23.8417H29.398V21.4641Z" fill="#131415"/>
<path d="M29.398 19.0865H27.0168V21.4641H29.398V19.0865Z" fill="#131415" fill-opacity="0.6"/>
<path d="M29.398 16.7089H27.0168V19.0865H29.398V16.7089Z" fill="#131415" fill-opacity="0.6"/>
<path d="M29.398 14.3313H27.0168V16.7089H29.398V14.3313Z" fill="#131415" fill-opacity="0.6"/>
<path d="M29.398 11.9513H27.0168V14.3313H29.398V11.9513Z" fill="#131415" fill-opacity="0.6"/>
<path d="M29.398 9.57369H27.0168V11.9513H29.398V9.57369Z" fill="#131415"/>
<path d="M29.398 7.1961H27.0168V9.57369H29.398V7.1961Z" fill="white"/>
<path d="M29.398 4.81851H27.0168V7.1961H29.398V4.81851Z" fill="white"/>
<path d="M29.398 2.44092H27.0168V4.81851H29.398V2.44092Z" fill="white"/>
<path d="M29.398 0.0608978H27.0168V2.44092H29.398V0.0608978Z" fill="#131415"/>
<path d="M27.0168 90.4287H24.6356V92.8063H27.0168V90.4287Z" fill="#131415"/>
<path d="M27.0168 88.0487H24.6356V90.4287H27.0168V88.0487Z" fill="#131415"/>
<path d="M27.0168 85.6711H24.6356V88.0487H27.0168V85.6711Z" fill="white"/>
<path d="M27.0168 83.2935H24.6356V85.6711H27.0168V83.2935Z" fill="white"/>
<path d="M27.0168 80.916H24.6356V83.2935H27.0168V80.916Z" fill="white"/>
<path d="M27.0168 78.5384H24.6356V80.916H27.0168V78.5384Z" fill="white"/>
<path d="M27.0168 76.1608H24.6356V78.5384H27.0168V76.1608Z" fill="white"/>
<path d="M27.0168 73.7808H24.6356V76.1608H27.0168V73.7808Z" fill="white"/>
<path d="M27.0168 71.4032H24.6356V73.7808H27.0168V71.4032Z" fill="#131415"/>
<path d="M27.0168 69.0256H24.6356V71.4032H27.0168V69.0256Z" fill="#131415"/>
<path d="M27.0168 66.648H24.6356V69.0256H27.0168V66.648Z" fill="#131415"/>
<path d="M27.0168 64.2704H24.6356V66.648H27.0168V64.2704Z" fill="#131415"/>
<path d="M27.0168 61.8904H24.6356V64.2704H27.0168V61.8904Z" fill="#131415"/>
<path d="M27.0168 59.5128H24.6356V61.8904H27.0168V59.5128Z" fill="#131415"/>
<path d="M27.0168 57.1352H24.6356V59.5128H27.0168V57.1352Z" fill="#131415"/>
<path d="M27.0168 54.7576H24.6356V57.1352H27.0168V54.7576Z" fill="#131415"/>
<path d="M27.0168 45.2448H24.6356V47.6224H27.0168V45.2448Z" fill="#131415"/>
<path d="M27.0168 42.8672H24.6356V45.2448H27.0168V42.8672Z" fill="#131415"/>
<path d="M27.0168 40.4896H24.6356V42.8672H27.0168V40.4896Z" fill="white"/>
<path d="M27.0168 38.1096H24.6356V40.4896H27.0168V38.1096Z" fill="#131415"/>
<path d="M27.0168 35.732H24.6356V38.1096H27.0168V35.732Z" fill="white"/>
<path d="M27.0168 33.3544H24.6356V35.732H27.0168V33.3544Z" fill="white"/>
<path d="M27.0168 30.9769H24.6356V33.3544H27.0168V30.9769Z" fill="white"/>
<path d="M27.0168 28.5993H24.6356V30.9769H27.0168V28.5993Z" fill="#131415"/>
<path d="M27.0168 26.2217H24.6356V28.5993H27.0168V26.2217Z" fill="#131415"/>
<path d="M27.0168 23.8417H24.6356V26.2217H27.0168V23.8417Z" fill="#131415"/>
<path d="M27.0168 21.4641H24.6356V23.8417H27.0168V21.4641Z" fill="#131415"/>
<path d="M27.0168 19.0865H24.6356V21.4641H27.0168V19.0865Z" fill="#131415"/>
<path d="M27.0168 16.7089H24.6356V19.0865H27.0168V16.7089Z" fill="#131415"/>
<path d="M27.0168 14.3313H24.6356V16.7089H27.0168V14.3313Z" fill="#131415"/>
<path d="M27.0168 11.9513H24.6356V14.3313H27.0168V11.9513Z" fill="#131415"/>
<path d="M27.0168 9.57369H24.6356V11.9513H27.0168V9.57369Z" fill="#131415"/>
<path d="M27.0168 7.1961H24.6356V9.57369H27.0168V7.1961Z" fill="#131415"/>
<path d="M27.0168 4.81851H24.6356V7.1961H27.0168V4.81851Z" fill="#131415"/>
<path d="M27.0168 2.44092H24.6356V4.81851H27.0168V2.44092Z" fill="#131415"/>
<path d="M27.0168 0.0608978H24.6356V2.44092H27.0168V0.0608978Z" fill="#131415"/>
<path d="M24.6356 88.0487H22.2543V90.4287H24.6356V88.0487Z" fill="#131415"/>
<path d="M24.6356 85.6711H22.2543V88.0487H24.6356V85.6711Z" fill="#131415"/>
<path d="M24.6356 83.2935H22.2543V85.6711H24.6356V83.2935Z" fill="white"/>
<path d="M24.6356 80.916H22.2543V83.2935H24.6356V80.916Z" fill="white"/>
<path d="M24.6356 78.5384H22.2543V80.916H24.6356V78.5384Z" fill="white"/>
<path d="M24.6356 76.1608H22.2543V78.5384H24.6356V76.1608Z" fill="white"/>
<path d="M24.6356 73.7808H22.2543V76.1608H24.6356V73.7808Z" fill="white"/>
<path d="M24.6356 71.4032H22.2543V73.7808H24.6356V71.4032Z" fill="white"/>
<path d="M24.6356 69.0256H22.2543V71.4032H24.6356V69.0256Z" fill="#131415"/>
<path d="M24.6356 66.648H22.2543V69.0256H24.6356V66.648Z" fill="#131415"/>
<path d="M24.6356 64.2704H22.2543V66.648H24.6356V64.2704Z" fill="#131415"/>
<path d="M24.6356 61.8904H22.2543V64.2704H24.6356V61.8904Z" fill="#131415"/>
<path d="M24.6356 59.5128H22.2543V61.8904H24.6356V59.5128Z" fill="#131415"/>
<path d="M24.6356 57.1352H22.2543V59.5128H24.6356V57.1352Z" fill="#131415"/>
<path d="M24.6356 42.8672H22.2543V45.2448H24.6356V42.8672Z" fill="#131415"/>
<path d="M24.6356 40.4896H22.2543V42.8672H24.6356V40.4896Z" fill="#131415"/>
<path d="M24.6356 38.1096H22.2543V40.4896H24.6356V38.1096Z" fill="#131415"/>
<path d="M24.6356 35.732H22.2543V38.1096H24.6356V35.732Z" fill="white"/>
<path d="M24.6356 33.3544H22.2543V35.732H24.6356V33.3544Z" fill="white"/>
<path d="M24.6356 30.9769H22.2543V33.3544H24.6356V30.9769Z" fill="#131415"/>
<path d="M24.6356 28.5993H22.2543V30.9769H24.6356V28.5993Z" fill="#131415"/>
<path d="M22.2543 85.6711H19.8731V88.0487H22.2543V85.6711Z" fill="#131415"/>
<path d="M22.2543 83.2935H19.8731V85.6711H22.2543V83.2935Z" fill="#131415"/>
<path d="M22.2543 80.916H19.8731V83.2935H22.2543V80.916Z" fill="white"/>
<path d="M22.2543 78.5384H19.8731V80.916H22.2543V78.5384Z" fill="white"/>
<path d="M22.2543 76.1608H19.8731V78.5384H22.2543V76.1608Z" fill="white"/>
<path d="M22.2543 73.7808H19.8731V76.1608H22.2543V73.7808Z" fill="white"/>
<path d="M22.2543 71.4032H19.8731V73.7808H22.2543V71.4032Z" fill="white"/>
<path d="M22.2543 69.0256H19.8731V71.4032H22.2543V69.0256Z" fill="white"/>
<path d="M22.2543 66.648H19.8731V69.0256H22.2543V66.648Z" fill="#131415"/>
<path d="M22.2543 64.2704H19.8731V66.648H22.2543V64.2704Z" fill="#131415"/>
<path d="M22.2543 61.8904H19.8731V64.2704H22.2543V61.8904Z" fill="#131415"/>
<path d="M22.2543 42.8672H19.8731V45.2448H22.2543V42.8672Z" fill="#131415"/>
<path d="M22.2543 40.4896H19.8731V42.8672H22.2543V40.4896Z" fill="#131415"/>
<path d="M22.2543 38.1096H19.8731V40.4896H22.2543V38.1096Z" fill="#131415"/>
<path d="M22.2543 35.732H19.8731V38.1096H22.2543V35.732Z" fill="#131415"/>
<path d="M22.2543 33.3544H19.8731V35.732H22.2543V33.3544Z" fill="#131415"/>
<path d="M22.2543 30.9769H19.8731V33.3544H22.2543V30.9769Z" fill="#131415"/>
<path d="M19.8731 83.2935H17.4919V85.6711L19.8731 85.6711V83.2935Z" fill="#131415"/>
<path d="M19.8731 80.916H17.4919V83.2935H19.8731V80.916Z" fill="white"/>
<path d="M19.8731 78.5384H17.4919V80.916H19.8731V78.5384Z" fill="white"/>
<path d="M19.8731 76.1608H17.4919V78.5384H19.8731V76.1608Z" fill="white"/>
<path d="M19.8731 73.7808H17.4919V76.1608H19.8731V73.7808Z" fill="white"/>
<path d="M19.8731 71.4032H17.4919V73.7808H19.8731V71.4032Z" fill="white"/>
<path d="M19.8731 69.0256H17.4919V71.4032H19.8731V69.0256Z" fill="#131415"/>
<path d="M19.8731 66.648H17.4919V69.0256H19.8731V66.648Z" fill="#131415"/>
<path d="M19.8731 42.8672H17.4919V45.2448H19.8731V42.8672Z" fill="#131415"/>
<path d="M19.8731 38.1096H17.4919V40.4896L19.8731 40.4896V38.1096Z" fill="#131415"/>
<path d="M17.4919 80.916H15.1107V83.2935L17.4919 83.2935V80.916Z" fill="#131415"/>
<path d="M17.4919 78.5384H15.1107V80.916H17.4919V78.5384Z" fill="white"/>
<path d="M17.4919 76.1608H15.1107V78.5384H17.4919V76.1608Z" fill="white"/>
<path d="M17.4919 73.7808H15.1107V76.1608H17.4919V73.7808Z" fill="white"/>
<path d="M17.4919 71.4032H15.1107V73.7808H17.4919V71.4032Z" fill="#131415"/>
<path d="M17.4919 69.0256H15.1107V71.4032H17.4919V69.0256Z" fill="#131415"/>
<path d="M17.4919 42.8672H15.1107V45.2448H17.4919V42.8672Z" fill="#131415"/>
<path d="M17.4919 38.1096H15.1107V40.4896H17.4919V38.1096Z" fill="#131415"/>
<path d="M15.1107 80.916H12.7295V83.2935H15.1107V80.916Z" fill="#131415"/>
<path d="M15.1107 78.5384H12.7295V80.916H15.1107V78.5384Z" fill="#131415"/>
<path d="M15.1107 76.1608H12.7295V78.5384H15.1107V76.1608Z" fill="white"/>
<path d="M15.1107 73.7808H12.7295V76.1608H15.1107V73.7808Z" fill="white"/>
<path d="M15.1107 71.4032H12.7295V73.7808H15.1107V71.4032Z" fill="white"/>
<path d="M15.1107 69.0256H12.7295V71.4032H15.1107V69.0256Z" fill="#131415"/>
<path d="M15.1107 66.648H12.7295V69.0256H15.1107V66.648Z" fill="#131415"/>
<path d="M15.1107 38.1096H12.7295V40.4896H15.1107V38.1096Z" fill="#131415"/>
<path d="M12.7295 78.5384H10.3483V80.916H12.7295V78.5384Z" fill="#131415"/>
<path d="M12.7295 76.1608H10.3483V78.5384H12.7295V76.1608Z" fill="#131415"/>
<path d="M12.7295 73.7808H10.3483V76.1608H12.7295V73.7808Z" fill="white"/>
<path d="M12.7295 71.4032H10.3483V73.7808H12.7295V71.4032Z" fill="white"/>
<path d="M12.7295 69.0256H10.3483V71.4032H12.7295V69.0256Z" fill="white"/>
<path d="M12.7295 66.648H10.3483V69.0256H12.7295V66.648Z" fill="#131415"/>
<path d="M12.7295 64.2704H10.3483V66.648H12.7295V64.2704Z" fill="#131415"/>
<path d="M12.7295 61.8904H10.3483V64.2704H12.7295V61.8904Z" fill="#131415"/>
<path d="M12.7295 59.5128H10.3483V61.8904H12.7295V59.5128Z" fill="#131415"/>
<path d="M12.7295 57.1352H10.3483V59.5128H12.7295V57.1352Z" fill="#131415"/>
<path d="M12.7295 54.7576H10.3483V57.1352H12.7295V54.7576Z" fill="#131415"/>
<path d="M12.7295 52.38H10.3483V54.7576H12.7295V52.38Z" fill="#131415"/>
<path d="M12.7295 50H10.3483V52.38H12.7295V50Z" fill="#131415"/>
<path d="M12.7295 47.6224H10.3483V50H12.7295V47.6224Z" fill="#131415"/>
<path d="M12.7295 45.2448H10.3483V47.6224H12.7295V45.2448Z" fill="#131415"/>
<path d="M10.3483 76.1608H7.96711V78.5384L10.3483 78.5384V76.1608Z" fill="#131415"/>
<path d="M10.3483 73.7808H7.96711V76.1608H10.3483V73.7808Z" fill="#131415"/>
<path d="M10.3483 71.4032H7.96711V73.7808H10.3483V71.4032Z" fill="white"/>
<path d="M10.3483 69.0256H7.96711V71.4032H10.3483V69.0256Z" fill="white"/>
<path d="M10.3483 66.648H7.96711V69.0256H10.3483V66.648Z" fill="white"/>
<path d="M10.3483 64.2704H7.96711V66.648H10.3483V64.2704Z" fill="white"/>
<path d="M10.3483 61.8904H7.96711V64.2704H10.3483V61.8904Z" fill="white"/>
<path d="M10.3483 59.5128H7.96711V61.8904H10.3483V59.5128Z" fill="white"/>
<path d="M10.3483 57.1352H7.96711V59.5128H10.3483V57.1352Z" fill="white"/>
<path d="M10.3483 54.7576H7.96711V57.1352H10.3483V54.7576Z" fill="white"/>
<path d="M10.3483 52.38H7.96711V54.7576H10.3483V52.38Z" fill="white"/>
<path d="M10.3483 50H7.96711V52.38H10.3483V50Z" fill="white"/>
<path d="M10.3483 47.6224H7.96711V50H10.3483V47.6224Z" fill="white"/>
<path d="M10.3483 45.2448H7.96711V47.6224H10.3483V45.2448Z" fill="#131415"/>
<path d="M10.3483 42.8672H7.96711V45.2448H10.3483V42.8672Z" fill="#131415"/>
<path d="M7.96711 73.7808H5.5859V76.1608H7.96711V73.7808Z" fill="#131415"/>
<path d="M7.96711 71.4032H5.5859V73.7808H7.96711V71.4032Z" fill="#131415"/>
<path d="M7.96711 69.0256H5.5859V71.4032H7.96711V69.0256Z" fill="#131415"/>
<path d="M7.96711 66.648H5.5859V69.0256H7.96711V66.648Z" fill="white"/>
<path d="M7.96711 64.2704H5.5859V66.648H7.96711V64.2704Z" fill="white"/>
<path d="M7.96711 61.8904H5.5859V64.2704H7.96711V61.8904Z" fill="white"/>
<path d="M7.96711 59.5128H5.5859V61.8904H7.96711V59.5128Z" fill="white"/>
<path d="M7.96711 57.1352H5.5859V59.5128H7.96711V57.1352Z" fill="white"/>
<path d="M7.96711 54.7576H5.5859V57.1352H7.96711V54.7576Z" fill="white"/>
<path d="M7.96711 52.38H5.5859V54.7576H7.96711V52.38Z" fill="white"/>
<path d="M7.96711 50H5.5859V52.38H7.96711V50Z" fill="white"/>
<path d="M7.96711 47.6224H5.5859V50H7.96711V47.6224Z" fill="white"/>
<path d="M7.96711 45.2448H5.5859V47.6224H7.96711V45.2448Z" fill="white"/>
<path d="M7.96711 42.8672H5.5859V45.2448H7.96711V42.8672Z" fill="#131415"/>
<path d="M5.5859 69.0256H3.20469V71.4032L5.5859 71.4032V69.0256Z" fill="#131415"/>
<path d="M5.5859 66.648H3.20469V69.0256H5.5859V66.648Z" fill="#131415"/>
<path d="M5.5859 64.2704H3.20469V66.648H5.5859V64.2704Z" fill="#131415"/>
<path d="M5.5859 61.8904H3.20469V64.2704H5.5859V61.8904Z" fill="white"/>
<path d="M5.5859 59.5128H3.20469V61.8904H5.5859V59.5128Z" fill="white"/>
<path d="M5.5859 57.1352H3.20469V59.5128H5.5859V57.1352Z" fill="white"/>
<path d="M5.5859 54.7576H3.20469V57.1352H5.5859V54.7576Z" fill="white"/>
<path d="M5.5859 52.38H3.20469V54.7576H5.5859V52.38Z" fill="white"/>
<path d="M5.5859 50H3.20469V52.38H5.5859V50Z" fill="white"/>
<path d="M5.5859 47.6224H3.20469V50H5.5859V47.6224Z" fill="white"/>
<path d="M5.5859 45.2448H3.20469V47.6224H5.5859V45.2448Z" fill="#131415"/>
<path d="M5.5859 42.8672H3.20469V45.2448H5.5859V42.8672Z" fill="#131415"/>
<path d="M3.20469 64.2704H0.823486V66.648H3.20469V64.2704Z" fill="#131415"/>
<path d="M3.20469 61.8904H0.823486V64.2704H3.20469V61.8904Z" fill="#131415"/>
<path d="M3.20469 59.5128H0.823486V61.8904H3.20469V59.5128Z" fill="#131415"/>
<path d="M3.20469 57.1352H0.823486V59.5128H3.20469V57.1352Z" fill="#131415"/>
<path d="M3.20469 54.7576H0.823486V57.1352H3.20469V54.7576Z" fill="#131415"/>
<path d="M3.20469 52.38H0.823486V54.7576H3.20469V52.38Z" fill="#131415"/>
<path d="M3.20469 50H0.823486V52.38H3.20469V50Z" fill="#131415"/>
<path d="M3.20469 47.6224H0.823486V50H3.20469V47.6224Z" fill="#131415"/>
<path d="M3.20469 45.2448H0.823486V47.6224H3.20469V45.2448Z" fill="#131415"/>
</svg>
