<svg width="61" height="60" viewBox="0 0 61 60" fill="none" xmlns="http://www.w3.org/2000/svg">
<path d="M60.3713 55.385H55.7917V60H60.3713V55.385Z" fill="#6633FF"/>
<path d="M60.3713 50.77H55.7917V55.385H60.3713V50.77Z" fill="#6633FF"/>
<path d="M60.3713 46.155H55.7917V50.77H60.3713V46.155Z" fill="#6633FF"/>
<path d="M60.3713 41.54H55.7917V46.155H60.3713V41.54Z" fill="#6633FF"/>
<path d="M60.3713 36.925H55.7917V41.54H60.3713V36.925Z" fill="#6633FF"/>
<path d="M60.3713 32.31H55.7917V36.925H60.3713V32.31Z" fill="#6633FF"/>
<path d="M60.3713 27.69H55.7917V32.31H60.3713V27.69Z" fill="#6633FF"/>
<path d="M60.3713 23.075H55.7917V27.69H60.3713V23.075Z" fill="#6633FF"/>
<path d="M55.7917 50.77H51.2121V55.385H55.7917V50.77Z" fill="#6633FF"/>
<path d="M55.7917 46.155H51.2121V50.77H55.7917V46.155Z" fill="#6633FF"/>
<path d="M55.7917 41.54H51.2121V46.155H55.7917V41.54Z" fill="#6633FF"/>
<path d="M55.7917 36.925H51.2121V41.54H55.7917V36.925Z" fill="#6633FF"/>
<path d="M55.7917 32.31H51.2121V36.925H55.7917V32.31Z" fill="white"/>
<path d="M55.7917 27.69H51.2121V32.31H55.7917V27.69Z" fill="#6633FF"/>
<path d="M55.7917 23.075H51.2121V27.69H55.7917V23.075Z" fill="#6633FF"/>
<path d="M55.7917 18.46H51.2121V23.075H55.7917L55.7917 18.46Z" fill="white"/>
<path d="M55.7917 13.845H51.2121V18.46H55.7917V13.845Z" fill="#6633FF"/>
<path d="M51.2121 46.155H46.6324V50.77L51.2121 50.77V46.155Z" fill="#6633FF"/>
<path d="M51.2121 41.54H46.6324V46.155H51.2121V41.54Z" fill="#6633FF"/>
<path d="M51.2121 36.925H46.6324V41.54H51.2121V36.925Z" fill="#6633FF"/>
<path d="M51.2121 32.31H46.6324V36.925H51.2121V32.31Z" fill="white"/>
<path d="M51.2121 27.69H46.6324V32.31H51.2121V27.69Z" fill="#6633FF"/>
<path d="M51.2121 23.075H46.6324V27.69H51.2121V23.075Z" fill="#6633FF"/>
<path d="M51.2121 18.46H46.6324V23.075H51.2121V18.46Z" fill="white"/>
<path d="M51.2121 13.845H46.6324V18.46H51.2121V13.845Z" fill="#6633FF"/>
<path d="M51.2121 9.23H46.6324V13.845H51.2121L51.2121 9.23Z" fill="#6633FF"/>
<path d="M46.6324 50.77L42.0528 50.77V55.385H46.6324L46.6324 50.77Z" fill="#6633FF"/>
<path d="M46.6324 46.155H42.0528V50.77L46.6324 50.77V46.155Z" fill="#6633FF"/>
<path d="M46.6324 41.54H42.0528V46.155H46.6324V41.54Z" fill="#6633FF"/>
<path d="M46.6324 36.925H42.0528V41.54H46.6324V36.925Z" fill="#6633FF"/>
<path d="M46.6324 32.31H42.0528V36.925H46.6324V32.31Z" fill="#6633FF"/>
<path d="M46.6324 27.69H42.0528V32.31H46.6324V27.69Z" fill="white"/>
<path d="M46.6324 23.075H42.0528V27.69H46.6324V23.075Z" fill="white"/>
<path d="M46.6324 18.46H42.0528V23.075H46.6324V18.46Z" fill="white"/>
<path d="M46.6324 13.845H42.0528V18.46H46.6324V13.845Z" fill="#6633FF"/>
<path d="M46.6324 9.23H42.0528V13.845H46.6324V9.23Z" fill="#6633FF"/>
<path d="M46.6324 4.615H42.0528V9.23H46.6324L46.6324 4.615Z" fill="#6633FF"/>
<path d="M42.0528 55.385H37.4731V60H42.0528L42.0528 55.385Z" fill="#6633FF"/>
<path d="M42.0528 50.77H37.4731V55.385H42.0528V50.77Z" fill="#6633FF"/>
<path d="M42.0528 46.155H37.4731V50.77H42.0528V46.155Z" fill="#6633FF"/>
<path d="M42.0528 41.54H37.4731V46.155H42.0528V41.54Z" fill="#6633FF"/>
<path d="M42.0528 36.925H37.4731V41.54H42.0528V36.925Z" fill="#6633FF"/>
<path d="M42.0528 32.31H37.4731V36.925H42.0528V32.31Z" fill="#6633FF"/>
<path d="M42.0528 27.69H37.4731V32.31H42.0528V27.69Z" fill="#6633FF"/>
<path d="M42.0528 23.075H37.4731V27.69H42.0528V23.075Z" fill="#6633FF"/>
<path d="M42.0528 18.46H37.4731V23.075H42.0528V18.46Z" fill="#6633FF"/>
<path d="M42.0528 13.845H37.4731V18.46H42.0528V13.845Z" fill="#6633FF"/>
<path d="M42.0528 9.23H37.4731V13.845H42.0528V9.23Z" fill="#6633FF"/>
<path d="M42.0528 4.615H37.4731V9.23H42.0528V4.615Z" fill="#6633FF"/>
<path d="M42.0528 0H37.4731V4.615H42.0528L42.0528 0Z" fill="#6633FF"/>
<path d="M37.4731 55.385H32.8935V60H37.4731V55.385Z" fill="#6633FF"/>
<path d="M37.4731 50.77H32.8935V55.385H37.4731V50.77Z" fill="#6633FF"/>
<path d="M37.4731 46.155H32.8935V50.77H37.4731V46.155Z" fill="#6633FF"/>
<path d="M37.4731 41.54H32.8935V46.155H37.4731V41.54Z" fill="#6633FF"/>
<path d="M37.4731 36.925H32.8935V41.54H37.4731V36.925Z" fill="#6633FF"/>
<path d="M37.4731 32.31H32.8935V36.925H37.4731V32.31Z" fill="#6633FF"/>
<path d="M37.4731 27.69H32.8935V32.31H37.4731V27.69Z" fill="#6633FF"/>
<path d="M37.4731 23.075H32.8935V27.69H37.4731V23.075Z" fill="#6633FF"/>
<path d="M37.4731 18.46H32.8935V23.075H37.4731V18.46Z" fill="#6633FF"/>
<path d="M37.4731 13.845H32.8935V18.46H37.4731V13.845Z" fill="#6633FF"/>
<path d="M37.4731 9.23H32.8935V13.845H37.4731V9.23Z" fill="#6633FF"/>
<path d="M37.4731 4.615H32.8935V9.23H37.4731V4.615Z" fill="#6633FF"/>
<path d="M37.4731 0H32.8935V4.615H37.4731V0Z" fill="#6633FF"/>
<path d="M32.8935 46.155H28.3138V50.77L32.8935 50.77V46.155Z" fill="#6633FF"/>
<path d="M32.8935 41.54H28.3138V46.155H32.8935V41.54Z" fill="#6633FF"/>
<path d="M32.8935 36.925H28.3138V41.54H32.8935V36.925Z" fill="#6633FF"/>
<path d="M32.8935 32.31H28.3138V36.925H32.8935V32.31Z" fill="#6633FF"/>
<path d="M32.8935 27.69H28.3138V32.31H32.8935V27.69Z" fill="#6633FF"/>
<path d="M32.8935 23.075H28.3138V27.69H32.8935V23.075Z" fill="#6633FF"/>
<path d="M32.8935 18.46H28.3138V23.075H32.8935V18.46Z" fill="#6633FF"/>
<path d="M32.8935 13.845H28.3138V18.46H32.8935V13.845Z" fill="#6633FF"/>
<path d="M32.8935 9.23H28.3138V13.845H32.8935V9.23Z" fill="#6633FF"/>
<path d="M32.8935 4.615H28.3138V9.23H32.8935V4.615Z" fill="#6633FF"/>
<path d="M32.8935 0H28.3138V4.615H32.8935V0Z" fill="#6633FF"/>
<path d="M28.3138 50.77L23.7342 50.77V55.385H28.3139L28.3138 50.77Z" fill="#6633FF"/>
<path d="M28.3138 46.155H23.7342V50.77L28.3138 50.77V46.155Z" fill="#6633FF"/>
<path d="M28.3138 41.54H23.7342V46.155H28.3138V41.54Z" fill="#6633FF"/>
<path d="M28.3138 36.925H23.7342V41.54H28.3138V36.925Z" fill="#6633FF"/>
<path d="M28.3138 32.31H23.7342V36.925H28.3138V32.31Z" fill="white"/>
<path d="M28.3138 27.69H23.7342V32.31H28.3138V27.69Z" fill="#6633FF"/>
<path d="M28.3138 23.075H23.7342V27.69H28.3138V23.075Z" fill="#6633FF"/>
<path d="M28.3138 18.46H23.7342V23.075H28.3138V18.46Z" fill="white"/>
<path d="M28.3138 13.845H23.7342V18.46H28.3138V13.845Z" fill="#6633FF"/>
<path d="M28.3138 9.23H23.7342V13.845H28.3138V9.23Z" fill="#6633FF"/>
<path d="M28.3138 4.615H23.7342V9.23H28.3138V4.615Z" fill="#6633FF"/>
<path d="M28.3138 0H23.7342V4.615H28.3138V0Z" fill="#6633FF"/>
<path d="M23.7342 55.385H19.1496V60H23.7342L23.7342 55.385Z" fill="#6633FF"/>
<path d="M23.7342 50.77H19.1496V55.385H23.7342V50.77Z" fill="#6633FF"/>
<path d="M23.7342 46.155H19.1496V50.77H23.7342V46.155Z" fill="#6633FF"/>
<path d="M23.7342 41.54H19.1496V46.155H23.7342V41.54Z" fill="#6633FF"/>
<path d="M23.7342 36.925H19.1496V41.54H23.7342V36.925Z" fill="#6633FF"/>
<path d="M23.7342 32.31H19.1496V36.925H23.7342V32.31Z" fill="white"/>
<path d="M23.7342 27.69H19.1496V32.31H23.7342V27.69Z" fill="#6633FF"/>
<path d="M23.7342 23.075H19.1496V27.69H23.7342V23.075Z" fill="#6633FF"/>
<path d="M23.7342 18.46H19.1496V23.075H23.7342V18.46Z" fill="white"/>
<path d="M23.7342 13.845H19.1496V18.46H23.7342V13.845Z" fill="#6633FF"/>
<path d="M23.7342 9.23H19.1496V13.845H23.7342V9.23Z" fill="#6633FF"/>
<path d="M23.7342 4.615H19.1496V9.23H23.7342V4.615Z" fill="#6633FF"/>
<path d="M23.7342 0H19.1496V4.615H23.7342V0Z" fill="#6633FF"/>
<path d="M19.1496 50.77H14.57V55.385H19.1496V50.77Z" fill="#6633FF"/>
<path d="M19.1496 46.155H14.57V50.77H19.1496V46.155Z" fill="#6633FF"/>
<path d="M19.1496 41.54H14.57V46.155H19.1496V41.54Z" fill="#6633FF"/>
<path d="M19.1496 36.925H14.57V41.54H19.1496V36.925Z" fill="#6633FF"/>
<path d="M19.1496 32.31H14.57V36.925H19.1496V32.31Z" fill="#6633FF"/>
<path d="M19.1496 27.69H14.57V32.31H19.1496V27.69Z" fill="white"/>
<path d="M19.1496 23.075H14.57V27.69H19.1496V23.075Z" fill="white"/>
<path d="M19.1496 18.46H14.57V23.075H19.1496V18.46Z" fill="white"/>
<path d="M19.1496 13.845H14.57V18.46H19.1496V13.845Z" fill="#6633FF"/>
<path d="M19.1496 9.23H14.57V13.845H19.1496V9.23Z" fill="#6633FF"/>
<path d="M19.1496 4.615H14.57V9.23H19.1496V4.615Z" fill="#6633FF"/>
<path d="M14.57 46.155H9.99036V50.77L14.57 50.77V46.155Z" fill="#6633FF"/>
<path d="M14.57 41.54H9.99036V46.155H14.57V41.54Z" fill="#6633FF"/>
<path d="M14.57 36.925H9.99036V41.54H14.57V36.925Z" fill="#6633FF"/>
<path d="M14.57 32.31H9.99036V36.925H14.57V32.31Z" fill="#6633FF"/>
<path d="M14.57 27.69H9.99036V32.31H14.57V27.69Z" fill="#6633FF"/>
<path d="M14.57 23.075H9.99036V27.69H14.57V23.075Z" fill="#6633FF"/>
<path d="M14.57 18.46H9.99036V23.075H14.57V18.46Z" fill="#6633FF"/>
<path d="M14.57 13.845H9.99036V18.46H14.57V13.845Z" fill="#6633FF"/>
<path d="M14.57 9.23H9.99036V13.845H14.57V9.23Z" fill="#6633FF"/>
<path d="M9.99036 50.77L5.41068 50.77V55.385H9.99033L9.99036 50.77Z" fill="#6633FF"/>
<path d="M9.99036 46.155H5.41068V50.77L9.99036 50.77V46.155Z" fill="#6633FF"/>
<path d="M9.99036 41.54H5.41068V46.155H9.99036V41.54Z" fill="#6633FF"/>
<path d="M9.99036 36.925H5.41068V41.54H9.99036V36.925Z" fill="#6633FF"/>
<path d="M9.99036 32.31H5.41068V36.925H9.99036V32.31Z" fill="#6633FF"/>
<path d="M9.99036 27.69H5.41068V32.31H9.99036V27.69Z" fill="#6633FF"/>
<path d="M9.99036 23.075H5.41068V27.69H9.99036V23.075Z" fill="#6633FF"/>
<path d="M9.99036 18.46H5.41068V23.075H9.99036V18.46Z" fill="#6633FF"/>
<path d="M9.99036 13.845H5.41068V18.46H9.99036V13.845Z" fill="#6633FF"/>
<path d="M5.41068 55.385H0.831055V60H5.41069L5.41068 55.385Z" fill="#6633FF"/>
<path d="M5.41068 50.77H0.831055V55.385H5.41068V50.77Z" fill="#6633FF"/>
<path d="M5.41068 46.155H0.831055V50.77H5.41068V46.155Z" fill="#6633FF"/>
<path d="M5.41068 41.54H0.831055V46.155H5.41068V41.54Z" fill="#6633FF"/>
<path d="M5.41068 36.925H0.831055V41.54H5.41068V36.925Z" fill="#6633FF"/>
<path d="M5.41068 32.31H0.831055V36.925H5.41068V32.31Z" fill="#6633FF"/>
<path d="M5.41068 27.69H0.831055V32.31H5.41068V27.69Z" fill="#6633FF"/>
<path d="M5.41068 23.075H0.831055V27.69H5.41068V23.075Z" fill="#6633FF"/>
</svg>
